999
dxfrw 0.6.3
  0
SECTION
  2
HEADER
  9
$ACADVER
  1
AC1021
  9
$DWGCODEPAGE
  3
ANSI_1252
  9
$INSBASE
 10
0
 20
0
 30
0
  9
$EXTMIN
 10
-55.77777777777803
 20
-67.33333333333334
 30
0
  9
$EXTMAX
 10
493.2235564550152
 20
447.3333333333333
 30
0
  9
$LIMMIN
 10
0
 20
0
  9
$LIMMAX
 10
420
 20
297
  9
$ORTHOMODE
 70
    0
  9
$REGENMODE
 70
    1
  9
$FILLMODE
 70
    1
  9
$QTEXTMODE
 70
    0
  9
$MIRRTEXT
 70
    0
  9
$LTSCALE
 40
1
  9
$ATTMODE
 70
    0
  9
$TEXTSIZE
 40
2.5
  9
$TRACEWID
 40
15.68
  9
$TEXTSTYLE
  7
STANDARD
  9
$CLAYER
  8
dimension
  9
$CELTYPE
  6
BYLAYER
  9
$CECOLOR
 62
  256
  9
$CELTSCALE
 40
1
  9
$DISPSILH
 70
    0
  9
$DIMSCALE
 40
1
  9
$DIMASZ
 40
2.5
  9
$DIMEXO
 40
2
  9
$DIMDLI
 40
3.75
  9
$DIMRND
 40
0
  9
$DIMDLE
 40
0
  9
$DIMEXE
 40
0.05
  9
$DIMTP
 40
0
  9
$DIMTM
 40
0
  9
$DIMTXT
 40
4
  9
$DIMCEN
 40
2.5
  9
$DIMTSZ
 40
0
  9
$DIMTOL
 70
    0
  9
$DIMLIM
 70
    0
  9
$DIMTIH
 70
    1
  9
$DIMTOH
 70
    0
  9
$DIMSE1
 70
    0
  9
$DIMSE2
 70
    0
  9
$DIMTAD
 70
    1
  9
$DIMZIN
 70
    8
  9
$DIMBLK
  1

  9
$DIMASO
 70
    1
  9
$DIMSHO
 70
    1
  9
$DIMPOST
  1

  9
$DIMAPOST
  1

  9
$DIMALT
 70
    0
  9
$DIMALTD
 70
    3
  9
$DIMALTF
 40
0.03937
  9
$DIMLFAC
 40
1
  9
$DIMTOFL
 70
    1
  9
$DIMTVP
 40
0
  9
$DIMTIX
 70
    0
  9
$DIMSOXD
 70
    0
  9
$DIMSAH
 70
    0
  9
$DIMBLK1
  1

  9
$DIMBLK2
  1

  9
$DIMSTYLE
  2
STANDARD
  9
$DIMCLRD
 70
  256
  9
$DIMCLRE
 70
  256
  9
$DIMCLRT
 70
    0
  9
$DIMTFAC
 40
1
  9
$DIMGAP
 40
0.625
  9
$DIMJUST
 70
    0
  9
$DIMSD1
 70
    0
  9
$DIMSD2
 70
    0
  9
$DIMTOLJ
 70
    0
  9
$DIMTZIN
 70
    8
  9
$DIMALTZ
 70
    0
  9
$DIMALTTZ
 70
    0
  9
$DIMUPT
 70
    0
  9
$DIMDEC
 70
    4
  9
$DIMTDEC
 70
    2
  9
$DIMALTU
 70
    2
  9
$DIMALTTD
 70
    3
  9
$DIMTXSTY
  7
standard
  9
$DIMAUNIT
 70
    0
  9
$DIMADEC
 70
    2
  9
$DIMALTRND
 40
0
  9
$DIMAZIN
 70
    0
  9
$DIMDSEP
 70
    0
  9
$DIMATFIT
 70
    3
  9
$DIMFRAC
 70
    0
  9
$DIMLDRBLK
  1
STANDARD
  9
$DIMLUNIT
 70
    2
  9
$DIMLWD
 70
   -2
  9
$DIMLWE
 70
   -2
  9
$DIMTMOVE
 70
    0
  9
$DIMFXL
 40
0.04
  9
$DIMFXLON
 70
    0
  9
$DIMJOGANG
 40
0.7854
  9
$DIMTFILL
 70
    0
  9
$DIMTFILLCLR
 70
    0
  9
$DIMARCSYM
 70
    0
  9
$DIMLTYPE
  6

  9
$DIMLTEX1
  6

  9
$DIMLTEX2
  6

  9
$LUNITS
 70
    2
  9
$LUPREC
 70
    4
  9
$SKETCHINC
 40
1
  9
$FILLETRAD
 40
0
  9
$AUNITS
 70
    0
  9
$AUPREC
 70
    2
  9
$MENU
  1
.
  9
$ELEVATION
 40
0
  9
$PELEVATION
 40
0
  9
$THICKNESS
 40
0
  9
$LIMCHECK
 70
    0
  9
$CHAMFERA
 40
0
  9
$CHAMFERB
 40
0
  9
$CHAMFERC
 40
0
  9
$CHAMFERD
 40
0
  9
$SKPOLY
 70
    0
  9
$USRTIMER
 70
    1
  9
$ANGBASE
 50
0
  9
$ANGDIR
 70
    0
  9
$PDMODE
 70
   34
  9
$PDSIZE
 40
0
  9
$PLINEWID
 40
0
  9
$SPLFRAME
 70
    0
  9
$SPLINETYPE
 70
    2
  9
$SPLINESEGS
 70
    8
  9
$HANDSEED
  5
20000
  9
$SURFTAB1
 70
    6
  9
$SURFTAB2
 70
    6
  9
$SURFTYPE
 70
    6
  9
$SURFU
 70
    6
  9
$SURFV
 70
    6
  9
$UCSBASE
  2

  9
$UCSNAME
  2

  9
$UCSORG
 10
0
 20
0
 30
0
  9
$UCSXDIR
 10
1
 20
0
 30
0
  9
$UCSYDIR
 10
0
 20
1
 30
0
  9
$UCSORTHOREF
  2

  9
$UCSORTHOVIEW
 70
    0
  9
$UCSORGTOP
 10
0
 20
0
 30
0
  9
$UCSORGBOTTOM
 10
0
 20
0
 30
0
  9
$UCSORGLEFT
 10
0
 20
0
 30
0
  9
$UCSORGRIGHT
 10
0
 20
0
 30
0
  9
$UCSORGFRONT
 10
0
 20
0
 30
0
  9
$UCSORGBACK
 10
0
 20
0
 30
0
  9
$PUCSBASE
  2

  9
$PUCSNAME
  2

  9
$PUCSORG
 10
0
 20
0
 30
0
  9
$PUCSXDIR
 10
1
 20
0
 30
0
  9
$PUCSYDIR
 10
0
 20
1
 30
0
  9
$PUCSORTHOREF
  2

  9
$PUCSORTHOVIEW
 70
    0
  9
$PUCSORGTOP
 10
0
 20
0
 30
0
  9
$PUCSORGBOTTOM
 10
0
 20
0
 30
0
  9
$PUCSORGLEFT
 10
0
 20
0
 30
0
  9
$PUCSORGRIGHT
 10
0
 20
0
 30
0
  9
$PUCSORGFRONT
 10
0
 20
0
 30
0
  9
$PUCSORGBACK
 10
0
 20
0
 30
0
  9
$USERI1
 70
    0
  9
$USERI2
 70
    0
  9
$USERI3
 70
    0
  9
$USERI4
 70
    0
  9
$USERI5
 70
    0
  9
$USERR1
 40
0
  9
$USERR2
 40
0
  9
$USERR3
 40
0
  9
$USERR4
 40
0
  9
$USERR5
 40
0
  9
$WORLDVIEW
 70
    1
  9
$SHADEDGE
 70
    3
  9
$SHADEDIF
 70
   70
  9
$TILEMODE
 70
    1
  9
$MAXACTVP
 70
   64
  9
$PINSBASE
 10
43.87567228384187
 20
35.26314363143631
 30
0
  9
$PLIMCHECK
 70
    0
  9
$PEXTMIN
 10
0
 20
0
 30
0
  9
$PEXTMAX
 10
0
 20
0
 30
0
  9
$GRIDMODE
 70
    1
  9
$SNAPSTYLE
 70
    0
  9
$GRIDUNIT
 10
0
 20
0
  9
$PLIMMIN
 10
0
 20
0
  9
$PLIMMAX
 10
297
 20
210
  9
$UNITMODE
 70
    0
  9
$VISRETAIN
 70
    1
  9
$PLINEGEN
 70
    0
  9
$PSLTSCALE
 70
    1
  9
$TREEDEPTH
 70
 3020
  9
$CMLSTYLE
  2
Standard
  9
$CMLJUST
 70
    0
  9
$CMLSCALE
 40
20
  9
$PROXYGRAPHICS
 70
    1
  9
$MEASUREMENT
 70
    1
  9
$CELWEIGHT
370
   -1
  9
$ENDCAPS
280
    0
  9
$JOINSTYLE
280
    0
  9
$LWDISPLAY
290
    0
  9
$INSUNITS
 70
    4
  9
$HYPERLINKBASE
  1

  9
$STYLESHEET
  1

  9
$XEDIT
290
    1
  9
$CEPSNTYPE
380
    0
  9
$PSTYLEMODE
290
    1
  9
$EXTNAMES
290
    1
  9
$PSVPSCALE
 40
1.03469
  9
$OLESTARTUP
290
    0
  9
$SORTENTS
280
  127
  9
$INDEXCTL
280
    0
  9
$HIDETEXT
280
    1
  9
$XCLIPFRAME
290
    0
  9
$HALOGAP
280
    0
  9
$OBSCOLOR
 70
  257
  9
$OBSLTYPE
280
    0
  9
$INTERSECTIONDISPLAY
280
    0
  9
$INTERSECTIONCOLOR
 70
  257
  9
$DIMASSOC
280
    1
  9
$PROJECTNAME
  1

  9
$CAMERADISPLAY
290
    0
  9
$LENSLENGTH
 40
50
  9
$CAMERAHEIGHT
 40
0
  9
$STEPSPERSEC
 40
2
  9
$STEPSIZE
 40
50
  9
$3DDWFPREC
 40
2
  9
$PSOLWIDTH
 40
5
  9
$PSOLHEIGHT
 40
80
  9
$LOFTANG1
 40
1.570796326794897
  9
$LOFTANG2
 40
1.570796326794897
  9
$LOFTMAG1
 40
0
  9
$LOFTMAG2
 40
0
  9
$LOFTPARAM
 70
    7
  9
$LOFTNORMALS
280
    1
  9
$LATITUDE
 40
1
  9
$LONGITUDE
 40
1
  9
$NORTHDIRECTION
 40
0
  9
$TIMEZONE
 70
-8000
  9
$LIGHTGLYPHDISPLAY
280
    1
  9
$TILEMODELIGHTSYNCH
280
    1
  9
$SOLIDHIST
280
    1
  9
$SHOWHIST
280
    1
  9
$DWFFRAME
280
    2
  9
$DGNFRAME
280
    0
  9
$REALWORLDSCALE
290
    1
  9
$INTERFERECOLOR
 62
    1
  9
$CSHADOW
280
    0
  9
$SHADOWPLANELOCATION
 40
0
  0
ENDSEC
  0
SECTION
  2
CLASSES
  0
ENDSEC
  0
SECTION
  2
TABLES
  0
TABLE
  2
VPORT
  5
8
330
0
100
AcDbSymbolTable
 70
    1
  0
VPORT
  5
31
330
2
100
AcDbSymbolTableRecord
100
AcDbViewportTableRecord
  2
*ACTIVE
 70
    0
 10
0
 20
0
 11
1
 21
1
 12
292.4651886425515
 22
226.7055620381174
 13
0
 23
0
 14
10
 24
10
 15
10
 25
10
 16
0
 26
0
 36
1
 17
0
 27
0
 37
0
 40
526.6775573706728
 41
1.388825541619156
 42
50
 43
0
 44
0
 50
0
 51
0
 71
    0
 72
  100
 73
    1
 74
    3
 75
    0
 76
    1
 77
    0
 78
    0
281
    0
 65
    1
110
0
120
0
130
0
111
1
121
0
131
0
112
0
122
1
132
0
 79
    0
146
0
348
10020
 60
    7
 61
    5
292
1
282
    1
141
0
142
0
 63
  250
421
3358443
  0
ENDTAB
  0
TABLE
  2
LTYPE
  5
5
330
0
100
AcDbSymbolTable
 70
    4
  0
LTYPE
  5
14
330
5
100
AcDbSymbolTableRecord
100
AcDbLinetypeTableRecord
  2
ByBlock
 70
    0
  3

 72
   65
 73
    0
 40
0
  0
LTYPE
  5
15
330
5
100
AcDbSymbolTableRecord
100
AcDbLinetypeTableRecord
  2
ByLayer
 70
    0
  3

 72
   65
 73
    0
 40
0
  0
LTYPE
  5
16
330
5
100
AcDbSymbolTableRecord
100
AcDbLinetypeTableRecord
  2
Continuous
 70
    0
  3
Solid line
 72
   65
 73
    0
 40
0
  0
LTYPE
  5
32
330
5
100
AcDbSymbolTableRecord
100
AcDbLinetypeTableRecord
  2
DOT
 70
    0
  3
Dot . . . . . . . . . . . . . . . . . . . . . .
 72
   65
 73
    2
 40
6.35
 49
0
 74
    0
 49
-6.35
 74
    0
  0
LTYPE
  5
33
330
5
100
AcDbSymbolTableRecord
100
AcDbLinetypeTableRecord
  2
DOTTINY
 70
    0
  3
Dot (.15x) .....................................
 72
   65
 73
    2
 40
0.9525
 49
0
 74
    0
 49
-0.9525
 74
    0
  0
LTYPE
  5
34
330
5
100
AcDbSymbolTableRecord
100
AcDbLinetypeTableRecord
  2
DOT2
 70
    0
  3
Dot (.5x) .....................................
 72
   65
 73
    2
 40
3.175
 49
0
 74
    0
 49
-3.175
 74
    0
  0
LTYPE
  5
35
330
5
100
AcDbSymbolTableRecord
100
AcDbLinetypeTableRecord
  2
DOTX2
 70
    0
  3
Dot (2x) .  .  .  .  .  .  .  .  .  .  .  .  .
 72
   65
 73
    2
 40
12.7
 49
0
 74
    0
 49
-12.7
 74
    0
  0
LTYPE
  5
36
330
5
100
AcDbSymbolTableRecord
100
AcDbLinetypeTableRecord
  2
DASHED
 70
    0
  3
Dashed _ _ _ _ _ _ _ _ _ _ _ _ _ _ _ _ _
 72
   65
 73
    2
 40
19.05
 49
12.7
 74
    0
 49
-6.35
 74
    0
  0
LTYPE
  5
37
330
5
100
AcDbSymbolTableRecord
100
AcDbLinetypeTableRecord
  2
DASHEDTINY
 70
    0
  3
Dashed (.15x) _ _ _ _ _ _ _ _ _ _ _ _ _ _ _ _ _
 72
   65
 73
    2
 40
2.8575
 49
1.905
 74
    0
 49
-0.9525
 74
    0
  0
LTYPE
  5
38
330
5
100
AcDbSymbolTableRecord
100
AcDbLinetypeTableRecord
  2
DASHED2
 70
    0
  3
Dashed (.5x) _ _ _ _ _ _ _ _ _ _ _ _ _ _ _ _ _
 72
   65
 73
    2
 40
9.524999999999999
 49
6.35
 74
    0
 49
-3.175
 74
    0
  0
LTYPE
  5
39
330
5
100
AcDbSymbolTableRecord
100
AcDbLinetypeTableRecord
  2
DASHEDX2
 70
    0
  3
Dashed (2x) ____  ____  ____  ____  ____  ___
 72
   65
 73
    2
 40
38.09999999999999
 49
25.4
 74
    0
 49
-12.7
 74
    0
  0
LTYPE
  5
3A
330
5
100
AcDbSymbolTableRecord
100
AcDbLinetypeTableRecord
  2
DASHDOT
 70
    0
  3
Dash dot __ . __ . __ . __ . __ . __ . __ . __
 72
   65
 73
    4
 40
25.4
 49
12.7
 74
    0
 49
-6.35
 74
    0
 49
0
 74
    0
 49
-6.35
 74
    0
  0
LTYPE
  5
3B
330
5
100
AcDbSymbolTableRecord
100
AcDbLinetypeTableRecord
  2
DASHDOTTINY
 70
    0
  3
Dash dot (.15x) _._._._._._._._._._._._._._._.
 72
   65
 73
    4
 40
3.81
 49
1.905
 74
    0
 49
-0.9525
 74
    0
 49
0
 74
    0
 49
-0.9525
 74
    0
  0
LTYPE
  5
3C
330
5
100
AcDbSymbolTableRecord
100
AcDbLinetypeTableRecord
  2
DASHDOT2
 70
    0
  3
Dash dot (.5x) _._._._._._._._._._._._._._._.
 72
   65
 73
    4
 40
12.7
 49
6.35
 74
    0
 49
-3.175
 74
    0
 49
0
 74
    0
 49
-3.175
 74
    0
  0
LTYPE
  5
3D
330
5
100
AcDbSymbolTableRecord
100
AcDbLinetypeTableRecord
  2
DASHDOTX2
 70
    0
  3
Dash dot (2x) ____  .  ____  .  ____  .  ___
 72
   65
 73
    4
 40
50.8
 49
25.4
 74
    0
 49
-12.7
 74
    0
 49
0
 74
    0
 49
-12.7
 74
    0
  0
LTYPE
  5
3E
330
5
100
AcDbSymbolTableRecord
100
AcDbLinetypeTableRecord
  2
DIVIDE
 70
    0
  3
Divide ____ . . ____ . . ____ . . ____ . . ____
 72
   65
 73
    6
 40
31.75
 49
12.7
 74
    0
 49
-6.35
 74
    0
 49
0
 74
    0
 49
-6.35
 74
    0
 49
0
 74
    0
 49
-6.35
 74
    0
  0
LTYPE
  5
3F
330
5
100
AcDbSymbolTableRecord
100
AcDbLinetypeTableRecord
  2
DIVIDETINY
 70
    0
  3
Divide (.15x) __..__..__..__..__..__..__..__.._
 72
   65
 73
    6
 40
4.7625
 49
1.905
 74
    0
 49
-0.9525
 74
    0
 49
0
 74
    0
 49
-0.9525
 74
    0
 49
0
 74
    0
 49
-0.9525
 74
    0
  0
LTYPE
  5
40
330
5
100
AcDbSymbolTableRecord
100
AcDbLinetypeTableRecord
  2
DIVIDE2
 70
    0
  3
Divide (.5x) __..__..__..__..__..__..__..__.._
 72
   65
 73
    6
 40
15.875
 49
6.35
 74
    0
 49
-3.175
 74
    0
 49
0
 74
    0
 49
-3.175
 74
    0
 49
0
 74
    0
 49
-3.175
 74
    0
  0
LTYPE
  5
41
330
5
100
AcDbSymbolTableRecord
100
AcDbLinetypeTableRecord
  2
DIVIDEX2
 70
    0
  3
Divide (2x) ________  .  .  ________  .  .  _
 72
   65
 73
    6
 40
63.5
 49
25.4
 74
    0
 49
-12.7
 74
    0
 49
0
 74
    0
 49
-12.7
 74
    0
 49
0
 74
    0
 49
-12.7
 74
    0
  0
LTYPE
  5
42
330
5
100
AcDbSymbolTableRecord
100
AcDbLinetypeTableRecord
  2
BORDER
 70
    0
  3
Border __ __ . __ __ . __ __ . __ __ . __ __ .
 72
   65
 73
    6
 40
44.45
 49
12.7
 74
    0
 49
-6.35
 74
    0
 49
12.7
 74
    0
 49
-6.35
 74
    0
 49
0
 74
    0
 49
-6.35
 74
    0
  0
LTYPE
  5
43
330
5
100
AcDbSymbolTableRecord
100
AcDbLinetypeTableRecord
  2
BORDERTINY
 70
    0
  3
Border (.15x) __.__.__.__.__.__.__.__.__.__.__.
 72
   65
 73
    6
 40
6.6675
 49
1.905
 74
    0
 49
-0.9525
 74
    0
 49
1.905
 74
    0
 49
-0.9525
 74
    0
 49
0
 74
    0
 49
-0.9525
 74
    0
  0
LTYPE
  5
44
330
5
100
AcDbSymbolTableRecord
100
AcDbLinetypeTableRecord
  2
BORDER2
 70
    0
  3
Border (.5x) __.__.__.__.__.__.__.__.__.__.__.
 72
   65
 73
    6
 40
22.225
 49
6.35
 74
    0
 49
-3.175
 74
    0
 49
6.35
 74
    0
 49
-3.175
 74
    0
 49
0
 74
    0
 49
-3.175
 74
    0
  0
LTYPE
  5
45
330
5
100
AcDbSymbolTableRecord
100
AcDbLinetypeTableRecord
  2
BORDERX2
 70
    0
  3
Border (2x) ____  ____  .  ____  ____  .  ___
 72
   65
 73
    6
 40
88.89999999999999
 49
25.4
 74
    0
 49
-12.7
 74
    0
 49
25.4
 74
    0
 49
-12.7
 74
    0
 49
0
 74
    0
 49
-12.7
 74
    0
  0
LTYPE
  5
46
330
5
100
AcDbSymbolTableRecord
100
AcDbLinetypeTableRecord
  2
CENTER
 70
    0
  3
Center ____ _ ____ _ ____ _ ____ _ ____ _ ____
 72
   65
 73
    4
 40
50.8
 49
31.75
 74
    0
 49
-6.35
 74
    0
 49
6.35
 74
    0
 49
-6.35
 74
    0
  0
LTYPE
  5
47
330
5
100
AcDbSymbolTableRecord
100
AcDbLinetypeTableRecord
  2
CENTERTINY
 70
    0
  3
Center (.15x) ___ _ ___ _ ___ _ ___ _ ___ _ ___
 72
   65
 73
    4
 40
7.62
 49
4.7625
 74
    0
 49
-0.9525
 74
    0
 49
0.9525
 74
    0
 49
-0.9525
 74
    0
  0
LTYPE
  5
48
330
5
100
AcDbSymbolTableRecord
100
AcDbLinetypeTableRecord
  2
CENTER2
 70
    0
  3
Center (.5x) ___ _ ___ _ ___ _ ___ _ ___ _ ___
 72
   65
 73
    4
 40
28.575
 49
19.05
 74
    0
 49
-3.175
 74
    0
 49
3.175
 74
    0
 49
-3.175
 74
    0
  0
LTYPE
  5
49
330
5
100
AcDbSymbolTableRecord
100
AcDbLinetypeTableRecord
  2
CENTERX2
 70
    0
  3
Center (2x) ________  __  ________  __  _____
 72
   65
 73
    4
 40
101.6
 49
63.5
 74
    0
 49
-12.7
 74
    0
 49
12.7
 74
    0
 49
-12.7
 74
    0
  0
ENDTAB
  0
TABLE
  2
LAYER
  5
2
330
0
100
AcDbSymbolTable
 70
    1
  0
LAYER
  5
10
330
2
100
AcDbSymbolTableRecord
100
AcDbLayerTableRecord
  2
0
 70
    0
 62
    7
  6
CONTINUOUS
370
    0
390
F
  0
LAYER
  5
4A
330
2
100
AcDbSymbolTableRecord
100
AcDbLayerTableRecord
  2
center
 70
    0
 62
    1
  6
CENTERTINY
370
    0
390
F
  0
LAYER
  5
4B
330
2
100
AcDbSymbolTableRecord
100
AcDbLayerTableRecord
  2
claw
 70
    0
 62
    6
  6
DIVIDETINY
370
    0
390
F
  0
LAYER
  5
4C
330
2
100
AcDbSymbolTableRecord
100
AcDbLayerTableRecord
  2
component
 70
    0
 62
    3
  6
CONTINUOUS
370
    0
390
F
  0
LAYER
  5
4D
330
2
100
AcDbSymbolTableRecord
100
AcDbLayerTableRecord
  2
dimension
 70
    0
 62
  253
420
10526884
  6
CONTINUOUS
370
    0
390
F
  0
LAYER
  5
4E
330
2
100
AcDbSymbolTableRecord
100
AcDbLayerTableRecord
  2
main
 70
    0
 62
    4
  6
CONTINUOUS
370
    0
390
F
  0
LAYER
  5
4F
330
2
100
AcDbSymbolTableRecord
100
AcDbLayerTableRecord
  2
phantom
 70
    0
 62
   96
420
32768
  6
BORDERTINY
370
    0
390
F
1001
LibreCad
1070
    1
  0
ENDTAB
  0
TABLE
  2
STYLE
  5
3
330
0
100
AcDbSymbolTable
 70
    3
  0
STYLE
  5
50
330
2
100
AcDbSymbolTableRecord
100
AcDbTextStyleTableRecord
  2
unicode
 70
    0
 40
0
 41
1
 50
0
 71
    0
 42
1
  3
unicode
  4

  0
STYLE
  5
51
330
2
100
AcDbSymbolTableRecord
100
AcDbTextStyleTableRecord
  2
Standard
 70
    0
 40
0
 41
1
 50
0
 71
    0
 42
1
  3
txt
  4

  0
ENDTAB
  0
TABLE
  2
VIEW
  5
6
330
0
100
AcDbSymbolTable
 70
    0
  0
ENDTAB
  0
TABLE
  2
UCS
  5
7
330
0
100
AcDbSymbolTable
 70
    0
  0
ENDTAB
  0
TABLE
  2
APPID
  5
9
330
0
100
AcDbSymbolTable
 70
    1
  0
APPID
  5
12
330
9
100
AcDbSymbolTableRecord
100
AcDbRegAppTableRecord
  2
ACAD
 70
    0
  0
APPID
  5
52
330
9
100
AcDbSymbolTableRecord
100
AcDbRegAppTableRecord
  2
LibreCad
 70
    0
  0
ENDTAB
  0
TABLE
  2
DIMSTYLE
  5
A
330
0
100
AcDbSymbolTable
 70
    1
100
AcDbDimStyleTable
 71
    1
  0
DIMSTYLE
105
53
330
A
100
AcDbSymbolTableRecord
100
AcDbDimStyleTableRecord
  2
Standard
 70
    0
 40
1
 41
2.5
 42
2
 43
0.38
 44
0.05
 45
0
 46
0
 47
0
 48
0
 49
0.04
140
4
141
0.09
142
0
143
25.4
144
1
145
0
146
1
147
0.625
148
0
 71
    0
 72
    0
 73
    1
 74
    1
 75
    0
 76
    0
 77
    0
 78
    8
 79
    0
170
    0
171
    2
172
    0
173
    0
174
    0
175
    0
176
  256
177
  256
178
    0
179
    2
271
    4
272
    4
273
    2
274
    2
275
    0
276
    0
277
    2
278
    0
279
    0
280
    0
281
    0
282
    0
283
    1
284
    0
285
    0
286
    0
288
    0
289
    3
340
standard
341

371
   -2
372
   -2
  0
ENDTAB
  0
TABLE
  2
BLOCK_RECORD
  5
1
330
0
100
AcDbSymbolTable
 70
    2
  0
BLOCK_RECORD
  5
1F
330
1
100
AcDbSymbolTableRecord
100
AcDbBlockTableRecord
  2
*Model_Space
 70
    0
280
    1
281
    0
  0
BLOCK_RECORD
  5
1E
330
1
100
AcDbSymbolTableRecord
100
AcDbBlockTableRecord
  2
*Paper_Space
 70
    0
280
    1
281
    0
  0
BLOCK_RECORD
  5
54
330
1
100
AcDbSymbolTableRecord
100
AcDbBlockTableRecord
  2
*D26
 70
    0
280
    1
281
    0
  0
BLOCK_RECORD
  5
57
330
1
100
AcDbSymbolTableRecord
100
AcDbBlockTableRecord
  2
*D5
 70
    0
280
    1
281
    0
  0
BLOCK_RECORD
  5
5A
330
1
100
AcDbSymbolTableRecord
100
AcDbBlockTableRecord
  2
*D18
 70
    0
280
    1
281
    0
  0
BLOCK_RECORD
  5
5D
330
1
100
AcDbSymbolTableRecord
100
AcDbBlockTableRecord
  2
*D8
 70
    0
280
    1
281
    0
  0
BLOCK_RECORD
  5
60
330
1
100
AcDbSymbolTableRecord
100
AcDbBlockTableRecord
  2
*D10
 70
    0
280
    1
281
    0
  0
BLOCK_RECORD
  5
63
330
1
100
AcDbSymbolTableRecord
100
AcDbBlockTableRecord
  2
*D20
 70
    0
280
    1
281
    0
  0
BLOCK_RECORD
  5
66
330
1
100
AcDbSymbolTableRecord
100
AcDbBlockTableRecord
  2
*D1
 70
    0
280
    1
281
    0
  0
BLOCK_RECORD
  5
69
330
1
100
AcDbSymbolTableRecord
100
AcDbBlockTableRecord
  2
*D12
 70
    0
280
    1
281
    0
  0
BLOCK_RECORD
  5
6C
330
1
100
AcDbSymbolTableRecord
100
AcDbBlockTableRecord
  2
*D14
 70
    0
280
    1
281
    0
  0
BLOCK_RECORD
  5
6F
330
1
100
AcDbSymbolTableRecord
100
AcDbBlockTableRecord
  2
*D9
 70
    0
280
    1
281
    0
  0
BLOCK_RECORD
  5
72
330
1
100
AcDbSymbolTableRecord
100
AcDbBlockTableRecord
  2
*D7
 70
    0
280
    1
281
    0
  0
BLOCK_RECORD
  5
75
330
1
100
AcDbSymbolTableRecord
100
AcDbBlockTableRecord
  2
*D29
 70
    0
280
    1
281
    0
  0
BLOCK_RECORD
  5
78
330
1
100
AcDbSymbolTableRecord
100
AcDbBlockTableRecord
  2
*D24
 70
    0
280
    1
281
    0
  0
BLOCK_RECORD
  5
7B
330
1
100
AcDbSymbolTableRecord
100
AcDbBlockTableRecord
  2
*D25
 70
    0
280
    1
281
    0
  0
BLOCK_RECORD
  5
7E
330
1
100
AcDbSymbolTableRecord
100
AcDbBlockTableRecord
  2
*D30
 70
    0
280
    1
281
    0
  0
BLOCK_RECORD
  5
81
330
1
100
AcDbSymbolTableRecord
100
AcDbBlockTableRecord
  2
*D15
 70
    0
280
    1
281
    0
  0
BLOCK_RECORD
  5
84
330
1
100
AcDbSymbolTableRecord
100
AcDbBlockTableRecord
  2
*D28
 70
    0
280
    1
281
    0
  0
BLOCK_RECORD
  5
87
330
1
100
AcDbSymbolTableRecord
100
AcDbBlockTableRecord
  2
*D16
 70
    0
280
    1
281
    0
  0
BLOCK_RECORD
  5
8A
330
1
100
AcDbSymbolTableRecord
100
AcDbBlockTableRecord
  2
*D11
 70
    0
280
    1
281
    0
  0
BLOCK_RECORD
  5
8D
330
1
100
AcDbSymbolTableRecord
100
AcDbBlockTableRecord
  2
*D6
 70
    0
280
    1
281
    0
  0
BLOCK_RECORD
  5
90
330
1
100
AcDbSymbolTableRecord
100
AcDbBlockTableRecord
  2
*D21
 70
    0
280
    1
281
    0
  0
BLOCK_RECORD
  5
93
330
1
100
AcDbSymbolTableRecord
100
AcDbBlockTableRecord
  2
*D3
 70
    0
280
    1
281
    0
  0
BLOCK_RECORD
  5
96
330
1
100
AcDbSymbolTableRecord
100
AcDbBlockTableRecord
  2
*D23
 70
    0
280
    1
281
    0
  0
BLOCK_RECORD
  5
99
330
1
100
AcDbSymbolTableRecord
100
AcDbBlockTableRecord
  2
*D27
 70
    0
280
    1
281
    0
  0
BLOCK_RECORD
  5
9C
330
1
100
AcDbSymbolTableRecord
100
AcDbBlockTableRecord
  2
*D4
 70
    0
280
    1
281
    0
  0
BLOCK_RECORD
  5
9F
330
1
100
AcDbSymbolTableRecord
100
AcDbBlockTableRecord
  2
*D19
 70
    0
280
    1
281
    0
  0
BLOCK_RECORD
  5
A2
330
1
100
AcDbSymbolTableRecord
100
AcDbBlockTableRecord
  2
*D22
 70
    0
280
    1
281
    0
  0
BLOCK_RECORD
  5
A5
330
1
100
AcDbSymbolTableRecord
100
AcDbBlockTableRecord
  2
*D13
 70
    0
280
    1
281
    0
  0
BLOCK_RECORD
  5
A8
330
1
100
AcDbSymbolTableRecord
100
AcDbBlockTableRecord
  2
*D2
 70
    0
280
    1
281
    0
  0
BLOCK_RECORD
  5
AB
330
1
100
AcDbSymbolTableRecord
100
AcDbBlockTableRecord
  2
*D17
 70
    0
280
    1
281
    0
  0
BLOCK_RECORD
  5
AE
330
1
100
AcDbSymbolTableRecord
100
AcDbBlockTableRecord
  2
gripper
 70
    0
280
    1
281
    0
  0
BLOCK_RECORD
  5
B1
330
1
100
AcDbSymbolTableRecord
100
AcDbBlockTableRecord
  2
grippera
 70
    0
280
    1
281
    0
  0
BLOCK_RECORD
  5
B4
330
1
100
AcDbSymbolTableRecord
100
AcDbBlockTableRecord
  2
gearbox
 70
    0
280
    1
281
    0
  0
BLOCK_RECORD
  5
B7
330
1
100
AcDbSymbolTableRecord
100
AcDbBlockTableRecord
  2
gearbox1
 70
    0
280
    1
281
    0
  0
BLOCK_RECORD
  5
BA
330
1
100
AcDbSymbolTableRecord
100
AcDbBlockTableRecord
  2
gripper-0
 70
    0
280
    1
281
    0
  0
BLOCK_RECORD
  5
BD
330
1
100
AcDbSymbolTableRecord
100
AcDbBlockTableRecord
  2
grippera-0
 70
    0
280
    1
281
    0
  0
BLOCK_RECORD
  5
C0
330
1
100
AcDbSymbolTableRecord
100
AcDbBlockTableRecord
  2
gearbox-0
 70
    0
280
    1
281
    0
  0
BLOCK_RECORD
  5
C3
330
1
100
AcDbSymbolTableRecord
100
AcDbBlockTableRecord
  2
gearbox1-0
 70
    0
280
    1
281
    0
  0
BLOCK_RECORD
  5
C6
330
1
100
AcDbSymbolTableRecord
100
AcDbBlockTableRecord
  2
stepper_side
 70
    0
280
    1
281
    0
  0
BLOCK_RECORD
  5
C9
330
1
100
AcDbSymbolTableRecord
100
AcDbBlockTableRecord
  2
stepper_front
 70
    0
280
    1
281
    0
  0
BLOCK_RECORD
  5
CC
330
1
100
AcDbSymbolTableRecord
100
AcDbBlockTableRecord
  2
stepper_side-0
 70
    0
280
    1
281
    0
  0
ENDTAB
  0
ENDSEC
  0
SECTION
  2
BLOCKS
  0
BLOCK
  5
20
330
1F
100
AcDbEntity
  8
0
100
AcDbBlockBegin
  2
*Model_Space
 70
    0
 10
0
 20
0
 30
0
  3
*Model_Space
  1

  0
ENDBLK
  5
21
330
1F
100
AcDbEntity
  8
0
100
AcDbBlockEnd
  0
BLOCK
  5
1C
330
1B
100
AcDbEntity
  8
0
100
AcDbBlockBegin
  2
*Paper_Space
 70
    0
 10
0
 20
0
 30
0
  3
*Paper_Space
  1

  0
ENDBLK
  5
1D
330
1F
100
AcDbEntity
  8
0
100
AcDbBlockEnd
  0
BLOCK
  5
55
330
54
100
AcDbEntity
  8
0
100
AcDbBlockBegin
  2
*D26
 70
    1
 10
0
 20
0
  3
*D26
  1

  0
LINE
  5
CF
100
AcDbEntity
  8
dimension
  6
ByBlock
 62
  256
370
   -2
100
AcDbLine
 10
-40
 20
102.4999999999996
 11
-40
 21
53.87499999999981
  0
SOLID
  5
D0
100
AcDbEntity
  8
dimension
  6
ByBlock
 62
  256
370
   -2
100
AcDbTrace
 10
-40
 20
102.4999999999996
 30
0
 11
-39.58371534222716
 21
99.9999999999996
 31
0
 12
-40.41628465777284
 22
99.9999999999996
 32
0
 13
-40.41628465777284
 23
99.9999999999996
 33
0
  0
SOLID
  5
D1
100
AcDbEntity
  8
dimension
  6
ByBlock
 62
  256
370
   -2
100
AcDbTrace
 10
-40.00000000000001
 20
2.842170943040401e-015
 30
0
 11
-40.41628465777285
 21
2.500000000000003
 31
0
 12
-39.58371534222717
 22
2.500000000000003
 32
0
 13
-39.58371534222717
 23
2.500000000000003
 33
0
  0
LINE
  5
D2
100
AcDbEntity
  8
dimension
  6
ByBlock
 62
  256
370
   -2
100
AcDbLine
 10
-40.00000000000001
 20
48.62499999999981
 11
-40.00000000000001
 21
2.842170943040401e-015
  0
MTEXT
  5
D3
100
AcDbEntity
  8
dimension
  6
CONTINUOUS
 62
    0
370
   -2
100
AcDbMText
 10
-40
 20
51.24999999999981
 30
0
 40
4
 41
11.5555555555558
 71
    5
 72
    1
  1
102.5
  7
standard
210
0
220
0
230
1
 50
0
 73
    2
 44
1
  0
LINE
  5
D4
100
AcDbEntity
  8
dimension
  6
ByBlock
 62
  256
370
   -2
100
AcDbLine
 10
-30.29999999999997
 20
102.4999999999996
 11
-40.05
 21
102.4999999999996
  0
LINE
  5
D5
100
AcDbEntity
  8
dimension
  6
ByBlock
 62
  256
370
   -2
100
AcDbLine
 10
-2
 20
2.449212707644755e-016
 11
-40.05
 21
2.848293974809513e-015
  0
ENDBLK
  5
56
330
54
100
AcDbEntity
  8
0
100
AcDbBlockEnd
  0
BLOCK
  5
58
330
57
100
AcDbEntity
  8
0
100
AcDbBlockBegin
  2
*D5
 70
    1
 10
0
 20
0
  3
*D5
  1

  0
LINE
  5
D6
100
AcDbEntity
  8
dimension
  6
ByBlock
 62
  256
370
   -2
100
AcDbLine
 10
-3.600000000000023
 20
-20
 11
71.6050432899445
 21
-20
  0
SOLID
  5
D7
100
AcDbEntity
  8
dimension
  6
ByBlock
 62
  256
370
   -2
100
AcDbTrace
 10
-3.600000000000023
 20
-20
 30
0
 11
-1.100000000000023
 21
-19.58371534222716
 31
0
 12
-1.100000000000023
 22
-20.41628465777284
 32
0
 13
-1.100000000000023
 23
-20.41628465777284
 33
0
  0
SOLID
  5
D8
100
AcDbEntity
  8
dimension
  6
ByBlock
 62
  256
370
   -2
100
AcDbTrace
 10
169.3934199132225
 20
-20
 30
0
 11
166.8934199132225
 21
-20.41628465777284
 31
0
 12
166.8934199132225
 22
-19.58371534222716
 32
0
 13
166.8934199132225
 23
-19.58371534222716
 33
0
  0
LINE
  5
D9
100
AcDbEntity
  8
dimension
  6
ByBlock
 62
  256
370
   -2
100
AcDbLine
 10
94.18837662327807
 20
-20
 11
169.3934199132225
 21
-20
  0
MTEXT
  5
DA
100
AcDbEntity
  8
dimension
  6
CONTINUOUS
 62
    0
370
   -2
100
AcDbMText
 10
82.89670995661129
 20
-20
 30
0
 40
4
 41
21.33333333333358
 71
    5
 72
    1
  1
172.9934
  7
standard
210
0
220
0
230
1
 50
0
 73
    2
 44
1
  0
LINE
  5
DB
100
AcDbEntity
  8
dimension
  6
ByBlock
 62
  256
370
   -2
100
AcDbLine
 10
-3.600000000000009
 20
30
 11
-3.600000000000023
 21
-20.05
  0
LINE
  5
DC
100
AcDbEntity
  8
dimension
  6
ByBlock
 62
  256
370
   -2
100
AcDbLine
 10
169.3934199132225
 20
30.5
 11
169.3934199132225
 21
-20.05
  0
ENDBLK
  5
59
330
57
100
AcDbEntity
  8
0
100
AcDbBlockEnd
  0
BLOCK
  5
5B
330
5A
100
AcDbEntity
  8
0
100
AcDbBlockBegin
  2
*D18
 70
    1
 10
0
 20
0
  3
*D18
  1

  0
LINE
  5
DD
100
AcDbEntity
  8
dimension
  6
ByBlock
 62
  256
370
   -2
100
AcDbLine
 10
338.0000000000001
 20
3.552713678800501e-015
 11
346.7083333333333
 21
3.552713678800501e-015
  0
SOLID
  5
DE
100
AcDbEntity
  8
dimension
  6
ByBlock
 62
  256
370
   -2
100
AcDbTrace
 10
338.0000000000001
 20
3.552713678800501e-015
 30
0
 11
340.5000000000001
 21
0.4162846577728438
 31
0
 12
340.5000000000001
 22
-0.4162846577728372
 32
0
 13
340.5000000000001
 23
-0.4162846577728372
 33
0
  0
SOLID
  5
DF
100
AcDbEntity
  8
dimension
  6
ByBlock
 62
  256
370
   -2
100
AcDbTrace
 10
361.9999999999999
 20
3.552713678800501e-015
 30
0
 11
359.4999999999999
 21
-0.4162846577728369
 31
0
 12
359.4999999999999
 22
0.416284657772844
 32
0
 13
359.4999999999999
 23
0.416284657772844
 33
0
  0
LINE
  5
E0
100
AcDbEntity
  8
dimension
  6
ByBlock
 62
  256
370
   -2
100
AcDbLine
 10
353.2916666666667
 20
3.552713678800501e-015
 11
361.9999999999999
 21
3.552713678800501e-015
  0
MTEXT
  5
E1
100
AcDbEntity
  8
dimension
  6
CONTINUOUS
 62
    0
370
   -2
100
AcDbMText
 10
350
 20
3.552713678800501e-015
 30
0
 40
4
 41
5.333333333333333
 71
    5
 72
    1
  1
24
  7
standard
210
0
220
0
230
1
 50
0
 73
    2
 44
1
  0
LINE
  5
E2
100
AcDbEntity
  8
dimension
  6
ByBlock
 62
  256
370
   -2
100
AcDbLine
 10
338.0000000000001
 20
28.00000000000173
 11
338.0000000000001
 21
-0.04999999999999645
  0
LINE
  5
E3
100
AcDbEntity
  8
dimension
  6
ByBlock
 62
  256
370
   -2
100
AcDbLine
 10
361.9999999999999
 20
28.00000000000097
 11
361.9999999999999
 21
-0.04999999999999645
  0
ENDBLK
  5
5C
330
5A
100
AcDbEntity
  8
0
100
AcDbBlockEnd
  0
BLOCK
  5
5E
330
5D
100
AcDbEntity
  8
0
100
AcDbBlockBegin
  2
*D8
 70
    1
 10
0
 20
0
  3
*D8
  1

  0
LINE
  5
E4
100
AcDbEntity
  8
dimension
  6
ByBlock
 62
  256
370
   -2
100
AcDbLine
 10
-30
 20
0
 11
-30
 21
14.375
  0
SOLID
  5
E5
100
AcDbEntity
  8
dimension
  6
ByBlock
 62
  256
370
   -2
100
AcDbTrace
 10
-30
 20
0
 30
0
 11
-30.41628465777285
 21
2.5
 31
0
 12
-29.58371534222716
 22
2.5
 32
0
 13
-29.58371534222716
 23
2.5
 33
0
  0
SOLID
  5
E6
100
AcDbEntity
  8
dimension
  6
ByBlock
 62
  256
370
   -2
100
AcDbTrace
 10
-30
 20
34
 30
0
 11
-29.58371534222716
 21
31.5
 31
0
 12
-30.41628465777284
 22
31.5
 32
0
 13
-30.41628465777284
 23
31.5
 33
0
  0
LINE
  5
E7
100
AcDbEntity
  8
dimension
  6
ByBlock
 62
  256
370
   -2
100
AcDbLine
 10
-30
 20
19.625
 11
-30
 21
34
  0
MTEXT
  5
E8
100
AcDbEntity
  8
dimension
  6
CONTINUOUS
 62
    0
370
   -2
100
AcDbMText
 10
-30
 20
17
 30
0
 40
4
 41
5.333333333333581
 71
    5
 72
    1
  1
34
  7
standard
210
0
220
0
230
1
 50
0
 73
    2
 44
1
  0
LINE
  5
E9
100
AcDbEntity
  8
dimension
  6
ByBlock
 62
  256
370
   -2
100
AcDbLine
 10
-2
 20
2.449212707644755e-016
 11
-30.05
 21
6.123031769111886e-018
  0
LINE
  5
EA
100
AcDbEntity
  8
dimension
  6
ByBlock
 62
  256
370
   -2
100
AcDbLine
 10
-9.000000000000016
 20
34
 11
-30.05
 21
34
  0
ENDBLK
  5
5F
330
5D
100
AcDbEntity
  8
0
100
AcDbBlockEnd
  0
BLOCK
  5
61
330
60
100
AcDbEntity
  8
0
100
AcDbBlockBegin
  2
*D10
 70
    1
 10
0
 20
0
  3
*D10
  1

  0
LINE
  5
EB
100
AcDbEntity
  8
dimension
  6
ByBlock
 62
  256
370
   -2
100
AcDbLine
 10
150
 20
132.5
 11
150
 21
142.5750020494833
  0
SOLID
  5
EC
100
AcDbEntity
  8
dimension
  6
ByBlock
 62
  256
370
   -2
100
AcDbTrace
 10
150
 20
132.5
 30
0
 11
149.5837153422272
 21
135
 31
0
 12
150.4162846577728
 22
135
 32
0
 13
150.4162846577728
 23
135
 33
0
  0
SOLID
  5
ED
100
AcDbEntity
  8
dimension
  6
ByBlock
 62
  256
370
   -2
100
AcDbTrace
 10
150
 20
157.9000040989665
 30
0
 11
150.4162846577728
 21
155.4000040989665
 31
0
 12
149.5837153422272
 22
155.4000040989665
 32
0
 13
149.5837153422272
 23
155.4000040989665
 33
0
  0
LINE
  5
EE
100
AcDbEntity
  8
dimension
  6
ByBlock
 62
  256
370
   -2
100
AcDbLine
 10
150
 20
147.8250020494833
 11
150
 21
157.9000040989665
  0
MTEXT
  5
EF
100
AcDbEntity
  8
dimension
  6
CONTINUOUS
 62
    0
370
   -2
100
AcDbMText
 10
150
 20
145.2000020494833
 30
0
 40
4
 41
9.777777777778027
 71
    5
 72
    1
  1
25.4
  7
standard
210
0
220
0
230
1
 50
0
 73
    2
 44
1
  0
LINE
  5
F0
100
AcDbEntity
  8
dimension
  6
ByBlock
 62
  256
370
   -2
100
AcDbLine
 10
97.40000000000001
 20
132.5
 11
150.05
 21
132.5
  0
LINE
  5
F1
100
AcDbEntity
  8
dimension
  6
ByBlock
 62
  256
370
   -2
100
AcDbLine
 10
132.2
 20
157.9000040989665
 11
150.05
 21
157.9000040989665
  0
ENDBLK
  5
62
330
60
100
AcDbEntity
  8
0
100
AcDbBlockEnd
  0
BLOCK
  5
64
330
63
100
AcDbEntity
  8
0
100
AcDbBlockBegin
  2
*D20
 70
    1
 10
0
 20
0
  3
*D20
  1

  0
LINE
  5
F2
100
AcDbEntity
  8
dimension
  6
ByBlock
 62
  256
370
   -2
100
AcDbLine
 10
250
 20
64.49999999999959
 11
250
 21
99.8749999999996
  0
SOLID
  5
F3
100
AcDbEntity
  8
dimension
  6
ByBlock
 62
  256
370
   -2
100
AcDbTrace
 10
250
 20
64.49999999999959
 30
0
 11
249.5837153422272
 21
66.99999999999959
 31
0
 12
250.4162846577728
 22
66.99999999999959
 32
0
 13
250.4162846577728
 23
66.99999999999959
 33
0
  0
SOLID
  5
F4
100
AcDbEntity
  8
dimension
  6
ByBlock
 62
  256
370
   -2
100
AcDbTrace
 10
250
 20
140.4999999999997
 30
0
 11
250.4162846577728
 21
137.9999999999997
 31
0
 12
249.5837153422272
 22
137.9999999999997
 32
0
 13
249.5837153422272
 23
137.9999999999997
 33
0
  0
LINE
  5
F5
100
AcDbEntity
  8
dimension
  6
ByBlock
 62
  256
370
   -2
100
AcDbLine
 10
250
 20
105.1249999999996
 11
250
 21
140.4999999999997
  0
MTEXT
  5
F6
100
AcDbEntity
  8
dimension
  6
CONTINUOUS
 62
    0
370
   -2
100
AcDbMText
 10
250
 20
102.4999999999996
 30
0
 40
4
 41
4.888888888889136
 71
    5
 72
    1
  1
76
  7
standard
210
0
220
0
230
1
 50
0
 73
    2
 44
1
  0
LINE
  5
F7
100
AcDbEntity
  8
dimension
  6
ByBlock
 62
  256
370
   -2
100
AcDbLine
 10
255.5
 20
64.49999999999957
 11
249.95
 21
64.49999999999959
  0
LINE
  5
F8
100
AcDbEntity
  8
dimension
  6
ByBlock
 62
  256
370
   -2
100
AcDbLine
 10
255.5
 20
140.4999999999997
 11
249.95
 21
140.4999999999997
  0
ENDBLK
  5
65
330
63
100
AcDbEntity
  8
0
100
AcDbBlockEnd
  0
BLOCK
  5
67
330
66
100
AcDbEntity
  8
0
100
AcDbBlockBegin
  2
*D1
 70
    1
 10
0
 20
0
  3
*D1
  1

  0
LINE
  5
F9
100
AcDbEntity
  8
dimension
  6
ByBlock
 62
  256
370
   -2
100
AcDbLine
 10
0
 20
-10
 11
75.81944444444431
 21
-10
  0
SOLID
  5
FA
100
AcDbEntity
  8
dimension
  6
ByBlock
 62
  256
370
   -2
100
AcDbTrace
 10
0
 20
-10
 30
0
 11
2.5
 21
-9.58371534222716
 31
0
 12
2.5
 22
-10.41628465777284
 32
0
 13
2.5
 23
-10.41628465777284
 33
0
  0
SOLID
  5
FB
100
AcDbEntity
  8
dimension
  6
ByBlock
 62
  256
370
   -2
100
AcDbTrace
 10
160
 20
-10
 30
0
 11
157.5
 21
-10.41628465777284
 31
0
 12
157.5
 22
-9.58371534222716
 32
0
 13
157.5
 23
-9.58371534222716
 33
0
  0
LINE
  5
FC
100
AcDbEntity
  8
dimension
  6
ByBlock
 62
  256
370
   -2
100
AcDbLine
 10
84.18055555555569
 20
-10
 11
160
 21
-10
  0
MTEXT
  5
FD
100
AcDbEntity
  8
dimension
  6
CONTINUOUS
 62
    0
370
   -2
100
AcDbMText
 10
80
 20
-10
 30
0
 40
4
 41
7.111111111111359
 71
    5
 72
    1
  1
160
  7
standard
210
0
220
0
230
1
 50
0
 73
    2
 44
1
  0
LINE
  5
FE
100
AcDbEntity
  8
dimension
  6
ByBlock
 62
  256
370
   -2
100
AcDbLine
 10
-3.308412326858842e-016
 20
16.5
 11
-9.18454765366783e-018
 21
-10.05
  0
LINE
  5
FF
100
AcDbEntity
  8
dimension
  6
ByBlock
 62
  256
370
   -2
100
AcDbLine
 10
160
 20
16.5
 11
160
 21
-10.05
  0
ENDBLK
  5
68
330
66
100
AcDbEntity
  8
0
100
AcDbBlockEnd
  0
BLOCK
  5
6A
330
69
100
AcDbEntity
  8
0
100
AcDbBlockBegin
  2
*D12
 70
    1
 10
0
 20
0
  3
*D12
  1

  0
LINE
  5
100
100
AcDbEntity
  8
dimension
  6
ByBlock
 62
  256
370
   -2
100
AcDbLine
 10
296
 20
-20.00000000000001
 11
345.8194444444445
 21
-20.00000000000001
  0
SOLID
  5
101
100
AcDbEntity
  8
dimension
  6
ByBlock
 62
  256
370
   -2
100
AcDbTrace
 10
296
 20
-20.00000000000001
 30
0
 11
298.5
 21
-19.58371534222717
 31
0
 12
298.5
 22
-20.41628465777285
 32
0
 13
298.5
 23
-20.41628465777285
 33
0
  0
SOLID
  5
102
100
AcDbEntity
  8
dimension
  6
ByBlock
 62
  256
370
   -2
100
AcDbTrace
 10
404
 20
-20.00000000000001
 30
0
 11
401.5
 21
-20.41628465777285
 31
0
 12
401.5
 22
-19.58371534222717
 32
0
 13
401.5
 23
-19.58371534222717
 33
0
  0
LINE
  5
103
100
AcDbEntity
  8
dimension
  6
ByBlock
 62
  256
370
   -2
100
AcDbLine
 10
354.1805555555555
 20
-20.00000000000001
 11
404
 21
-20.00000000000001
  0
MTEXT
  5
104
100
AcDbEntity
  8
dimension
  6
CONTINUOUS
 62
    0
370
   -2
100
AcDbMText
 10
350
 20
-20.00000000000001
 30
0
 40
4
 41
7.111111111111111
 71
    5
 72
    1
  1
108
  7
standard
210
0
220
0
230
1
 50
0
 73
    2
 44
1
  0
LINE
  5
105
100
AcDbEntity
  8
dimension
  6
ByBlock
 62
  256
370
   -2
100
AcDbLine
 10
296
 20
-2.000000000000014
 11
296
 21
-20.05000000000001
  0
LINE
  5
106
100
AcDbEntity
  8
dimension
  6
ByBlock
 62
  256
370
   -2
100
AcDbLine
 10
404
 20
-2.000000000000014
 11
404
 21
-20.05000000000001
  0
ENDBLK
  5
6B
330
69
100
AcDbEntity
  8
0
100
AcDbBlockEnd
  0
BLOCK
  5
6D
330
6C
100
AcDbEntity
  8
0
100
AcDbBlockBegin
  2
*D14
 70
    1
 10
0
 20
0
  3
*D14
  1

  0
LINE
  5
107
100
AcDbEntity
  8
dimension
  6
ByBlock
 62
  256
370
   -2
100
AcDbLine
 10
430
 20
34.00000000000001
 11
429.9999999999999
 21
30.875
  0
SOLID
  5
108
100
AcDbEntity
  8
dimension
  6
ByBlock
 62
  256
370
   -2
100
AcDbTrace
 10
430
 20
34.00000000000001
 30
0
 11
430.4162846577728
 21
31.50000000000001
 31
0
 12
429.5837153422272
 22
31.50000000000001
 32
0
 13
429.5837153422272
 23
31.50000000000001
 33
0
  0
SOLID
  5
109
100
AcDbEntity
  8
dimension
  6
ByBlock
 62
  256
370
   -2
100
AcDbTrace
 10
430
 20
22.49999999999999
 30
0
 11
429.5837153422272
 21
24.99999999999999
 31
0
 12
430.4162846577728
 22
24.99999999999999
 32
0
 13
430.4162846577728
 23
24.99999999999999
 33
0
  0
LINE
  5
10A
100
AcDbEntity
  8
dimension
  6
ByBlock
 62
  256
370
   -2
100
AcDbLine
 10
429.9999999999999
 20
25.625
 11
430
 21
22.49999999999999
  0
MTEXT
  5
10B
100
AcDbEntity
  8
dimension
  6
CONTINUOUS
 62
    0
370
   -2
100
AcDbMText
 10
430
 20
28.25
 30
0
 40
4
 41
7.555555555555803
 71
    5
 72
    1
  1
11.5
  7
standard
210
0
220
0
230
1
 50
0
 73
    2
 44
1
  0
LINE
  5
10C
100
AcDbEntity
  8
dimension
  6
ByBlock
 62
  256
370
   -2
100
AcDbLine
 10
368.0000000000016
 20
34.00000000000001
 11
430.05
 21
34.00000000000001
  0
LINE
  5
10D
100
AcDbEntity
  8
dimension
  6
ByBlock
 62
  256
370
   -2
100
AcDbLine
 10
382
 20
22.49999999999999
 11
430.05
 21
22.49999999999999
  0
ENDBLK
  5
6E
330
6C
100
AcDbEntity
  8
0
100
AcDbBlockEnd
  0
BLOCK
  5
70
330
6F
100
AcDbEntity
  8
0
100
AcDbBlockBegin
  2
*D9
 70
    1
 10
0
 20
0
  3
*D9
  1

  0
LINE
  5
10E
100
AcDbEntity
  8
dimension
  6
ByBlock
 62
  256
370
   -2
100
AcDbLine
 10
34
 20
220
 11
40.48611111111099
 21
220
  0
SOLID
  5
10F
100
AcDbEntity
  8
dimension
  6
ByBlock
 62
  256
370
   -2
100
AcDbTrace
 10
39
 20
220
 30
0
 11
36.5
 21
219.5837153422272
 31
0
 12
36.5
 22
220.4162846577728
 32
0
 13
36.5
 23
220.4162846577728
 33
0
  0
SOLID
  5
110
100
AcDbEntity
  8
dimension
  6
ByBlock
 62
  256
370
   -2
100
AcDbTrace
 10
45
 20
220
 30
0
 11
47.5
 21
220.4162846577728
 31
0
 12
47.5
 22
219.5837153422272
 32
0
 13
47.5
 23
219.5837153422272
 33
0
  0
LINE
  5
111
100
AcDbEntity
  8
dimension
  6
ByBlock
 62
  256
370
   -2
100
AcDbLine
 10
43.51388888888901
 20
220
 11
50
 21
220
  0
MTEXT
  5
112
100
AcDbEntity
  8
dimension
  6
CONTINUOUS
 62
    0
370
   -2
100
AcDbMText
 10
42
 20
220
 30
0
 40
4
 41
1.777777777778026
 71
    5
 72
    1
  1
6
  7
standard
210
0
220
0
230
1
 50
0
 73
    2
 44
1
  0
LINE
  5
113
100
AcDbEntity
  8
dimension
  6
ByBlock
 62
  256
370
   -2
100
AcDbLine
 10
39
 20
186.5
 11
39
 21
220.05
  0
LINE
  5
114
100
AcDbEntity
  8
dimension
  6
ByBlock
 62
  256
370
   -2
100
AcDbLine
 10
45
 20
186.5
 11
45
 21
220.05
  0
ENDBLK
  5
71
330
6F
100
AcDbEntity
  8
0
100
AcDbBlockEnd
  0
BLOCK
  5
73
330
72
100
AcDbEntity
  8
0
100
AcDbBlockBegin
  2
*D7
 70
    1
 10
0
 20
0
  3
*D7
  1

  0
LINE
  5
115
100
AcDbEntity
  8
dimension
  6
ByBlock
 62
  256
370
   -2
100
AcDbLine
 10
-20
 20
0
 11
-20
 21
13.375
  0
SOLID
  5
116
100
AcDbEntity
  8
dimension
  6
ByBlock
 62
  256
370
   -2
100
AcDbTrace
 10
-20
 20
0
 30
0
 11
-20.41628465777285
 21
2.5
 31
0
 12
-19.58371534222716
 22
2.5
 32
0
 13
-19.58371534222716
 23
2.5
 33
0
  0
SOLID
  5
117
100
AcDbEntity
  8
dimension
  6
ByBlock
 62
  256
370
   -2
100
AcDbTrace
 10
-20
 20
32
 30
0
 11
-19.58371534222716
 21
29.5
 31
0
 12
-20.41628465777284
 22
29.5
 32
0
 13
-20.41628465777284
 23
29.5
 33
0
  0
LINE
  5
118
100
AcDbEntity
  8
dimension
  6
ByBlock
 62
  256
370
   -2
100
AcDbLine
 10
-20
 20
18.625
 11
-20
 21
32
  0
MTEXT
  5
119
100
AcDbEntity
  8
dimension
  6
CONTINUOUS
 62
    0
370
   -2
100
AcDbMText
 10
-20
 20
16
 30
0
 40
4
 41
4.888888888889136
 71
    5
 72
    1
  1
32
  7
standard
210
0
220
0
230
1
 50
0
 73
    2
 44
1
  0
LINE
  5
11A
100
AcDbEntity
  8
dimension
  6
ByBlock
 62
  256
370
   -2
100
AcDbLine
 10
-2
 20
2.449212707644755e-016
 11
-20.05
 21
6.123031769111886e-018
  0
LINE
  5
11B
100
AcDbEntity
  8
dimension
  6
ByBlock
 62
  256
370
   -2
100
AcDbLine
 10
13.4
 20
32
 11
-20.05
 21
32
  0
ENDBLK
  5
74
330
72
100
AcDbEntity
  8
0
100
AcDbBlockEnd
  0
BLOCK
  5
76
330
75
100
AcDbEntity
  8
0
100
AcDbBlockBegin
  2
*D29
 70
    1
 10
0
 20
0
  3
*D29
  1

  0
LINE
  5
11C
100
AcDbEntity
  8
dimension
  6
ByBlock
 62
  256
370
   -2
100
AcDbLine
 10
150
 20
207.9
 11
150
 21
185.525
  0
SOLID
  5
11D
100
AcDbEntity
  8
dimension
  6
ByBlock
 62
  256
370
   -2
100
AcDbTrace
 10
150
 20
207.9
 30
0
 11
150.4162846577728
 21
205.4
 31
0
 12
149.5837153422272
 22
205.4
 32
0
 13
149.5837153422272
 23
205.4
 33
0
  0
SOLID
  5
11E
100
AcDbEntity
  8
dimension
  6
ByBlock
 62
  256
370
   -2
100
AcDbTrace
 10
150
 20
157.9
 30
0
 11
149.5837153422272
 21
160.4
 31
0
 12
150.4162846577728
 22
160.4
 32
0
 13
150.4162846577728
 23
160.4
 33
0
  0
LINE
  5
11F
100
AcDbEntity
  8
dimension
  6
ByBlock
 62
  256
370
   -2
100
AcDbLine
 10
150
 20
180.275
 11
150
 21
157.9
  0
MTEXT
  5
120
100
AcDbEntity
  8
dimension
  6
CONTINUOUS
 62
    0
370
   -2
100
AcDbMText
 10
150
 20
182.9
 30
0
 40
4
 41
4.888888888889136
 71
    5
 72
    1
  1
50
  7
standard
210
0
220
0
230
1
 50
0
 73
    2
 44
1
  0
LINE
  5
121
100
AcDbEntity
  8
dimension
  6
ByBlock
 62
  256
370
   -2
100
AcDbLine
 10
114.7
 20
207.9
 11
150.05
 21
207.9
  0
LINE
  5
122
100
AcDbEntity
  8
dimension
  6
ByBlock
 62
  256
370
   -2
100
AcDbLine
 10
114.7
 20
157.9
 11
150.05
 21
157.9
  0
ENDBLK
  5
77
330
75
100
AcDbEntity
  8
0
100
AcDbBlockEnd
  0
BLOCK
  5
79
330
78
100
AcDbEntity
  8
0
100
AcDbBlockBegin
  2
*D24
 70
    1
 10
0
 20
0
  3
*D24
  1

  0
LINE
  5
123
100
AcDbEntity
  8
dimension
  6
ByBlock
 62
  256
370
   -2
100
AcDbLine
 10
200
 20
207.9
 11
200
 21
106.575
  0
SOLID
  5
124
100
AcDbEntity
  8
dimension
  6
ByBlock
 62
  256
370
   -2
100
AcDbTrace
 10
200
 20
207.9
 30
0
 11
200.4162846577728
 21
205.4
 31
0
 12
199.5837153422272
 22
205.4
 32
0
 13
199.5837153422272
 23
205.4
 33
0
  0
SOLID
  5
125
100
AcDbEntity
  8
dimension
  6
ByBlock
 62
  256
370
   -2
100
AcDbTrace
 10
200
 20
0
 30
0
 11
199.5837153422272
 21
2.5
 31
0
 12
200.4162846577728
 22
2.5
 32
0
 13
200.4162846577728
 23
2.5
 33
0
  0
LINE
  5
126
100
AcDbEntity
  8
dimension
  6
ByBlock
 62
  256
370
   -2
100
AcDbLine
 10
200
 20
101.325
 11
200
 21
0
  0
MTEXT
  5
127
100
AcDbEntity
  8
dimension
  6
CONTINUOUS
 62
    0
370
   -2
100
AcDbMText
 10
200
 20
103.95
 30
0
 40
4
 41
12.44444444444444
 71
    5
 72
    1
  1
207.9
  7
standard
210
0
220
0
230
1
 50
0
 73
    2
 44
1
  0
LINE
  5
128
100
AcDbEntity
  8
dimension
  6
ByBlock
 62
  256
370
   -2
100
AcDbLine
 10
114.7
 20
207.9
 11
200.05
 21
207.9
  0
LINE
  5
129
100
AcDbEntity
  8
dimension
  6
ByBlock
 62
  256
370
   -2
100
AcDbLine
 10
114.1578051368476
 20
0
 11
200.05
 21
0
  0
ENDBLK
  5
7A
330
78
100
AcDbEntity
  8
0
100
AcDbBlockEnd
  0
BLOCK
  5
7C
330
7B
100
AcDbEntity
  8
0
100
AcDbBlockBegin
  2
*D25
 70
    1
 10
0
 20
0
  3
*D25
  1

  0
LINE
  5
12A
100
AcDbEntity
  8
dimension
  6
ByBlock
 62
  256
370
   -2
100
AcDbLine
 10
269.5
 20
240
 11
271.875
 21
240
  0
SOLID
  5
12B
100
AcDbEntity
  8
dimension
  6
ByBlock
 62
  256
370
   -2
100
AcDbTrace
 10
269.5
 20
240
 30
0
 11
272
 21
240.4162846577728
 31
0
 12
272
 22
239.5837153422272
 32
0
 13
272
 23
239.5837153422272
 33
0
  0
SOLID
  5
12C
100
AcDbEntity
  8
dimension
  6
ByBlock
 62
  256
370
   -2
100
AcDbTrace
 10
279.5
 20
240
 30
0
 11
277
 21
239.5837153422272
 31
0
 12
277
 22
240.4162846577728
 32
0
 13
277
 23
240.4162846577728
 33
0
  0
LINE
  5
12D
100
AcDbEntity
  8
dimension
  6
ByBlock
 62
  256
370
   -2
100
AcDbLine
 10
277.125
 20
240
 11
279.5
 21
240
  0
MTEXT
  5
12E
100
AcDbEntity
  8
dimension
  6
CONTINUOUS
 62
    0
370
   -2
100
AcDbMText
 10
274.5
 20
240
 30
0
 40
4
 41
4
 71
    5
 72
    1
  1
10
  7
standard
210
0
220
0
230
1
 50
0
 73
    2
 44
1
  0
LINE
  5
12F
100
AcDbEntity
  8
dimension
  6
ByBlock
 62
  256
370
   -2
100
AcDbLine
 10
269.5
 20
167.9
 11
269.5
 21
240.05
  0
LINE
  5
130
100
AcDbEntity
  8
dimension
  6
ByBlock
 62
  256
370
   -2
100
AcDbLine
 10
279.5
 20
167.9
 11
279.5
 21
240.05
  0
ENDBLK
  5
7D
330
7B
100
AcDbEntity
  8
0
100
AcDbBlockEnd
  0
BLOCK
  5
7F
330
7E
100
AcDbEntity
  8
0
100
AcDbBlockBegin
  2
*D30
 70
    1
 10
0
 20
0
  3
*D30
  1

  0
LINE
  5
131
100
AcDbEntity
  8
dimension
  6
ByBlock
 62
  256
370
   -2
100
AcDbLine
 10
240
 20
165.9
 11
240
 21
127.5749999999998
  0
SOLID
  5
132
100
AcDbEntity
  8
dimension
  6
ByBlock
 62
  256
370
   -2
100
AcDbTrace
 10
240
 20
165.9
 30
0
 11
240.4162846577728
 21
163.4
 31
0
 12
239.5837153422272
 22
163.4
 32
0
 13
239.5837153422272
 23
163.4
 33
0
  0
SOLID
  5
133
100
AcDbEntity
  8
dimension
  6
ByBlock
 62
  256
370
   -2
100
AcDbTrace
 10
240
 20
83.99999999999962
 30
0
 11
239.5837153422272
 21
86.49999999999962
 31
0
 12
240.4162846577728
 22
86.49999999999962
 32
0
 13
240.4162846577728
 23
86.49999999999962
 33
0
  0
LINE
  5
134
100
AcDbEntity
  8
dimension
  6
ByBlock
 62
  256
370
   -2
100
AcDbLine
 10
240
 20
122.3249999999998
 11
240
 21
83.99999999999962
  0
MTEXT
  5
135
100
AcDbEntity
  8
dimension
  6
CONTINUOUS
 62
    0
370
   -2
100
AcDbMText
 10
240
 20
124.9499999999998
 30
0
 40
4
 41
8.444444444444445
 71
    5
 72
    1
  1
81.9
  7
standard
210
0
220
0
230
1
 50
0
 73
    2
 44
1
  0
LINE
  5
136
100
AcDbEntity
  8
dimension
  6
ByBlock
 62
  256
370
   -2
100
AcDbLine
 10
267.5
 20
165.9
 11
239.95
 21
165.9
  0
LINE
  5
137
100
AcDbEntity
  8
dimension
  6
ByBlock
 62
  256
370
   -2
100
AcDbLine
 10
267.5
 20
83.99999999999962
 11
239.95
 21
83.99999999999962
  0
ENDBLK
  5
80
330
7E
100
AcDbEntity
  8
0
100
AcDbBlockEnd
  0
BLOCK
  5
82
330
81
100
AcDbEntity
  8
0
100
AcDbBlockBegin
  2
*D15
 70
    1
 10
0
 20
0
  3
*D15
  1

  0
LINE
  5
138
100
AcDbEntity
  8
dimension
  6
ByBlock
 62
  256
370
   -2
100
AcDbLine
 10
430
 20
27.49999999999999
 11
430
 21
23.12499999999999
  0
SOLID
  5
139
100
AcDbEntity
  8
dimension
  6
ByBlock
 62
  256
370
   -2
100
AcDbTrace
 10
430
 20
22.49999999999999
 30
0
 11
429.5837153422272
 21
24.99999999999999
 31
0
 12
430.4162846577728
 22
24.99999999999999
 32
0
 13
430.4162846577728
 23
24.99999999999999
 33
0
  0
SOLID
  5
13A
100
AcDbEntity
  8
dimension
  6
ByBlock
 62
  256
370
   -2
100
AcDbTrace
 10
430
 20
18.49999999999999
 30
0
 11
430.4162846577728
 21
15.99999999999999
 31
0
 12
429.5837153422272
 22
15.99999999999999
 32
0
 13
429.5837153422272
 23
15.99999999999999
 33
0
  0
LINE
  5
13B
100
AcDbEntity
  8
dimension
  6
ByBlock
 62
  256
370
   -2
100
AcDbLine
 10
430
 20
17.87499999999999
 11
430
 21
13.49999999999999
  0
MTEXT
  5
13C
100
AcDbEntity
  8
dimension
  6
CONTINUOUS
 62
    0
370
   -2
100
AcDbMText
 10
430
 20
20.49999999999999
 30
0
 40
4
 41
2.222222222222222
 71
    5
 72
    1
  1
4
  7
standard
210
0
220
0
230
1
 50
0
 73
    2
 44
1
  0
LINE
  5
13D
100
AcDbEntity
  8
dimension
  6
ByBlock
 62
  256
370
   -2
100
AcDbLine
 10
382
 20
22.49999999999999
 11
430.05
 21
22.49999999999999
  0
LINE
  5
13E
100
AcDbEntity
  8
dimension
  6
ByBlock
 62
  256
370
   -2
100
AcDbLine
 10
382
 20
18.49999999999999
 11
430.05
 21
18.49999999999999
  0
ENDBLK
  5
83
330
81
100
AcDbEntity
  8
0
100
AcDbBlockEnd
  0
BLOCK
  5
85
330
84
100
AcDbEntity
  8
0
100
AcDbBlockBegin
  2
*D28
 70
    1
 10
0
 20
0
  3
*D28
  1

  0
LINE
  5
13F
100
AcDbEntity
  8
dimension
  6
ByBlock
 62
  256
370
   -2
100
AcDbLine
 10
170
 20
32.5
 11
170
 21
79.875
  0
SOLID
  5
140
100
AcDbEntity
  8
dimension
  6
ByBlock
 62
  256
370
   -2
100
AcDbTrace
 10
170
 20
32.5
 30
0
 11
169.5837153422272
 21
35
 31
0
 12
170.4162846577728
 22
35
 32
0
 13
170.4162846577728
 23
35
 33
0
  0
SOLID
  5
141
100
AcDbEntity
  8
dimension
  6
ByBlock
 62
  256
370
   -2
100
AcDbTrace
 10
170
 20
132.5
 30
0
 11
170.4162846577728
 21
130
 31
0
 12
169.5837153422272
 22
130
 32
0
 13
169.5837153422272
 23
130
 33
0
  0
LINE
  5
142
100
AcDbEntity
  8
dimension
  6
ByBlock
 62
  256
370
   -2
100
AcDbLine
 10
170
 20
85.125
 11
170
 21
132.5
  0
MTEXT
  5
143
100
AcDbEntity
  8
dimension
  6
CONTINUOUS
 62
    0
370
   -2
100
AcDbMText
 10
170
 20
82.5
 30
0
 40
4
 41
7.111111111111111
 71
    5
 72
    1
  1
100
  7
standard
210
0
220
0
230
1
 50
0
 73
    2
 44
1
  0
LINE
  5
144
100
AcDbEntity
  8
dimension
  6
ByBlock
 62
  256
370
   -2
100
AcDbLine
 10
162
 20
32.5
 11
170.05
 21
32.5
  0
LINE
  5
145
100
AcDbEntity
  8
dimension
  6
ByBlock
 62
  256
370
   -2
100
AcDbLine
 10
97.40000000000001
 20
132.5
 11
170.05
 21
132.5
  0
ENDBLK
  5
86
330
84
100
AcDbEntity
  8
0
100
AcDbBlockEnd
  0
BLOCK
  5
88
330
87
100
AcDbEntity
  8
0
100
AcDbBlockBegin
  2
*D16
 70
    1
 10
0
 20
0
  3
*D16
  1

  0
LINE
  5
146
100
AcDbEntity
  8
dimension
  6
ByBlock
 62
  256
370
   -2
100
AcDbLine
 10
400
 20
220
 11
378.0694444444446
 21
220
  0
SOLID
  5
147
100
AcDbEntity
  8
dimension
  6
ByBlock
 62
  256
370
   -2
100
AcDbTrace
 10
400
 20
220
 30
0
 11
397.5
 21
219.5837153422272
 31
0
 12
397.5
 22
220.4162846577728
 32
0
 13
397.5
 23
220.4162846577728
 33
0
  0
SOLID
  5
148
100
AcDbEntity
  8
dimension
  6
ByBlock
 62
  256
370
   -2
100
AcDbTrace
 10
350
 20
220
 30
0
 11
352.5
 21
220.4162846577728
 31
0
 12
352.5
 22
219.5837153422272
 32
0
 13
352.5
 23
219.5837153422272
 33
0
  0
LINE
  5
149
100
AcDbEntity
  8
dimension
  6
ByBlock
 62
  256
370
   -2
100
AcDbLine
 10
371.9305555555554
 20
220
 11
350
 21
220
  0
MTEXT
  5
14A
100
AcDbEntity
  8
dimension
  6
CONTINUOUS
 62
    0
370
   -2
100
AcDbMText
 10
375
 20
220
 30
0
 40
4
 41
4.888888888889136
 71
    5
 72
    1
  1
50
  7
standard
210
0
220
0
230
1
 50
0
 73
    2
 44
1
  0
LINE
  5
14B
100
AcDbEntity
  8
dimension
  6
ByBlock
 62
  256
370
   -2
100
AcDbLine
 10
400
 20
159.9
 11
400
 21
220.05
  0
LINE
  5
14C
100
AcDbEntity
  8
dimension
  6
ByBlock
 62
  256
370
   -2
100
AcDbLine
 10
350
 20
186.5
 11
350
 21
220.05
  0
ENDBLK
  5
89
330
87
100
AcDbEntity
  8
0
100
AcDbBlockEnd
  0
BLOCK
  5
8B
330
8A
100
AcDbEntity
  8
0
100
AcDbBlockBegin
  2
*D11
 70
    1
 10
0
 20
0
  3
*D11
  1

  0
LINE
  5
14D
100
AcDbEntity
  8
dimension
  6
ByBlock
 62
  256
370
   -2
100
AcDbLine
 10
320
 20
-10.00000000000001
 11
346.9305555555554
 21
-10.00000000000001
  0
SOLID
  5
14E
100
AcDbEntity
  8
dimension
  6
ByBlock
 62
  256
370
   -2
100
AcDbTrace
 10
320
 20
-10.00000000000001
 30
0
 11
322.5
 21
-9.583715342227171
 31
0
 12
322.5
 22
-10.41628465777285
 32
0
 13
322.5
 23
-10.41628465777285
 33
0
  0
SOLID
  5
14F
100
AcDbEntity
  8
dimension
  6
ByBlock
 62
  256
370
   -2
100
AcDbTrace
 10
380
 20
-10.00000000000001
 30
0
 11
377.5
 21
-10.41628465777285
 31
0
 12
377.5
 22
-9.583715342227171
 32
0
 13
377.5
 23
-9.583715342227171
 33
0
  0
LINE
  5
150
100
AcDbEntity
  8
dimension
  6
ByBlock
 62
  256
370
   -2
100
AcDbLine
 10
353.0694444444446
 20
-10.00000000000001
 11
380
 21
-10.00000000000001
  0
MTEXT
  5
151
100
AcDbEntity
  8
dimension
  6
CONTINUOUS
 62
    0
370
   -2
100
AcDbMText
 10
350
 20
-10.00000000000001
 30
0
 40
4
 41
4.888888888889136
 71
    5
 72
    1
  1
60
  7
standard
210
0
220
0
230
1
 50
0
 73
    2
 44
1
  0
LINE
  5
152
100
AcDbEntity
  8
dimension
  6
ByBlock
 62
  256
370
   -2
100
AcDbLine
 10
320
 20
16.49999999999999
 11
320
 21
-10.05000000000001
  0
LINE
  5
153
100
AcDbEntity
  8
dimension
  6
ByBlock
 62
  256
370
   -2
100
AcDbLine
 10
380
 20
16.49999999999999
 11
380
 21
-10.05000000000001
  0
ENDBLK
  5
8C
330
8A
100
AcDbEntity
  8
0
100
AcDbBlockEnd
  0
BLOCK
  5
8E
330
8D
100
AcDbEntity
  8
0
100
AcDbBlockBegin
  2
*D6
 70
    1
 10
0
 20
0
  3
*D6
  1

  0
LINE
  5
154
100
AcDbEntity
  8
dimension
  6
ByBlock
 62
  256
370
   -2
100
AcDbLine
 10
-10
 20
0
 11
-10
 21
6.624999999999999
  0
SOLID
  5
155
100
AcDbEntity
  8
dimension
  6
ByBlock
 62
  256
370
   -2
100
AcDbTrace
 10
-10
 20
0
 30
0
 11
-10.41628465777284
 21
2.5
 31
0
 12
-9.583715342227158
 22
2.5
 32
0
 13
-9.583715342227158
 23
2.5
 33
0
  0
SOLID
  5
156
100
AcDbEntity
  8
dimension
  6
ByBlock
 62
  256
370
   -2
100
AcDbTrace
 10
-9.999999999999998
 20
18.5
 30
0
 11
-9.583715342227158
 21
16
 31
0
 12
-10.41628465777284
 22
16
 32
0
 13
-10.41628465777284
 23
16
 33
0
  0
LINE
  5
157
100
AcDbEntity
  8
dimension
  6
ByBlock
 62
  256
370
   -2
100
AcDbLine
 10
-9.999999999999998
 20
11.875
 11
-9.999999999999998
 21
18.5
  0
MTEXT
  5
158
100
AcDbEntity
  8
dimension
  6
CONTINUOUS
 62
    0
370
   -2
100
AcDbMText
 10
-10
 20
9.25
 30
0
 40
4
 41
8.444444444444692
 71
    5
 72
    1
  1
18.5
  7
standard
210
0
220
0
230
1
 50
0
 73
    2
 44
1
  0
LINE
  5
159
100
AcDbEntity
  8
dimension
  6
ByBlock
 62
  256
370
   -2
100
AcDbLine
 10
-2
 20
2.449212707644755e-016
 11
-10.05
 21
6.123031769111886e-018
  0
LINE
  5
15A
100
AcDbEntity
  8
dimension
  6
ByBlock
 62
  256
370
   -2
100
AcDbLine
 10
-2
 20
18.5
 11
-10.05
 21
18.5
  0
ENDBLK
  5
8F
330
8D
100
AcDbEntity
  8
0
100
AcDbBlockEnd
  0
BLOCK
  5
91
330
90
100
AcDbEntity
  8
0
100
AcDbBlockBegin
  2
*D21
 70
    1
 10
0
 20
0
  3
*D21
  1

  0
LINE
  5
15B
100
AcDbEntity
  8
dimension
  6
ByBlock
 62
  256
370
   -2
100
AcDbLine
 10
279.5
 20
240
 11
346.0416666666667
 21
240
  0
SOLID
  5
15C
100
AcDbEntity
  8
dimension
  6
ByBlock
 62
  256
370
   -2
100
AcDbTrace
 10
279.5
 20
240
 30
0
 11
282
 21
240.4162846577728
 31
0
 12
282
 22
239.5837153422272
 32
0
 13
282
 23
239.5837153422272
 33
0
  0
SOLID
  5
15D
100
AcDbEntity
  8
dimension
  6
ByBlock
 62
  256
370
   -2
100
AcDbTrace
 10
420.5000000000001
 20
240
 30
0
 11
418.0000000000001
 21
239.5837153422272
 31
0
 12
418.0000000000001
 22
240.4162846577728
 32
0
 13
418.0000000000001
 23
240.4162846577728
 33
0
  0
LINE
  5
15E
100
AcDbEntity
  8
dimension
  6
ByBlock
 62
  256
370
   -2
100
AcDbLine
 10
353.9583333333333
 20
240
 11
420.5000000000001
 21
240
  0
MTEXT
  5
15F
100
AcDbEntity
  8
dimension
  6
CONTINUOUS
 62
    0
370
   -2
100
AcDbMText
 10
350
 20
240
 30
0
 40
4
 41
6.666666666666666
 71
    5
 72
    1
  1
141
  7
standard
210
0
220
0
230
1
 50
0
 73
    2
 44
1
  0
LINE
  5
160
100
AcDbEntity
  8
dimension
  6
ByBlock
 62
  256
370
   -2
100
AcDbLine
 10
279.5
 20
167.9
 11
279.5
 21
240.05
  0
LINE
  5
161
100
AcDbEntity
  8
dimension
  6
ByBlock
 62
  256
370
   -2
100
AcDbLine
 10
420.5000000000001
 20
167.9
 11
420.5000000000001
 21
240.05
  0
ENDBLK
  5
92
330
90
100
AcDbEntity
  8
0
100
AcDbBlockEnd
  0
BLOCK
  5
94
330
93
100
AcDbEntity
  8
0
100
AcDbBlockBegin
  2
*D3
 70
    1
 10
0
 20
0
  3
*D3
  1

  0
LINE
  5
162
100
AcDbEntity
  8
dimension
  6
ByBlock
 62
  256
370
   -2
100
AcDbLine
 10
-50.00000000000001
 20
0
 11
-50
 21
84.125
  0
SOLID
  5
163
100
AcDbEntity
  8
dimension
  6
ByBlock
 62
  256
370
   -2
100
AcDbTrace
 10
-50.00000000000001
 20
0
 30
0
 11
-50.41628465777286
 21
2.5
 31
0
 12
-49.58371534222717
 22
2.5
 32
0
 13
-49.58371534222717
 23
2.5
 33
0
  0
SOLID
  5
164
100
AcDbEntity
  8
dimension
  6
ByBlock
 62
  256
370
   -2
100
AcDbTrace
 10
-50
 20
173.5
 30
0
 11
-49.58371534222716
 21
171
 31
0
 12
-50.41628465777284
 22
171
 32
0
 13
-50.41628465777284
 23
171
 33
0
  0
LINE
  5
165
100
AcDbEntity
  8
dimension
  6
ByBlock
 62
  256
370
   -2
100
AcDbLine
 10
-50
 20
89.375
 11
-50
 21
173.5
  0
MTEXT
  5
166
100
AcDbEntity
  8
dimension
  6
CONTINUOUS
 62
    0
370
   -2
100
AcDbMText
 10
-50.00000000000001
 20
86.75
 30
0
 40
4
 41
11.55555555555605
 71
    5
 72
    1
  1
173.5
  7
standard
210
0
220
0
230
1
 50
0
 73
    2
 44
1
  0
LINE
  5
167
100
AcDbEntity
  8
dimension
  6
ByBlock
 62
  256
370
   -2
100
AcDbLine
 10
-2
 20
2.449212707644755e-016
 11
-50.05000000000001
 21
6.123031769111886e-018
  0
LINE
  5
168
100
AcDbEntity
  8
dimension
  6
ByBlock
 62
  256
370
   -2
100
AcDbLine
 10
28
 20
173.5
 11
-50.05
 21
173.5
  0
ENDBLK
  5
95
330
93
100
AcDbEntity
  8
0
100
AcDbBlockEnd
  0
BLOCK
  5
97
330
96
100
AcDbEntity
  8
0
100
AcDbBlockBegin
  2
*D23
 70
    1
 10
0
 20
0
  3
*D23
  1

  0
LINE
  5
169
100
AcDbEntity
  8
dimension
  6
ByBlock
 62
  256
370
   -2
100
AcDbLine
 10
400
 20
220
 11
404.9583333333331
 21
220
  0
SOLID
  5
16A
100
AcDbEntity
  8
dimension
  6
ByBlock
 62
  256
370
   -2
100
AcDbTrace
 10
400
 20
220
 30
0
 11
402.5
 21
220.4162846577728
 31
0
 12
402.5
 22
219.5837153422272
 32
0
 13
402.5
 23
219.5837153422272
 33
0
  0
SOLID
  5
16B
100
AcDbEntity
  8
dimension
  6
ByBlock
 62
  256
370
   -2
100
AcDbTrace
 10
420.5000000000001
 20
220
 30
0
 11
418.0000000000001
 21
219.5837153422272
 31
0
 12
418.0000000000001
 22
220.4162846577728
 32
0
 13
418.0000000000001
 23
220.4162846577728
 33
0
  0
LINE
  5
16C
100
AcDbEntity
  8
dimension
  6
ByBlock
 62
  256
370
   -2
100
AcDbLine
 10
415.5416666666669
 20
220
 11
420.5000000000001
 21
220
  0
MTEXT
  5
16D
100
AcDbEntity
  8
dimension
  6
CONTINUOUS
 62
    0
370
   -2
100
AcDbMText
 10
410.25
 20
220
 30
0
 40
4
 41
9.333333333333581
 71
    5
 72
    1
  1
20.5
  7
standard
210
0
220
0
230
1
 50
0
 73
    2
 44
1
  0
LINE
  5
16E
100
AcDbEntity
  8
dimension
  6
ByBlock
 62
  256
370
   -2
100
AcDbLine
 10
400
 20
161.2
 11
400
 21
220.05
  0
LINE
  5
16F
100
AcDbEntity
  8
dimension
  6
ByBlock
 62
  256
370
   -2
100
AcDbLine
 10
420.5000000000001
 20
167.9
 11
420.5000000000001
 21
220.05
  0
ENDBLK
  5
98
330
96
100
AcDbEntity
  8
0
100
AcDbBlockEnd
  0
BLOCK
  5
9A
330
99
100
AcDbEntity
  8
0
100
AcDbBlockBegin
  2
*D27
 70
    1
 10
0
 20
0
  3
*D27
  1

  0
LINE
  5
170
100
AcDbEntity
  8
dimension
  6
ByBlock
 62
  256
370
   -2
100
AcDbLine
 10
150
 20
132.5
 11
150
 21
120.1249999999998
  0
SOLID
  5
171
100
AcDbEntity
  8
dimension
  6
ByBlock
 62
  256
370
   -2
100
AcDbTrace
 10
150
 20
132.5
 30
0
 11
150.4162846577728
 21
130
 31
0
 12
149.5837153422272
 22
130
 32
0
 13
149.5837153422272
 23
130
 33
0
  0
SOLID
  5
172
100
AcDbEntity
  8
dimension
  6
ByBlock
 62
  256
370
   -2
100
AcDbTrace
 10
150
 20
102.4999999999996
 30
0
 11
149.5837153422272
 21
104.9999999999996
 31
0
 12
150.4162846577728
 22
104.9999999999996
 32
0
 13
150.4162846577728
 23
104.9999999999996
 33
0
  0
LINE
  5
173
100
AcDbEntity
  8
dimension
  6
ByBlock
 62
  256
370
   -2
100
AcDbLine
 10
150
 20
114.8749999999998
 11
150
 21
102.4999999999996
  0
MTEXT
  5
174
100
AcDbEntity
  8
dimension
  6
CONTINUOUS
 62
    0
370
   -2
100
AcDbMText
 10
150
 20
117.4999999999998
 30
0
 40
4
 41
4.888888888889136
 71
    5
 72
    1
  1
30
  7
standard
210
0
220
0
230
1
 50
0
 73
    2
 44
1
  0
LINE
  5
175
100
AcDbEntity
  8
dimension
  6
ByBlock
 62
  256
370
   -2
100
AcDbLine
 10
97.40000000000001
 20
132.5
 11
150.05
 21
132.5
  0
LINE
  5
176
100
AcDbEntity
  8
dimension
  6
ByBlock
 62
  256
370
   -2
100
AcDbLine
 10
103.7
 20
102.4999999999996
 11
150.05
 21
102.4999999999996
  0
ENDBLK
  5
9B
330
99
100
AcDbEntity
  8
0
100
AcDbBlockEnd
  0
BLOCK
  5
9D
330
9C
100
AcDbEntity
  8
0
100
AcDbBlockBegin
  2
*D4
 70
    1
 10
0
 20
0
  3
*D4
  1

  0
LINE
  5
177
100
AcDbEntity
  8
dimension
  6
ByBlock
 62
  256
370
   -2
100
AcDbLine
 10
52.7
 20
220
 11
79.63055555555543
 21
220
  0
SOLID
  5
178
100
AcDbEntity
  8
dimension
  6
ByBlock
 62
  256
370
   -2
100
AcDbTrace
 10
52.7
 20
220
 30
0
 11
55.2
 21
220.4162846577728
 31
0
 12
55.2
 22
219.5837153422272
 32
0
 13
55.2
 23
219.5837153422272
 33
0
  0
SOLID
  5
179
100
AcDbEntity
  8
dimension
  6
ByBlock
 62
  256
370
   -2
100
AcDbTrace
 10
112.7
 20
220
 30
0
 11
110.2
 21
219.5837153422272
 31
0
 12
110.2
 22
220.4162846577728
 32
0
 13
110.2
 23
220.4162846577728
 33
0
  0
LINE
  5
17A
100
AcDbEntity
  8
dimension
  6
ByBlock
 62
  256
370
   -2
100
AcDbLine
 10
85.76944444444457
 20
220
 11
112.7
 21
220
  0
MTEXT
  5
17B
100
AcDbEntity
  8
dimension
  6
CONTINUOUS
 62
    0
370
   -2
100
AcDbMText
 10
82.7
 20
220
 30
0
 40
4
 41
4.888888888889136
 71
    5
 72
    1
  1
60
  7
standard
210
0
220
0
230
1
 50
0
 73
    2
 44
1
  0
LINE
  5
17C
100
AcDbEntity
  8
dimension
  6
ByBlock
 62
  256
370
   -2
100
AcDbLine
 10
52.7
 20
209.9
 11
52.7
 21
220.05
  0
LINE
  5
17D
100
AcDbEntity
  8
dimension
  6
ByBlock
 62
  256
370
   -2
100
AcDbLine
 10
112.7
 20
209.9
 11
112.7
 21
220.05
  0
ENDBLK
  5
9E
330
9C
100
AcDbEntity
  8
0
100
AcDbBlockEnd
  0
BLOCK
  5
A0
330
9F
100
AcDbEntity
  8
0
100
AcDbBlockBegin
  2
*D19
 70
    1
 10
0
 20
0
  3
*D19
  1

  0
LINE
  5
17E
100
AcDbEntity
  8
dimension
  6
ByBlock
 62
  256
370
   -2
100
AcDbLine
 10
305
 20
220
 11
309.8749999999999
 21
220
  0
SOLID
  5
17F
100
AcDbEntity
  8
dimension
  6
ByBlock
 62
  256
370
   -2
100
AcDbTrace
 10
305
 20
220
 30
0
 11
307.5
 21
220.4162846577728
 31
0
 12
307.5
 22
219.5837153422272
 32
0
 13
307.5
 23
219.5837153422272
 33
0
  0
SOLID
  5
180
100
AcDbEntity
  8
dimension
  6
ByBlock
 62
  256
370
   -2
100
AcDbTrace
 10
320
 20
220
 30
0
 11
317.5
 21
219.5837153422272
 31
0
 12
317.5
 22
220.4162846577728
 32
0
 13
317.5
 23
220.4162846577728
 33
0
  0
LINE
  5
181
100
AcDbEntity
  8
dimension
  6
ByBlock
 62
  256
370
   -2
100
AcDbLine
 10
315.1250000000001
 20
220
 11
320
 21
220
  0
MTEXT
  5
182
100
AcDbEntity
  8
dimension
  6
CONTINUOUS
 62
    0
370
   -2
100
AcDbMText
 10
312.5
 20
220
 30
0
 40
4
 41
4.000000000000249
 71
    5
 72
    1
  1
15
  7
standard
210
0
220
0
230
1
 50
0
 73
    2
 44
1
  0
LINE
  5
183
100
AcDbEntity
  8
dimension
  6
ByBlock
 62
  256
370
   -2
100
AcDbLine
 10
305
 20
173.9000000000015
 11
305
 21
220.05
  0
LINE
  5
184
100
AcDbEntity
  8
dimension
  6
ByBlock
 62
  256
370
   -2
100
AcDbLine
 10
320
 20
209.9
 11
320
 21
220.05
  0
ENDBLK
  5
A1
330
9F
100
AcDbEntity
  8
0
100
AcDbBlockEnd
  0
BLOCK
  5
A3
330
A2
100
AcDbEntity
  8
0
100
AcDbBlockBegin
  2
*D22
 70
    1
 10
0
 20
0
  3
*D22
  1

  0
LINE
  5
185
100
AcDbEntity
  8
dimension
  6
ByBlock
 62
  256
370
   -2
100
AcDbLine
 10
257.5
 20
250
 11
345.8194444444443
 21
250
  0
SOLID
  5
186
100
AcDbEntity
  8
dimension
  6
ByBlock
 62
  256
370
   -2
100
AcDbTrace
 10
257.5
 20
250
 30
0
 11
260
 21
250.4162846577728
 31
0
 12
260
 22
249.5837153422272
 32
0
 13
260
 23
249.5837153422272
 33
0
  0
SOLID
  5
187
100
AcDbEntity
  8
dimension
  6
ByBlock
 62
  256
370
   -2
100
AcDbTrace
 10
442.5
 20
250
 30
0
 11
440
 21
249.5837153422272
 31
0
 12
440
 22
250.4162846577728
 32
0
 13
440
 23
250.4162846577728
 33
0
  0
LINE
  5
188
100
AcDbEntity
  8
dimension
  6
ByBlock
 62
  256
370
   -2
100
AcDbLine
 10
354.1805555555557
 20
250
 11
442.5
 21
250
  0
MTEXT
  5
189
100
AcDbEntity
  8
dimension
  6
CONTINUOUS
 62
    0
370
   -2
100
AcDbMText
 10
350
 20
250
 30
0
 40
4
 41
7.111111111111359
 71
    5
 72
    1
  1
185
  7
standard
210
0
220
0
230
1
 50
0
 73
    2
 44
1
  0
LINE
  5
18A
100
AcDbEntity
  8
dimension
  6
ByBlock
 62
  256
370
   -2
100
AcDbLine
 10
257.5
 20
142.4999999999997
 11
257.5
 21
250.05
  0
LINE
  5
18B
100
AcDbEntity
  8
dimension
  6
ByBlock
 62
  256
370
   -2
100
AcDbLine
 10
442.5
 20
142.4999999999997
 11
442.5
 21
250.05
  0
ENDBLK
  5
A4
330
A2
100
AcDbEntity
  8
0
100
AcDbBlockEnd
  0
BLOCK
  5
A6
330
A5
100
AcDbEntity
  8
0
100
AcDbBlockBegin
  2
*D13
 70
    1
 10
0
 20
0
  3
*D13
  1

  0
LINE
  5
18C
100
AcDbEntity
  8
dimension
  6
ByBlock
 62
  256
370
   -2
100
AcDbLine
 10
312
 20
-10
 11
306.6250000000001
 21
-10
  0
SOLID
  5
18D
100
AcDbEntity
  8
dimension
  6
ByBlock
 62
  256
370
   -2
100
AcDbTrace
 10
312
 20
-10
 30
0
 11
309.5
 21
-10.41628465777284
 31
0
 12
309.5
 22
-9.58371534222716
 32
0
 13
309.5
 23
-9.58371534222716
 33
0
  0
SOLID
  5
18E
100
AcDbEntity
  8
dimension
  6
ByBlock
 62
  256
370
   -2
100
AcDbTrace
 10
296
 20
-10
 30
0
 11
298.5
 21
-9.58371534222716
 31
0
 12
298.5
 22
-10.41628465777284
 32
0
 13
298.5
 23
-10.41628465777284
 33
0
  0
LINE
  5
18F
100
AcDbEntity
  8
dimension
  6
ByBlock
 62
  256
370
   -2
100
AcDbLine
 10
301.3749999999999
 20
-10
 11
296
 21
-10
  0
MTEXT
  5
190
100
AcDbEntity
  8
dimension
  6
CONTINUOUS
 62
    0
370
   -2
100
AcDbMText
 10
304
 20
-10
 30
0
 40
4
 41
4.000000000000249
 71
    5
 72
    1
  1
16
  7
standard
210
0
220
0
230
1
 50
0
 73
    2
 44
1
  0
LINE
  5
191
100
AcDbEntity
  8
dimension
  6
ByBlock
 62
  256
370
   -2
100
AcDbLine
 10
312
 20
-2
 11
312
 21
-10.05
  0
LINE
  5
192
100
AcDbEntity
  8
dimension
  6
ByBlock
 62
  256
370
   -2
100
AcDbLine
 10
296
 20
-2.000000000000014
 11
296
 21
-10.05
  0
ENDBLK
  5
A7
330
A5
100
AcDbEntity
  8
0
100
AcDbBlockEnd
  0
BLOCK
  5
A9
330
A8
100
AcDbEntity
  8
0
100
AcDbBlockBegin
  2
*D2
 70
    1
 10
0
 20
0
  3
*D2
  1

  0
LINE
  5
193
100
AcDbEntity
  8
dimension
  6
ByBlock
 62
  256
370
   -2
100
AcDbLine
 10
82.7
 20
170
 11
116.0583333333332
 21
170
  0
SOLID
  5
194
100
AcDbEntity
  8
dimension
  6
ByBlock
 62
  256
370
   -2
100
AcDbTrace
 10
82.7
 20
170
 30
0
 11
85.2
 21
170.4162846577728
 31
0
 12
85.2
 22
169.5837153422272
 32
0
 13
85.2
 23
169.5837153422272
 33
0
  0
SOLID
  5
195
100
AcDbEntity
  8
dimension
  6
ByBlock
 62
  256
370
   -2
100
AcDbTrace
 10
160
 20
170
 30
0
 11
157.5
 21
169.5837153422272
 31
0
 12
157.5
 22
170.4162846577728
 32
0
 13
157.5
 23
170.4162846577728
 33
0
  0
LINE
  5
196
100
AcDbEntity
  8
dimension
  6
ByBlock
 62
  256
370
   -2
100
AcDbLine
 10
126.6416666666668
 20
170
 11
160
 21
170
  0
MTEXT
  5
197
100
AcDbEntity
  8
dimension
  6
CONTINUOUS
 62
    0
370
   -2
100
AcDbMText
 10
121.35
 20
170
 30
0
 40
4
 41
9.333333333333581
 71
    5
 72
    1
  1
77.3
  7
standard
210
0
220
0
230
1
 50
0
 73
    2
 44
1
  0
LINE
  5
198
100
AcDbEntity
  8
dimension
  6
ByBlock
 62
  256
370
   -2
100
AcDbLine
 10
82.7
 20
159.9
 11
82.7
 21
170.05
  0
LINE
  5
199
100
AcDbEntity
  8
dimension
  6
ByBlock
 62
  256
370
   -2
100
AcDbLine
 10
160
 20
34.5
 11
160
 21
170.05
  0
ENDBLK
  5
AA
330
A8
100
AcDbEntity
  8
0
100
AcDbBlockEnd
  0
BLOCK
  5
AC
330
AB
100
AcDbEntity
  8
0
100
AcDbBlockBegin
  2
*D17
 70
    1
 10
0
 20
0
  3
*D17
  1

  0
LINE
  5
19A
100
AcDbEntity
  8
dimension
  6
ByBlock
 62
  256
370
   -2
100
AcDbLine
 10
400
 20
230
 11
354.1805555555555
 21
230
  0
SOLID
  5
19B
100
AcDbEntity
  8
dimension
  6
ByBlock
 62
  256
370
   -2
100
AcDbTrace
 10
400
 20
230
 30
0
 11
397.5
 21
229.5837153422272
 31
0
 12
397.5
 22
230.4162846577728
 32
0
 13
397.5
 23
230.4162846577728
 33
0
  0
SOLID
  5
19C
100
AcDbEntity
  8
dimension
  6
ByBlock
 62
  256
370
   -2
100
AcDbTrace
 10
300
 20
230
 30
0
 11
302.5
 21
230.4162846577728
 31
0
 12
302.5
 22
229.5837153422272
 32
0
 13
302.5
 23
229.5837153422272
 33
0
  0
LINE
  5
19D
100
AcDbEntity
  8
dimension
  6
ByBlock
 62
  256
370
   -2
100
AcDbLine
 10
345.8194444444445
 20
230
 11
300
 21
230
  0
MTEXT
  5
19E
100
AcDbEntity
  8
dimension
  6
CONTINUOUS
 62
    0
370
   -2
100
AcDbMText
 10
350
 20
230
 30
0
 40
4
 41
7.111111111111111
 71
    5
 72
    1
  1
100
  7
standard
210
0
220
0
230
1
 50
0
 73
    2
 44
1
  0
LINE
  5
19F
100
AcDbEntity
  8
dimension
  6
ByBlock
 62
  256
370
   -2
100
AcDbLine
 10
400
 20
159.9
 11
400
 21
230.05
  0
LINE
  5
1A0
100
AcDbEntity
  8
dimension
  6
ByBlock
 62
  256
370
   -2
100
AcDbLine
 10
300
 20
159.9
 11
300
 21
230.05
  0
ENDBLK
  5
AD
330
AB
100
AcDbEntity
  8
0
100
AcDbBlockEnd
  0
BLOCK
  5
AF
330
AE
100
AcDbEntity
  8
0
100
AcDbBlockBegin
  2
gripper
 70
    0
 10
0
 20
0
  3
gripper
  1

  0
ARC
  5
1A1
100
AcDbEntity
  8
claw
  6
BORDERTINY
 62
    6
370
   -1
100
AcDbCircle
 10
0
 20
0
 40
6.5
100
AcDbArc
 50
270
 51
270
  0
LINE
  5
1A2
100
AcDbEntity
  8
claw
  6
BORDERTINY
 62
    6
370
   -1
100
AcDbLine
 10
-102.1851868266978
 20
0
 11
-111
 21
0
  0
ARC
  5
1A3
100
AcDbEntity
  8
claw
  6
BORDERTINY
 62
    6
370
   -1
100
AcDbCircle
 10
-53.43339871611983
 20
-24.52621255349501
 40
62.57354621240871
100
AcDbArc
 50
87.77128433749293
 51
156.9236026613911
  0
LINE
  5
1A4
100
AcDbEntity
  8
claw
  6
BORDERTINY
 62
    6
370
   -1
100
AcDbLine
 10
-13
 20
38.00000000000003
 11
-51
 21
38.00000000000003
  0
ARC
  5
1A5
100
AcDbEntity
  8
claw
  6
BORDERTINY
 62
    6
370
   -1
100
AcDbCircle
 10
-13
 20
33.00000000000003
 40
5
100
AcDbArc
 50
0
 51
90
  0
LINE
  5
1A6
100
AcDbEntity
  8
claw
  6
BORDERTINY
 62
    6
370
   -1
100
AcDbLine
 10
-8.000000000000014
 20
23.50000000000003
 11
-8
 21
33.00000000000003
  0
ARC
  5
1A7
100
AcDbEntity
  8
claw
  6
BORDERTINY
 62
    6
370
   -1
100
AcDbCircle
 10
-3.000000000000014
 20
23.50000000000003
 40
5
100
AcDbArc
 50
180
 51
270
  0
LINE
  5
1A8
100
AcDbEntity
  8
claw
  6
BORDERTINY
 62
    6
370
   -1
100
AcDbLine
 10
14
 20
18.50000000000003
 11
-3.000000000000014
 21
18.50000000000003
  0
ARC
  5
1A9
100
AcDbEntity
  8
claw
  6
BORDERTINY
 62
    6
370
   -1
100
AcDbCircle
 10
14
 20
13.5
 40
5
100
AcDbArc
 50
0
 51
90
  0
ARC
  5
1AA
100
AcDbEntity
  8
claw
  6
BORDERTINY
 62
    6
370
   -1
100
AcDbCircle
 10
-55.75651426033463
 20
-28.68188121311681
 40
54.57354621240871
100
AcDbArc
 50
84.9998774261821
 51
148.2937931560684
  0
LINE
  5
1AB
100
AcDbEntity
  8
claw
  6
BORDERTINY
 62
    6
370
   -1
100
AcDbLine
 10
-51
 20
-1.4210854715202e-014
 11
-51
 21
25.68398600418362
  0
LINE
  5
1AC
100
AcDbEntity
  8
claw
  6
BORDERTINY
 62
    6
370
   -1
100
AcDbLine
 10
19
 20
-2.842170943040401e-014
 11
19
 21
13.5
  0
LINE
  5
1AD
100
AcDbEntity
  8
claw
  6
BORDERTINY
 62
    6
370
   -1
100
AcDbLine
 10
-102.1851868266978
 20
-2.842170943040401e-014
 11
-111
 21
-2.842170943040401e-014
  0
ARC
  5
1AE
100
AcDbEntity
  8
claw
  6
BORDERTINY
 62
    6
370
   -1
100
AcDbCircle
 10
-53.43339871611983
 20
24.52621255349503
 40
62.57354621240871
100
AcDbArc
 50
203.0763973386089
 51
272.2287156625071
  0
LINE
  5
1AF
100
AcDbEntity
  8
claw
  6
BORDERTINY
 62
    6
370
   -1
100
AcDbLine
 10
-12.99999999999997
 20
-38.00000000000003
 11
-50.99999999999999
 21
-38.00000000000003
  0
ARC
  5
1B0
100
AcDbEntity
  8
claw
  6
BORDERTINY
 62
    6
370
   -1
100
AcDbCircle
 10
-12.99999999999997
 20
-33.00000000000003
 40
5
100
AcDbArc
 50
270
 51
0
  0
LINE
  5
1B1
100
AcDbEntity
  8
claw
  6
BORDERTINY
 62
    6
370
   -1
100
AcDbLine
 10
-7.999999999999986
 20
-23.50000000000003
 11
-8
 21
-33.00000000000003
  0
ARC
  5
1B2
100
AcDbEntity
  8
claw
  6
BORDERTINY
 62
    6
370
   -1
100
AcDbCircle
 10
-3.000000000000014
 20
-23.50000000000003
 40
5
100
AcDbArc
 50
90
 51
180
  0
LINE
  5
1B3
100
AcDbEntity
  8
claw
  6
BORDERTINY
 62
    6
370
   -1
100
AcDbLine
 10
14
 20
-18.50000000000003
 11
-3.000000000000014
 21
-18.50000000000003
  0
ARC
  5
1B4
100
AcDbEntity
  8
claw
  6
BORDERTINY
 62
    6
370
   -1
100
AcDbCircle
 10
14
 20
-13.50000000000003
 40
5
100
AcDbArc
 50
270
 51
0
  0
ARC
  5
1B5
100
AcDbEntity
  8
claw
  6
BORDERTINY
 62
    6
370
   -1
100
AcDbCircle
 10
-55.75651426033463
 20
28.68188121311682
 40
54.57354621240871
100
AcDbArc
 50
211.7062068439316
 51
275.0001225738179
  0
LINE
  5
1B6
100
AcDbEntity
  8
claw
  6
BORDERTINY
 62
    6
370
   -1
100
AcDbLine
 10
-50.99999999999999
 20
-1.4210854715202e-014
 11
-50.99999999999999
 21
-25.68398600418366
  0
LINE
  5
1B7
100
AcDbEntity
  8
claw
  6
BORDERTINY
 62
    6
370
   -1
100
AcDbLine
 10
19
 20
0
 11
19
 21
-13.50000000000003
  0
LWPOLYLINE
  5
1B8
100
AcDbEntity
  8
claw
  6
ByLayer
 62
  256
370
   -1
100
AcDbPolyline
 90
    4
 70
    1
 43
0
 10
129.3
 20
-38.00000000000033
 10
135.3
 20
-38.00000000000033
 10
135.3
 20
37.99999999999983
 10
129.3
 20
37.99999999999983
  0
LWPOLYLINE
  5
1B9
100
AcDbEntity
  8
claw
  6
ByLayer
 62
  256
370
   -1
100
AcDbPolyline
 90
    4
 70
    1
 43
0
 10
135.3
 20
-38.00000000000034
 10
141.3
 20
-38.00000000000034
 10
141.3
 20
37.99999999999983
 10
135.3
 20
37.99999999999983
  0
LWPOLYLINE
  5
1BA
100
AcDbEntity
  8
claw
  6
ByLayer
 62
  256
370
   -1
100
AcDbPolyline
 90
    4
 70
    1
 43
0
 10
141.3
 20
-18.5000000000003
 10
169.3
 20
-18.5000000000003
 10
169.3
 20
18.49999999999973
 10
141.3
 20
18.49999999999973
  0
LWPOLYLINE
  5
1BB
100
AcDbEntity
  8
claw
  6
ByLayer
 62
  256
370
   -1
100
AcDbPolyline
 90
    4
 70
    1
 43
0
 10
285.3
 20
-38.00000000000034
 10
279.3
 20
-38.00000000000034
 10
279.3
 20
37.99999999999983
 10
285.3
 20
37.99999999999983
  0
LWPOLYLINE
  5
1BC
100
AcDbEntity
  8
claw
  6
ByLayer
 62
  256
370
   -1
100
AcDbPolyline
 90
    4
 70
    1
 43
0
 10
279.3
 20
-38.00000000000034
 10
273.3
 20
-38.00000000000034
 10
273.3
 20
37.99999999999983
 10
279.3
 20
37.99999999999983
  0
LWPOLYLINE
  5
1BD
100
AcDbEntity
  8
claw
  6
ByLayer
 62
  256
370
   -1
100
AcDbPolyline
 90
    4
 70
    1
 43
0
 10
273.3
 20
-18.5000000000003
 10
245.3
 20
-18.5000000000003
 10
245.3
 20
18.49999999999963
 10
273.3
 20
18.49999999999963
  0
ENDBLK
  5
B0
330
AE
100
AcDbEntity
  8
0
100
AcDbBlockEnd
  0
BLOCK
  5
B2
330
B1
100
AcDbEntity
  8
0
100
AcDbBlockBegin
  2
grippera
 70
    0
 10
0
 20
0
  3
grippera
  1

  0
ARC
  5
1BE
100
AcDbEntity
  8
claw
  6
ByLayer
 62
  256
370
   -1
100
AcDbCircle
 10
0
 20
0
 40
6.5
100
AcDbArc
 50
270
 51
270
  0
LINE
  5
1BF
100
AcDbEntity
  8
claw
  6
ByLayer
 62
  256
370
   -1
100
AcDbLine
 10
-102.1851868266978
 20
0
 11
-111
 21
0
  0
ARC
  5
1C0
100
AcDbEntity
  8
claw
  6
ByLayer
 62
  256
370
   -1
100
AcDbCircle
 10
-53.43339871611983
 20
-24.52621255349501
 40
62.57354621240871
100
AcDbArc
 50
87.77128433749293
 51
156.9236026613911
  0
LINE
  5
1C1
100
AcDbEntity
  8
claw
  6
ByLayer
 62
  256
370
   -1
100
AcDbLine
 10
-13
 20
38.00000000000004
 11
-51
 21
38.00000000000004
  0
ARC
  5
1C2
100
AcDbEntity
  8
claw
  6
ByLayer
 62
  256
370
   -1
100
AcDbCircle
 10
-13
 20
33.00000000000003
 40
5
100
AcDbArc
 50
0
 51
90
  0
LINE
  5
1C3
100
AcDbEntity
  8
claw
  6
ByLayer
 62
  256
370
   -1
100
AcDbLine
 10
-8.000000000000014
 20
23.50000000000003
 11
-8
 21
33.00000000000003
  0
ARC
  5
1C4
100
AcDbEntity
  8
claw
  6
ByLayer
 62
  256
370
   -1
100
AcDbCircle
 10
-3.000000000000014
 20
23.50000000000003
 40
5
100
AcDbArc
 50
180
 51
270
  0
LINE
  5
1C5
100
AcDbEntity
  8
claw
  6
ByLayer
 62
  256
370
   -1
100
AcDbLine
 10
14
 20
18.50000000000003
 11
-3.000000000000014
 21
18.50000000000003
  0
ARC
  5
1C6
100
AcDbEntity
  8
claw
  6
ByLayer
 62
  256
370
   -1
100
AcDbCircle
 10
14
 20
13.5
 40
5
100
AcDbArc
 50
0
 51
90
  0
ARC
  5
1C7
100
AcDbEntity
  8
claw
  6
ByLayer
 62
  256
370
   -1
100
AcDbCircle
 10
-55.75651426033463
 20
-28.68188121311681
 40
54.57354621240871
100
AcDbArc
 50
84.9998774261821
 51
148.2937931560684
  0
LINE
  5
1C8
100
AcDbEntity
  8
claw
  6
ByLayer
 62
  256
370
   -1
100
AcDbLine
 10
-51
 20
-1.4210854715202e-014
 11
-51
 21
25.68398600418362
  0
LINE
  5
1C9
100
AcDbEntity
  8
claw
  6
ByLayer
 62
  256
370
   -1
100
AcDbLine
 10
19
 20
-2.842170943040401e-014
 11
19
 21
13.5
  0
LINE
  5
1CA
100
AcDbEntity
  8
claw
  6
ByLayer
 62
  256
370
   -1
100
AcDbLine
 10
-102.1851868266978
 20
-2.842170943040401e-014
 11
-111
 21
-2.842170943040401e-014
  0
ARC
  5
1CB
100
AcDbEntity
  8
claw
  6
ByLayer
 62
  256
370
   -1
100
AcDbCircle
 10
-53.43339871611983
 20
24.52621255349503
 40
62.57354621240871
100
AcDbArc
 50
203.0763973386089
 51
272.2287156625071
  0
LINE
  5
1CC
100
AcDbEntity
  8
claw
  6
ByLayer
 62
  256
370
   -1
100
AcDbLine
 10
-12.99999999999997
 20
-38.00000000000003
 11
-50.99999999999999
 21
-38.00000000000003
  0
ARC
  5
1CD
100
AcDbEntity
  8
claw
  6
ByLayer
 62
  256
370
   -1
100
AcDbCircle
 10
-12.99999999999997
 20
-33.00000000000003
 40
5
100
AcDbArc
 50
270
 51
0
  0
LINE
  5
1CE
100
AcDbEntity
  8
claw
  6
ByLayer
 62
  256
370
   -1
100
AcDbLine
 10
-7.999999999999986
 20
-23.50000000000003
 11
-8
 21
-33.00000000000003
  0
ARC
  5
1CF
100
AcDbEntity
  8
claw
  6
ByLayer
 62
  256
370
   -1
100
AcDbCircle
 10
-3.000000000000014
 20
-23.50000000000003
 40
5
100
AcDbArc
 50
90
 51
180
  0
LINE
  5
1D0
100
AcDbEntity
  8
claw
  6
ByLayer
 62
  256
370
   -1
100
AcDbLine
 10
14
 20
-18.50000000000003
 11
-3.000000000000014
 21
-18.50000000000003
  0
ARC
  5
1D1
100
AcDbEntity
  8
claw
  6
ByLayer
 62
  256
370
   -1
100
AcDbCircle
 10
14
 20
-13.50000000000003
 40
5
100
AcDbArc
 50
270
 51
0
  0
ARC
  5
1D2
100
AcDbEntity
  8
claw
  6
ByLayer
 62
  256
370
   -1
100
AcDbCircle
 10
-55.75651426033463
 20
28.68188121311682
 40
54.57354621240871
100
AcDbArc
 50
211.7062068439316
 51
275.0001225738179
  0
LINE
  5
1D3
100
AcDbEntity
  8
claw
  6
ByLayer
 62
  256
370
   -1
100
AcDbLine
 10
-50.99999999999999
 20
-1.4210854715202e-014
 11
-50.99999999999999
 21
-25.68398600418367
  0
LINE
  5
1D4
100
AcDbEntity
  8
claw
  6
ByLayer
 62
  256
370
   -1
100
AcDbLine
 10
19
 20
0
 11
19
 21
-13.50000000000003
  0
ENDBLK
  5
B3
330
B1
100
AcDbEntity
  8
0
100
AcDbBlockEnd
  0
BLOCK
  5
B5
330
B4
100
AcDbEntity
  8
0
100
AcDbBlockBegin
  2
gearbox
 70
    0
 10
0
 20
0
  3
gearbox
  1

  0
LINE
  5
1D5
100
AcDbEntity
  8
0
  6
ByLayer
 62
  256
370
   -1
100
AcDbLine
 10
0
 20
30
 11
0
 21
-30
  0
LINE
  5
1D6
100
AcDbEntity
  8
0
  6
ByLayer
 62
  256
370
   -1
100
AcDbLine
 10
70
 20
17
 11
40
 21
17
  0
LINE
  5
1D7
100
AcDbEntity
  8
0
  6
ByLayer
 62
  256
370
   -1
100
AcDbLine
 10
40
 20
-17
 11
70
 21
-17
  0
LINE
  5
1D8
100
AcDbEntity
  8
0
  6
ByLayer
 62
  256
370
   -1
100
AcDbLine
 10
70
 20
-17
 11
70
 21
17
  0
LINE
  5
1D9
100
AcDbEntity
  8
0
  6
ByLayer
 62
  256
370
   -1
100
AcDbLine
 10
0
 20
-30
 11
40
 21
-30
  0
LINE
  5
1DA
100
AcDbEntity
  8
0
  6
ByLayer
 62
  256
370
   -1
100
AcDbLine
 10
40
 20
30
 11
0
 21
30
  0
LINE
  5
1DB
100
AcDbEntity
  8
0
  6
ByLayer
 62
  256
370
   -1
100
AcDbLine
 10
40
 20
30
 11
40
 21
17
  0
LINE
  5
1DC
100
AcDbEntity
  8
0
  6
ByLayer
 62
  256
370
   -1
100
AcDbLine
 10
40
 20
-17
 11
40
 21
-30
  0
ENDBLK
  5
B6
330
B4
100
AcDbEntity
  8
0
100
AcDbBlockEnd
  0
BLOCK
  5
B8
330
B7
100
AcDbEntity
  8
0
100
AcDbBlockBegin
  2
gearbox1
 70
    0
 10
0
 20
0
  3
gearbox1
  1

  0
LINE
  5
1DD
100
AcDbEntity
  8
component
  6
ByLayer
 62
  253
420
10526884
370
   -1
100
AcDbLine
 10
40
 20
28
 11
40
 21
19
  0
LINE
  5
1DE
100
AcDbEntity
  8
component
  6
ByLayer
 62
  253
420
10526884
370
   -1
100
AcDbLine
 10
38
 20
30
 11
2
 21
30
  0
LINE
  5
1DF
100
AcDbEntity
  8
component
  6
ByLayer
 62
  253
420
10526884
370
   -1
100
AcDbLine
 10
42
 20
-17
 11
68
 21
-17
  0
LINE
  5
1E0
100
AcDbEntity
  8
component
  6
ByLayer
 62
  253
420
10526884
370
   -1
100
AcDbLine
 10
70
 20
-15
 11
70
 21
15
  0
LINE
  5
1E1
100
AcDbEntity
  8
component
  6
ByLayer
 62
  253
420
10526884
370
   -1
100
AcDbLine
 10
68
 20
17
 11
42
 21
17
  0
LINE
  5
1E2
100
AcDbEntity
  8
component
  6
ByLayer
 62
  253
420
10526884
370
   -1
100
AcDbLine
 10
40
 20
-19
 11
40
 21
-28
  0
LINE
  5
1E3
100
AcDbEntity
  8
component
  6
ByLayer
 62
  253
420
10526884
370
   -1
100
AcDbLine
 10
2
 20
-30
 11
38
 21
-30
  0
LINE
  5
1E4
100
AcDbEntity
  8
component
  6
ByLayer
 62
  253
420
10526884
370
   -1
100
AcDbLine
 10
0
 20
28
 11
0
 21
-28
  0
ARC
  5
1E5
100
AcDbEntity
  8
component
  6
ByLayer
 62
  253
420
10526884
370
   -1
100
AcDbCircle
 10
42
 20
19
 40
2
100
AcDbArc
 50
180
 51
270
  0
ARC
  5
1E6
100
AcDbEntity
  8
component
  6
ByLayer
 62
  253
420
10526884
370
   -1
100
AcDbCircle
 10
42
 20
-19
 40
2
100
AcDbArc
 50
90
 51
180
  0
ARC
  5
1E7
100
AcDbEntity
  8
component
  6
ByLayer
 62
  253
420
10526884
370
   -1
100
AcDbCircle
 10
38
 20
28
 40
2
100
AcDbArc
 50
0
 51
90
  0
ARC
  5
1E8
100
AcDbEntity
  8
component
  6
ByLayer
 62
  253
420
10526884
370
   -1
100
AcDbCircle
 10
2
 20
28
 40
2
100
AcDbArc
 50
90
 51
180
  0
ARC
  5
1E9
100
AcDbEntity
  8
component
  6
ByLayer
 62
  253
420
10526884
370
   -1
100
AcDbCircle
 10
68
 20
-15
 40
2
100
AcDbArc
 50
270
 51
0
  0
ARC
  5
1EA
100
AcDbEntity
  8
component
  6
ByLayer
 62
  253
420
10526884
370
   -1
100
AcDbCircle
 10
68
 20
15
 40
2
100
AcDbArc
 50
0
 51
90
  0
ARC
  5
1EB
100
AcDbEntity
  8
component
  6
ByLayer
 62
  253
420
10526884
370
   -1
100
AcDbCircle
 10
38
 20
-28
 40
2
100
AcDbArc
 50
270
 51
0
  0
ARC
  5
1EC
100
AcDbEntity
  8
component
  6
ByLayer
 62
  253
420
10526884
370
   -1
100
AcDbCircle
 10
2
 20
-28
 40
2
100
AcDbArc
 50
180
 51
270
  0
ENDBLK
  5
B9
330
B7
100
AcDbEntity
  8
0
100
AcDbBlockEnd
  0
BLOCK
  5
BB
330
BA
100
AcDbEntity
  8
0
100
AcDbBlockBegin
  2
gripper-0
 70
    0
 10
0
 20
0
  3
gripper-0
  1

  0
ARC
  5
1ED
100
AcDbEntity
  8
claw
  6
BORDERTINY
 62
    6
370
   -1
100
AcDbCircle
 10
0
 20
0
 40
6.5
100
AcDbArc
 50
270
 51
270
  0
LINE
  5
1EE
100
AcDbEntity
  8
claw
  6
BORDERTINY
 62
    6
370
   -1
100
AcDbLine
 10
-102.1851868266978
 20
0
 11
-111
 21
0
  0
ARC
  5
1EF
100
AcDbEntity
  8
claw
  6
BORDERTINY
 62
    6
370
   -1
100
AcDbCircle
 10
-53.43339871611983
 20
-24.52621255349501
 40
62.57354621240871
100
AcDbArc
 50
87.77128433749293
 51
156.9236026613911
  0
LINE
  5
1F0
100
AcDbEntity
  8
claw
  6
BORDERTINY
 62
    6
370
   -1
100
AcDbLine
 10
-13
 20
38.00000000000003
 11
-51
 21
38.00000000000003
  0
ARC
  5
1F1
100
AcDbEntity
  8
claw
  6
BORDERTINY
 62
    6
370
   -1
100
AcDbCircle
 10
-13
 20
33.00000000000003
 40
5
100
AcDbArc
 50
0
 51
90
  0
LINE
  5
1F2
100
AcDbEntity
  8
claw
  6
BORDERTINY
 62
    6
370
   -1
100
AcDbLine
 10
-8.000000000000014
 20
23.50000000000003
 11
-8
 21
33.00000000000003
  0
ARC
  5
1F3
100
AcDbEntity
  8
claw
  6
BORDERTINY
 62
    6
370
   -1
100
AcDbCircle
 10
-3.000000000000014
 20
23.50000000000003
 40
5
100
AcDbArc
 50
180
 51
270
  0
LINE
  5
1F4
100
AcDbEntity
  8
claw
  6
BORDERTINY
 62
    6
370
   -1
100
AcDbLine
 10
14
 20
18.50000000000003
 11
-3.000000000000014
 21
18.50000000000003
  0
ARC
  5
1F5
100
AcDbEntity
  8
claw
  6
BORDERTINY
 62
    6
370
   -1
100
AcDbCircle
 10
14
 20
13.5
 40
5
100
AcDbArc
 50
0
 51
90
  0
ARC
  5
1F6
100
AcDbEntity
  8
claw
  6
BORDERTINY
 62
    6
370
   -1
100
AcDbCircle
 10
-55.75651426033463
 20
-28.68188121311681
 40
54.57354621240871
100
AcDbArc
 50
84.9998774261821
 51
148.2937931560684
  0
LINE
  5
1F7
100
AcDbEntity
  8
claw
  6
BORDERTINY
 62
    6
370
   -1
100
AcDbLine
 10
-51
 20
-1.4210854715202e-014
 11
-51
 21
25.68398600418362
  0
LINE
  5
1F8
100
AcDbEntity
  8
claw
  6
BORDERTINY
 62
    6
370
   -1
100
AcDbLine
 10
19
 20
-2.842170943040401e-014
 11
19
 21
13.5
  0
LINE
  5
1F9
100
AcDbEntity
  8
claw
  6
BORDERTINY
 62
    6
370
   -1
100
AcDbLine
 10
-102.1851868266978
 20
-2.842170943040401e-014
 11
-111
 21
-2.842170943040401e-014
  0
ARC
  5
1FA
100
AcDbEntity
  8
claw
  6
BORDERTINY
 62
    6
370
   -1
100
AcDbCircle
 10
-53.43339871611983
 20
24.52621255349503
 40
62.57354621240871
100
AcDbArc
 50
203.0763973386089
 51
272.2287156625071
  0
LINE
  5
1FB
100
AcDbEntity
  8
claw
  6
BORDERTINY
 62
    6
370
   -1
100
AcDbLine
 10
-12.99999999999997
 20
-38.00000000000003
 11
-50.99999999999999
 21
-38.00000000000003
  0
ARC
  5
1FC
100
AcDbEntity
  8
claw
  6
BORDERTINY
 62
    6
370
   -1
100
AcDbCircle
 10
-12.99999999999997
 20
-33.00000000000003
 40
5
100
AcDbArc
 50
270
 51
0
  0
LINE
  5
1FD
100
AcDbEntity
  8
claw
  6
BORDERTINY
 62
    6
370
   -1
100
AcDbLine
 10
-7.999999999999986
 20
-23.50000000000003
 11
-8
 21
-33.00000000000003
  0
ARC
  5
1FE
100
AcDbEntity
  8
claw
  6
BORDERTINY
 62
    6
370
   -1
100
AcDbCircle
 10
-3.000000000000014
 20
-23.50000000000003
 40
5
100
AcDbArc
 50
90
 51
180
  0
LINE
  5
1FF
100
AcDbEntity
  8
claw
  6
BORDERTINY
 62
    6
370
   -1
100
AcDbLine
 10
14
 20
-18.50000000000003
 11
-3.000000000000014
 21
-18.50000000000003
  0
ARC
  5
200
100
AcDbEntity
  8
claw
  6
BORDERTINY
 62
    6
370
   -1
100
AcDbCircle
 10
14
 20
-13.50000000000003
 40
5
100
AcDbArc
 50
270
 51
0
  0
ARC
  5
201
100
AcDbEntity
  8
claw
  6
BORDERTINY
 62
    6
370
   -1
100
AcDbCircle
 10
-55.75651426033463
 20
28.68188121311682
 40
54.57354621240871
100
AcDbArc
 50
211.7062068439316
 51
275.0001225738179
  0
LINE
  5
202
100
AcDbEntity
  8
claw
  6
BORDERTINY
 62
    6
370
   -1
100
AcDbLine
 10
-50.99999999999999
 20
-1.4210854715202e-014
 11
-50.99999999999999
 21
-25.68398600418366
  0
LINE
  5
203
100
AcDbEntity
  8
claw
  6
BORDERTINY
 62
    6
370
   -1
100
AcDbLine
 10
19
 20
0
 11
19
 21
-13.50000000000003
  0
LWPOLYLINE
  5
204
100
AcDbEntity
  8
claw
  6
ByLayer
 62
  256
370
   -1
100
AcDbPolyline
 90
    4
 70
    1
 43
0
 10
129.3
 20
-38.00000000000033
 10
135.3
 20
-38.00000000000033
 10
135.3
 20
37.99999999999983
 10
129.3
 20
37.99999999999983
  0
LWPOLYLINE
  5
205
100
AcDbEntity
  8
claw
  6
ByLayer
 62
  256
370
   -1
100
AcDbPolyline
 90
    4
 70
    1
 43
0
 10
135.3
 20
-38.00000000000034
 10
141.3
 20
-38.00000000000034
 10
141.3
 20
37.99999999999983
 10
135.3
 20
37.99999999999983
  0
LWPOLYLINE
  5
206
100
AcDbEntity
  8
claw
  6
ByLayer
 62
  256
370
   -1
100
AcDbPolyline
 90
    4
 70
    1
 43
0
 10
141.3
 20
-18.5000000000003
 10
169.3
 20
-18.5000000000003
 10
169.3
 20
18.49999999999973
 10
141.3
 20
18.49999999999973
  0
LWPOLYLINE
  5
207
100
AcDbEntity
  8
claw
  6
ByLayer
 62
  256
370
   -1
100
AcDbPolyline
 90
    4
 70
    1
 43
0
 10
285.3
 20
-38.00000000000034
 10
279.3
 20
-38.00000000000034
 10
279.3
 20
37.99999999999983
 10
285.3
 20
37.99999999999983
  0
LWPOLYLINE
  5
208
100
AcDbEntity
  8
claw
  6
ByLayer
 62
  256
370
   -1
100
AcDbPolyline
 90
    4
 70
    1
 43
0
 10
279.3
 20
-38.00000000000034
 10
273.3
 20
-38.00000000000034
 10
273.3
 20
37.99999999999983
 10
279.3
 20
37.99999999999983
  0
LWPOLYLINE
  5
209
100
AcDbEntity
  8
claw
  6
ByLayer
 62
  256
370
   -1
100
AcDbPolyline
 90
    4
 70
    1
 43
0
 10
273.3
 20
-18.5000000000003
 10
245.3
 20
-18.5000000000003
 10
245.3
 20
18.49999999999963
 10
273.3
 20
18.49999999999963
  0
ENDBLK
  5
BC
330
BA
100
AcDbEntity
  8
0
100
AcDbBlockEnd
  0
BLOCK
  5
BE
330
BD
100
AcDbEntity
  8
0
100
AcDbBlockBegin
  2
grippera-0
 70
    0
 10
0
 20
0
  3
grippera-0
  1

  0
ARC
  5
20A
100
AcDbEntity
  8
claw
  6
ByLayer
 62
  256
370
   -1
100
AcDbCircle
 10
0
 20
0
 40
6.5
100
AcDbArc
 50
270
 51
270
  0
LINE
  5
20B
100
AcDbEntity
  8
claw
  6
ByLayer
 62
  256
370
   -1
100
AcDbLine
 10
-102.1851868266978
 20
0
 11
-111
 21
0
  0
ARC
  5
20C
100
AcDbEntity
  8
claw
  6
ByLayer
 62
  256
370
   -1
100
AcDbCircle
 10
-53.43339871611983
 20
-24.52621255349501
 40
62.57354621240871
100
AcDbArc
 50
87.77128433749293
 51
156.9236026613911
  0
LINE
  5
20D
100
AcDbEntity
  8
claw
  6
ByLayer
 62
  256
370
   -1
100
AcDbLine
 10
-13
 20
38.00000000000004
 11
-51
 21
38.00000000000004
  0
ARC
  5
20E
100
AcDbEntity
  8
claw
  6
ByLayer
 62
  256
370
   -1
100
AcDbCircle
 10
-13
 20
33.00000000000003
 40
5
100
AcDbArc
 50
0
 51
90
  0
LINE
  5
20F
100
AcDbEntity
  8
claw
  6
ByLayer
 62
  256
370
   -1
100
AcDbLine
 10
-8.000000000000014
 20
23.50000000000003
 11
-8
 21
33.00000000000003
  0
ARC
  5
210
100
AcDbEntity
  8
claw
  6
ByLayer
 62
  256
370
   -1
100
AcDbCircle
 10
-3.000000000000014
 20
23.50000000000003
 40
5
100
AcDbArc
 50
180
 51
270
  0
LINE
  5
211
100
AcDbEntity
  8
claw
  6
ByLayer
 62
  256
370
   -1
100
AcDbLine
 10
14
 20
18.50000000000003
 11
-3.000000000000014
 21
18.50000000000003
  0
ARC
  5
212
100
AcDbEntity
  8
claw
  6
ByLayer
 62
  256
370
   -1
100
AcDbCircle
 10
14
 20
13.5
 40
5
100
AcDbArc
 50
0
 51
90
  0
ARC
  5
213
100
AcDbEntity
  8
claw
  6
ByLayer
 62
  256
370
   -1
100
AcDbCircle
 10
-55.75651426033463
 20
-28.68188121311681
 40
54.57354621240871
100
AcDbArc
 50
84.9998774261821
 51
148.2937931560684
  0
LINE
  5
214
100
AcDbEntity
  8
claw
  6
ByLayer
 62
  256
370
   -1
100
AcDbLine
 10
-51
 20
-1.4210854715202e-014
 11
-51
 21
25.68398600418362
  0
LINE
  5
215
100
AcDbEntity
  8
claw
  6
ByLayer
 62
  256
370
   -1
100
AcDbLine
 10
19
 20
-2.842170943040401e-014
 11
19
 21
13.5
  0
LINE
  5
216
100
AcDbEntity
  8
claw
  6
ByLayer
 62
  256
370
   -1
100
AcDbLine
 10
-102.1851868266978
 20
-2.842170943040401e-014
 11
-111
 21
-2.842170943040401e-014
  0
ARC
  5
217
100
AcDbEntity
  8
claw
  6
ByLayer
 62
  256
370
   -1
100
AcDbCircle
 10
-53.43339871611983
 20
24.52621255349503
 40
62.57354621240871
100
AcDbArc
 50
203.0763973386089
 51
272.2287156625071
  0
LINE
  5
218
100
AcDbEntity
  8
claw
  6
ByLayer
 62
  256
370
   -1
100
AcDbLine
 10
-12.99999999999997
 20
-38.00000000000003
 11
-50.99999999999999
 21
-38.00000000000003
  0
ARC
  5
219
100
AcDbEntity
  8
claw
  6
ByLayer
 62
  256
370
   -1
100
AcDbCircle
 10
-12.99999999999997
 20
-33.00000000000003
 40
5
100
AcDbArc
 50
270
 51
0
  0
LINE
  5
21A
100
AcDbEntity
  8
claw
  6
ByLayer
 62
  256
370
   -1
100
AcDbLine
 10
-7.999999999999986
 20
-23.50000000000003
 11
-8
 21
-33.00000000000003
  0
ARC
  5
21B
100
AcDbEntity
  8
claw
  6
ByLayer
 62
  256
370
   -1
100
AcDbCircle
 10
-3.000000000000014
 20
-23.50000000000003
 40
5
100
AcDbArc
 50
90
 51
180
  0
LINE
  5
21C
100
AcDbEntity
  8
claw
  6
ByLayer
 62
  256
370
   -1
100
AcDbLine
 10
14
 20
-18.50000000000003
 11
-3.000000000000014
 21
-18.50000000000003
  0
ARC
  5
21D
100
AcDbEntity
  8
claw
  6
ByLayer
 62
  256
370
   -1
100
AcDbCircle
 10
14
 20
-13.50000000000003
 40
5
100
AcDbArc
 50
270
 51
0
  0
ARC
  5
21E
100
AcDbEntity
  8
claw
  6
ByLayer
 62
  256
370
   -1
100
AcDbCircle
 10
-55.75651426033463
 20
28.68188121311682
 40
54.57354621240871
100
AcDbArc
 50
211.7062068439316
 51
275.0001225738179
  0
LINE
  5
21F
100
AcDbEntity
  8
claw
  6
ByLayer
 62
  256
370
   -1
100
AcDbLine
 10
-50.99999999999999
 20
-1.4210854715202e-014
 11
-50.99999999999999
 21
-25.68398600418367
  0
LINE
  5
220
100
AcDbEntity
  8
claw
  6
ByLayer
 62
  256
370
   -1
100
AcDbLine
 10
19
 20
0
 11
19
 21
-13.50000000000003
  0
ENDBLK
  5
BF
330
BD
100
AcDbEntity
  8
0
100
AcDbBlockEnd
  0
BLOCK
  5
C1
330
C0
100
AcDbEntity
  8
0
100
AcDbBlockBegin
  2
gearbox-0
 70
    0
 10
0
 20
0
  3
gearbox-0
  1

  0
LINE
  5
221
100
AcDbEntity
  8
0
  6
ByLayer
 62
  256
370
   -1
100
AcDbLine
 10
0
 20
30
 11
0
 21
-30
  0
LINE
  5
222
100
AcDbEntity
  8
0
  6
ByLayer
 62
  256
370
   -1
100
AcDbLine
 10
70
 20
17
 11
40
 21
17
  0
LINE
  5
223
100
AcDbEntity
  8
0
  6
ByLayer
 62
  256
370
   -1
100
AcDbLine
 10
40
 20
-17
 11
70
 21
-17
  0
LINE
  5
224
100
AcDbEntity
  8
0
  6
ByLayer
 62
  256
370
   -1
100
AcDbLine
 10
70
 20
-17
 11
70
 21
17
  0
LINE
  5
225
100
AcDbEntity
  8
0
  6
ByLayer
 62
  256
370
   -1
100
AcDbLine
 10
0
 20
-30
 11
40
 21
-30
  0
LINE
  5
226
100
AcDbEntity
  8
0
  6
ByLayer
 62
  256
370
   -1
100
AcDbLine
 10
40
 20
30
 11
0
 21
30
  0
LINE
  5
227
100
AcDbEntity
  8
0
  6
ByLayer
 62
  256
370
   -1
100
AcDbLine
 10
40
 20
30
 11
40
 21
17
  0
LINE
  5
228
100
AcDbEntity
  8
0
  6
ByLayer
 62
  256
370
   -1
100
AcDbLine
 10
40
 20
-17
 11
40
 21
-30
  0
ENDBLK
  5
C2
330
C0
100
AcDbEntity
  8
0
100
AcDbBlockEnd
  0
BLOCK
  5
C4
330
C3
100
AcDbEntity
  8
0
100
AcDbBlockBegin
  2
gearbox1-0
 70
    0
 10
0
 20
0
  3
gearbox1-0
  1

  0
LINE
  5
229
100
AcDbEntity
  8
component
  6
ByLayer
 62
  253
420
10526884
370
   -1
100
AcDbLine
 10
40
 20
28
 11
40
 21
19
  0
LINE
  5
22A
100
AcDbEntity
  8
component
  6
ByLayer
 62
  253
420
10526884
370
   -1
100
AcDbLine
 10
38
 20
30
 11
2
 21
30
  0
LINE
  5
22B
100
AcDbEntity
  8
component
  6
ByLayer
 62
  253
420
10526884
370
   -1
100
AcDbLine
 10
42
 20
-17
 11
68
 21
-17
  0
LINE
  5
22C
100
AcDbEntity
  8
component
  6
ByLayer
 62
  253
420
10526884
370
   -1
100
AcDbLine
 10
70
 20
-15
 11
70
 21
15
  0
LINE
  5
22D
100
AcDbEntity
  8
component
  6
ByLayer
 62
  253
420
10526884
370
   -1
100
AcDbLine
 10
68
 20
17
 11
42
 21
17
  0
LINE
  5
22E
100
AcDbEntity
  8
component
  6
ByLayer
 62
  253
420
10526884
370
   -1
100
AcDbLine
 10
40
 20
-19
 11
40
 21
-28
  0
LINE
  5
22F
100
AcDbEntity
  8
component
  6
ByLayer
 62
  253
420
10526884
370
   -1
100
AcDbLine
 10
2
 20
-30
 11
38
 21
-30
  0
LINE
  5
230
100
AcDbEntity
  8
component
  6
ByLayer
 62
  253
420
10526884
370
   -1
100
AcDbLine
 10
0
 20
28
 11
0
 21
-28
  0
ARC
  5
231
100
AcDbEntity
  8
component
  6
ByLayer
 62
  253
420
10526884
370
   -1
100
AcDbCircle
 10
42
 20
19
 40
2
100
AcDbArc
 50
180
 51
270
  0
ARC
  5
232
100
AcDbEntity
  8
component
  6
ByLayer
 62
  253
420
10526884
370
   -1
100
AcDbCircle
 10
42
 20
-19
 40
2
100
AcDbArc
 50
90
 51
180
  0
ARC
  5
233
100
AcDbEntity
  8
component
  6
ByLayer
 62
  253
420
10526884
370
   -1
100
AcDbCircle
 10
38
 20
28
 40
2
100
AcDbArc
 50
0
 51
90
  0
ARC
  5
234
100
AcDbEntity
  8
component
  6
ByLayer
 62
  253
420
10526884
370
   -1
100
AcDbCircle
 10
2
 20
28
 40
2
100
AcDbArc
 50
90
 51
180
  0
ARC
  5
235
100
AcDbEntity
  8
component
  6
ByLayer
 62
  253
420
10526884
370
   -1
100
AcDbCircle
 10
68
 20
-15
 40
2
100
AcDbArc
 50
270
 51
0
  0
ARC
  5
236
100
AcDbEntity
  8
component
  6
ByLayer
 62
  253
420
10526884
370
   -1
100
AcDbCircle
 10
68
 20
15
 40
2
100
AcDbArc
 50
0
 51
90
  0
ARC
  5
237
100
AcDbEntity
  8
component
  6
ByLayer
 62
  253
420
10526884
370
   -1
100
AcDbCircle
 10
38
 20
-28
 40
2
100
AcDbArc
 50
270
 51
0
  0
ARC
  5
238
100
AcDbEntity
  8
component
  6
ByLayer
 62
  253
420
10526884
370
   -1
100
AcDbCircle
 10
2
 20
-28
 40
2
100
AcDbArc
 50
180
 51
270
  0
ENDBLK
  5
C5
330
C3
100
AcDbEntity
  8
0
100
AcDbBlockEnd
  0
BLOCK
  5
C7
330
C6
100
AcDbEntity
  8
0
100
AcDbBlockBegin
  2
stepper_side
 70
    0
 10
0
 20
0
  3
stepper_side
  1

  0
LWPOLYLINE
  5
239
100
AcDbEntity
  8
component
  6
ByLayer
 62
  256
370
   -1
100
AcDbPolyline
 90
    4
 70
    1
 43
0
 10
0
 20
-17
 10
19
 20
-17
 10
19
 20
14
 10
0
 20
14
  0
LWPOLYLINE
  5
23A
100
AcDbEntity
  8
component
  6
ByLayer
 62
  256
370
   -1
100
AcDbPolyline
 90
    4
 70
    1
 43
0
 10
19
 20
3.499999999999999
 10
20.5
 20
3.499999999999999
 10
20.5
 20
12.5
 10
19
 20
12.5
  0
LWPOLYLINE
  5
23B
100
AcDbEntity
  8
component
  6
ByLayer
 62
  256
370
   -1
100
AcDbPolyline
 90
    4
 70
    1
 43
0
 10
18
 20
-3.500000000000003
 10
19
 20
-3.500000000000003
 10
19
 20
3.499999999999999
 10
18
 20
3.499999999999999
  0
LWPOLYLINE
  5
23C
100
AcDbEntity
  8
phantom
  6
ByLayer
 62
  256
370
   -1
100
AcDbPolyline
 90
    4
 70
    1
 43
0
 10
18.00000000000001
 20
-2.100000000000011
 10
19.00000000000001
 20
-2.100000000000011
 10
19.00000000000001
 20
2.100000000000011
 10
18.00000000000001
 20
2.100000000000011
  0
LINE
  5
23D
100
AcDbEntity
  8
component
  6
ByLayer
 62
  256
370
   -1
100
AcDbLine
 10
0
 20
-11.94612908016651
 11
19
 21
-11.94612908016651
  0
LINE
  5
23E
100
AcDbEntity
  8
center
  6
ByLayer
 62
  256
370
   -1
100
AcDbLine
 10
-1.499999999999993
 20
0
 11
21.50000000000001
 21
0
  0
LINE
  5
23F
100
AcDbEntity
  8
component
  6
ByLayer
 62
  256
370
   -1
100
AcDbLine
 10
20.5
 20
10.5
 11
23
 21
10.5
  0
LINE
  5
240
100
AcDbEntity
  8
component
  6
ByLayer
 62
  256
370
   -1
100
AcDbLine
 10
23
 20
10.5
 11
23
 21
9.499999999999998
  0
LINE
  5
241
100
AcDbEntity
  8
component
  6
ByLayer
 62
  256
370
   -1
100
AcDbLine
 10
23
 20
9.499999999999998
 11
29
 21
9.499999999999998
  0
LINE
  5
242
100
AcDbEntity
  8
component
  6
ByLayer
 62
  256
370
   -1
100
AcDbLine
 10
29
 20
9.499999999999998
 11
29
 21
6.499999999999998
  0
LINE
  5
243
100
AcDbEntity
  8
component
  6
ByLayer
 62
  256
370
   -1
100
AcDbLine
 10
29
 20
6.499999999999998
 11
23
 21
6.499999999999998
  0
LINE
  5
244
100
AcDbEntity
  8
component
  6
ByLayer
 62
  256
370
   -1
100
AcDbLine
 10
23
 20
6.499999999999998
 11
23
 21
5.500000000000002
  0
LINE
  5
245
100
AcDbEntity
  8
component
  6
ByLayer
 62
  256
370
   -1
100
AcDbLine
 10
23
 20
5.500000000000002
 11
20.5
 21
5.500000000000002
  0
LINE
  5
246
100
AcDbEntity
  8
center
  6
ByLayer
 62
  256
370
   -1
100
AcDbLine
 10
-2.000000000000004
 20
7.999999999999998
 11
30
 21
7.999999999999998
  0
ENDBLK
  5
C8
330
C6
100
AcDbEntity
  8
0
100
AcDbBlockEnd
  0
BLOCK
  5
CA
330
C9
100
AcDbEntity
  8
0
100
AcDbBlockBegin
  2
stepper_front
 70
    0
 10
0
 20
0
  3
stepper_front
  1

  0
LINE
  5
247
100
AcDbEntity
  8
center
  6
ByLayer
 62
  256
370
   -1
100
AcDbLine
 10
-4.999999999999997
 20
7.999999999999996
 11
5.000000000000003
 21
7.999999999999996
  0
LINE
  5
248
100
AcDbEntity
  8
center
  6
ByLayer
 62
  256
370
   -1
100
AcDbLine
 10
17.5
 20
-4.050000000000012
 11
17.5
 21
4.050000000000003
  0
LINE
  5
249
100
AcDbEntity
  8
center
  6
ByLayer
 62
  256
370
   -1
100
AcDbLine
 10
-7.20201005840269e-016
 20
-18
 11
6.001675048668905e-016
 21
14.99999999999999
  0
LINE
  5
24A
100
AcDbEntity
  8
center
  6
ByLayer
 62
  256
370
   -1
100
AcDbLine
 10
-17.5
 20
-4.050000000000013
 11
-17.5
 21
4.050000000000003
  0
LINE
  5
24B
100
AcDbEntity
  8
center
  6
ByLayer
 62
  256
370
   -1
100
AcDbLine
 10
-22.5
 20
4.609539746430746e-015
 11
22.5
 21
-4.609539746430746e-015
  0
LINE
  5
24C
100
AcDbEntity
  8
center
  6
ByLayer
 62
  256
370
   -1
100
AcDbLine
 10
-7.300000000000001
 20
-17
 11
-7.300000000000001
 21
-17
  0
LINE
  5
24D
100
AcDbEntity
  8
center
  6
ByLayer
 62
  256
370
   -1
100
AcDbLine
 10
7.3
 20
-17
 11
7.3
 21
-17
  0
ARC
  5
24E
100
AcDbEntity
  8
component
  6
ByLayer
 62
  256
370
   -1
100
AcDbCircle
 10
17.5
 20
-4.507105529843396e-015
 40
3.5
100
AcDbArc
 50
270
 51
90
  0
CIRCLE
  5
24F
100
AcDbEntity
  8
component
  6
ByLayer
 62
  256
370
   -1
100
AcDbCircle
 10
17.5
 20
-4.507105529843396e-015
 40
2.1
  0
LINE
  5
250
100
AcDbEntity
  8
component
  6
ByLayer
 62
  256
370
   -1
100
AcDbLine
 10
13.55544171172596
 20
3.499999999999996
 11
17.5
 21
3.499999999999996
  0
LINE
  5
251
100
AcDbEntity
  8
component
  6
ByLayer
 62
  256
370
   -1
100
AcDbLine
 10
13.55544171172596
 20
-3.500000000000005
 11
17.5
 21
-3.500000000000004
  0
CIRCLE
  5
252
100
AcDbEntity
  8
component
  6
ByLayer
 62
  256
370
   -1
100
AcDbCircle
 10
3.819447125998705e-016
 20
7.999999999999996
 40
4.5
  0
CIRCLE
  5
253
100
AcDbEntity
  8
component
  6
ByLayer
 62
  256
370
   -1
100
AcDbCircle
 10
3.819447125998705e-016
 20
7.999999999999996
 40
2.5
  0
ARC
  5
254
100
AcDbEntity
  8
component
  6
ByLayer
 62
  256
370
   -1
100
AcDbCircle
 10
-17.5
 20
-6.283462369243647e-015
 40
3.5
100
AcDbArc
 50
90
 51
270
  0
CIRCLE
  5
255
100
AcDbEntity
  8
component
  6
ByLayer
 62
  256
370
   -1
100
AcDbCircle
 10
-17.5
 20
-6.283462369243647e-015
 40
2.1
  0
LINE
  5
256
100
AcDbEntity
  8
component
  6
ByLayer
 62
  256
370
   -1
100
AcDbLine
 10
-13.55544171172596
 20
3.499999999999996
 11
-17.5
 21
3.499999999999996
  0
LINE
  5
257
100
AcDbEntity
  8
component
  6
ByLayer
 62
  256
370
   -1
100
AcDbLine
 10
-13.55544171172596
 20
-3.500000000000006
 11
-17.5
 21
-3.500000000000006
  0
LINE
  5
258
100
AcDbEntity
  8
component
  6
ByLayer
 62
  256
370
   -1
100
AcDbLine
 10
-2.000000000000004
 20
9.499999999999995
 11
2.000000000000006
 21
9.499999999999995
  0
LINE
  5
259
100
AcDbEntity
  8
component
  6
ByLayer
 62
  256
370
   -1
100
AcDbLine
 10
-2
 20
6.499999999999996
 11
2.000000000000001
 21
6.499999999999996
  0
LINE
  5
25A
100
AcDbEntity
  8
component
  6
ByLayer
 62
  256
370
   -1
100
AcDbLine
 10
-7.300000000000001
 20
-17
 11
-7.300000000000001
 21
-11.94612908016651
  0
LINE
  5
25B
100
AcDbEntity
  8
component
  6
ByLayer
 62
  256
370
   -1
100
AcDbLine
 10
-7.300000000000001
 20
-17
 11
7.3
 21
-17
  0
LINE
  5
25C
100
AcDbEntity
  8
component
  6
ByLayer
 62
  256
370
   -1
100
AcDbLine
 10
7.3
 20
-17
 11
7.299999999999998
 21
-11.94612908016652
  0
ARC
  5
25D
100
AcDbEntity
  8
component
  6
ByLayer
 62
  256
370
   -1
100
AcDbCircle
 10
1.270123132299996e-015
 20
-2.730748690443146e-015
 40
14
100
AcDbArc
 50
301.4281261151339
 51
238.5718738848661
  0
ENDBLK
  5
CB
330
C9
100
AcDbEntity
  8
0
100
AcDbBlockEnd
  0
BLOCK
  5
CD
330
CC
100
AcDbEntity
  8
0
100
AcDbBlockBegin
  2
stepper_side-0
 70
    0
 10
0
 20
0
  3
stepper_side-0
  1

  0
INSERT
  5
25E
100
AcDbEntity
  8
center
  6
ByLayer
 62
  256
370
   -1
100
AcDbBlockReference
  2
stepper_side
 10
0
 20
1.332267629550188e-015
 30
0
 41
1
 42
1
 43
0
 50
0
 70
    1
 71
    1
 44
0
 45
0
  0
ENDBLK
  5
CE
330
CC
100
AcDbEntity
  8
0
100
AcDbBlockEnd
  0
ENDSEC
  0
SECTION
  2
ENTITIES
  0
HATCH
  5
25F
100
AcDbEntity
  8
0
  6
ByLayer
 62
    5
370
   -1
100
AcDbHatch
 10
0
 20
0
 30
0
210
0
220
0
230
1
  2
angle
 70
    0
 71
    0
 91
    1
 92
    0
 93
    1
 72
    2
 10
82.7
 20
330
 40
30
 50
0
 51
360
 73
    1
 97
    0
 75
    0
 76
    1
 52
0.7853981633974483
 41
0.1
 77
    0
 78
    0
 98
    0
  0
LINE
  5
260
100
AcDbEntity
  8
center
  6
ByLayer
 62
  256
370
   -1
100
AcDbLine
 10
150.4
 20
32
 11
15.4
 21
32
  0
LINE
  5
261
100
AcDbEntity
  8
center
  6
ByLayer
 62
  256
370
   -1
100
AcDbLine
 10
50
 20
14
 11
110
 21
14
  0
LWPOLYLINE
  5
262
100
AcDbEntity
  8
main
  6
ByLayer
 62
  256
370
   -1
100
AcDbPolyline
 90
    5
 70
    1
 43
0
 10
3.6540673460829e-017
 20
18.5
 10
160
 20
18.5
 10
160
 20
22.5
 10
3.6540673460829e-017
 20
22.5
 10
3.6540673460829e-017
 20
22.5
  0
CIRCLE
  5
263
100
AcDbEntity
  8
component
  6
ByLayer
 62
   40
420
16755200
370
   -1
100
AcDbCircle
 10
150.4
 20
32
 40
16
  0
CIRCLE
  5
264
100
AcDbEntity
  8
component
  6
ByLayer
 62
   40
420
16755200
370
   -1
100
AcDbCircle
 10
80
 20
14
 40
11
  0
CIRCLE
  5
265
100
AcDbEntity
  8
component
  6
ByLayer
 62
   40
420
16755200
370
   -1
100
AcDbCircle
 10
50
 20
14
 40
11
  0
CIRCLE
  5
266
100
AcDbEntity
  8
component
  6
ByLayer
 62
   40
420
16755200
370
   -1
100
AcDbCircle
 10
15.4
 20
32
 40
16
  0
LINE
  5
267
100
AcDbEntity
  8
component
  6
DOTTINY
 62
   96
420
32768
370
   -1
100
AcDbLine
 10
150.4
 20
51
 11
15.4
 21
51
  0
LINE
  5
268
100
AcDbEntity
  8
component
  6
DOTTINY
 62
   96
420
32768
370
   -1
100
AcDbLine
 10
47.51638325655582
 20
0
 11
112.1578051368476
 21
0
  0
LINE
  5
269
100
AcDbEntity
  8
component
  6
DOTTINY
 62
   96
420
32768
370
   -1
100
AcDbLine
 10
112.1578051368476
 20
0
 11
156.1209932873751
 21
13.88177062166921
  0
LINE
  5
26A
100
AcDbEntity
  8
component
  6
DOTTINY
 62
   96
420
32768
370
   -1
100
AcDbLine
 10
8.864436600706451
 20
14.15941674008906
 11
47.51638325655582
 21
0
  0
ARC
  5
26B
100
AcDbEntity
  8
component
  6
DOTTINY
 62
   96
420
32768
370
   -1
100
AcDbCircle
 10
150.4
 20
32
 40
19
100
AcDbArc
 50
287.5239786537538
 51
90
  0
ARC
  5
26C
100
AcDbEntity
  8
component
  6
DOTTINY
 62
   96
420
32768
370
   -1
100
AcDbCircle
 10
15.4
 20
32
 40
19
100
AcDbArc
 50
90
 51
249.8806381630715
  0
DIMENSION
  5
26D
100
AcDbEntity
  8
dimension
  6
ByLayer
 62
  256
370
   -1
100
AcDbDimension
  2
*D1
 10
160
 20
-10
 30
0
 11
80
 21
-10
 31
0
 70
   32
 71
    5
  3
Standard
 53
0
210
0
220
0
230
1
100
AcDbAlignedDimension
 13
3.6540673460829e-017
 23
18.5
 33
0
 14
160
 24
18.5
 34
0
100
AcDbRotatedDimension
  0
CIRCLE
  5
26E
100
AcDbEntity
  8
component
  6
ByLayer
 62
   40
420
16755200
370
   -1
100
AcDbCircle
 10
110
 20
14
 40
11
  0
LWPOLYLINE
  5
26F
100
AcDbEntity
  8
component
  6
ByLayer
 62
    7
370
   -1
100
AcDbPolyline
 90
    6
 70
    1
 43
0
 10
3.6540673460829e-017
 20
45.5
 10
45
 20
45.5
 10
45
 20
54.49999999999999
 10
3.6540673460829e-017
 20
54.49999999999999
 10
3.6540673460829e-017
 20
54.49999999999999
 10
3.6540673460829e-017
 20
54.49999999999999
  0
LWPOLYLINE
  5
270
100
AcDbEntity
  8
main
  6
ByLayer
 62
  256
370
   -1
100
AcDbPolyline
 90
    4
 70
    1
 43
0
 10
70
 20
22.5
 10
160
 20
22.5
 10
160
 20
32.5
 10
70
 20
32.5
  0
LWPOLYLINE
  5
271
100
AcDbEntity
  8
main
  6
ByLayer
 62
  256
370
   -1
100
AcDbPolyline
 90
    4
 70
    1
 43
0
 10
70
 20
32.5
 10
95.40000000000001
 20
32.5
 10
95.40000000000001
 20
132.5
 10
70
 20
132.5
  0
LWPOLYLINE
  5
272
100
AcDbEntity
  8
main
  6
ByLayer
 62
  256
370
   -1
100
AcDbPolyline
 90
    4
 70
    1
 43
0
 10
70
 20
132.5
 10
95.40000000000001
 20
132.5
 10
95.40000000000001
 20
157.9
 10
70
 20
157.9
  0
LINE
  5
273
100
AcDbEntity
  8
center
  6
ByLayer
 62
  256
370
   -1
100
AcDbLine
 10
105.4
 20
145.2
 11
60
 21
145.2
  0
LWPOLYLINE
  5
274
100
AcDbEntity
  8
main
  6
ByLayer
 62
  256
370
   -1
100
AcDbPolyline
 90
    4
 70
    1
 43
0
 10
45
 20
69.5
 10
39
 20
69.5
 10
39
 20
184.5
 10
45
 20
184.5
  0
LWPOLYLINE
  5
275
100
AcDbEntity
  8
component
  6
ByLayer
 62
  256
370
   -1
100
AcDbPolyline
 90
    5
 70
    1
 43
0
 10
39
 20
69.5
 10
21
 20
69.5
 10
21
 20
134.5
 10
39
 20
134.5
 10
39
 20
134.5
  0
LWPOLYLINE
  5
276
100
AcDbEntity
  8
component
  6
ByLayer
 62
  256
370
   -1
100
AcDbPolyline
 90
    5
 70
    1
 43
0
 10
39
 20
183.5
 10
35
 20
183.5
 10
35
 20
159.5
 10
39
 20
159.5
 10
39
 20
159.5
  0
LWPOLYLINE
  5
277
100
AcDbEntity
  8
component
  6
ByLayer
 62
  256
370
   -1
100
AcDbPolyline
 90
    4
 70
    1
 43
0
 10
30
 20
169.5
 10
35
 20
169.5
 10
35
 20
177.5
 10
30
 20
177.5
  0
LINE
  5
278
100
AcDbEntity
  8
center
  6
ByLayer
 62
  256
370
   -1
100
AcDbLine
 10
27
 20
173.5
 11
47
 21
173.5
  0
LWPOLYLINE
  5
279
100
AcDbEntity
  8
component
  6
ByLayer
 62
  253
420
10526884
370
   -1
100
AcDbPolyline
 90
    4
 70
    1
 43
0
 10
3.6540673460829e-017
 20
22.5
 10
70
 20
22.5
 10
70
 20
45.5
 10
3.6540673460829e-017
 20
45.5
  0
DIMENSION
  5
27A
100
AcDbEntity
  8
dimension
  6
ByLayer
 62
  256
370
   -1
100
AcDbDimension
  2
*D2
 10
160
 20
170
 30
0
 11
121.35
 21
170
 31
0
 70
   32
 71
    5
 72
    0
  3
Standard
 53
0
210
0
220
0
230
1
100
AcDbAlignedDimension
 13
82.7
 23
157.9
 33
0
 14
160
 24
32.5
 34
0
100
AcDbRotatedDimension
  0
DIMENSION
  5
27B
100
AcDbEntity
  8
dimension
  6
ByLayer
 62
  256
370
   -1
100
AcDbDimension
  2
*D3
 10
-50
 20
173.5
 30
0
 11
-50.00000000000001
 21
86.75
 31
0
 70
   32
 71
    5
 72
    0
  3
Standard
 53
0
210
0
220
0
230
1
100
AcDbAlignedDimension
 13
0
 23
0
 33
0
 14
30
 24
173.5
 34
0
 50
90
100
AcDbRotatedDimension
  0
DIMENSION
  5
27C
100
AcDbEntity
  8
dimension
  6
ByLayer
 62
  256
370
   -1
100
AcDbDimension
  2
*D4
 10
112.7
 20
220
 30
0
 11
82.7
 21
220
 31
0
 70
   32
 71
    5
  3
Standard
 53
0
210
0
220
0
230
1
100
AcDbAlignedDimension
 13
52.7
 23
207.9
 33
0
 14
112.7
 24
207.9
 34
0
100
AcDbRotatedDimension
  0
LWPOLYLINE
  5
27D
100
AcDbEntity
  8
main
  6
ByLayer
 62
  256
370
   -1
100
AcDbPolyline
 90
    4
 70
    1
 43
0
 10
0
 20
300
 10
160
 20
300
 10
160
 20
360
 10
0
 20
360
  0
LINE
  5
27E
100
AcDbEntity
  8
center
  6
ByLayer
 62
  256
370
   -1
100
AcDbLine
 10
-20
 20
330
 11
180
 21
330
  0
LINE
  5
27F
100
AcDbEntity
  8
center
  6
ByLayer
 62
  256
370
   -1
100
AcDbLine
 10
80
 20
292.5
 11
80
 21
367.5
  0
LWPOLYLINE
  5
280
100
AcDbEntity
  8
main
  6
ByLayer
 62
  256
370
   -1
100
AcDbPolyline
 90
    4
 70
    1
 43
0
 10
70
 20
317.3
 10
95.40000000000001
 20
317.3
 10
95.40000000000001
 20
342.7
 10
70
 20
342.7
  0
DIMENSION
  5
281
100
AcDbEntity
  8
dimension
  6
ByLayer
 62
  256
370
   -1
100
AcDbDimension
  2
*D5
 10
169.3934199132225
 20
-20
 30
0
 11
82.89670995661129
 21
-20
 31
0
 70
   32
 71
    5
  3
Standard
 53
0
210
0
220
0
230
1
100
AcDbAlignedDimension
 13
-3.600000000000008
 23
32
 33
0
 14
169.3934199132225
 24
32.5
 34
0
100
AcDbRotatedDimension
  0
LINE
  5
282
100
AcDbEntity
  8
center
  6
ByLayer
 62
  256
370
   -1
100
AcDbLine
 10
82.7
 20
406.1999999999999
 11
82.7
 21
253.8000000000001
  0
LWPOLYLINE
  5
283
100
AcDbEntity
  8
phantom
  6
ByLayer
 62
  256
370
   -1
100
AcDbPolyline
 90
    4
 70
    1
 43
0
 10
-3.799999999999997
 20
276
 10
169.2
 20
276
 10
169.2
 20
292
 10
-3.799999999999997
 20
292
  0
LWPOLYLINE
  5
284
100
AcDbEntity
  8
phantom
  6
ByLayer
 62
  256
370
   -1
100
AcDbPolyline
 90
    4
 70
    1
 43
0
 10
-3.799999999999997
 20
384
 10
169.2
 20
384
 10
169.2
 20
368
 10
-3.799999999999997
 20
368
  0
LWPOLYLINE
  5
285
100
AcDbEntity
  8
component
  6
ByLayer
 62
    7
370
   -1
100
AcDbPolyline
 90
    4
 70
    1
 43
0
 10
0
 20
312.5
 10
45
 20
312.5
 10
45
 20
347.5
 10
0
 20
347.5
  0
LWPOLYLINE
  5
286
100
AcDbEntity
  8
main
  6
ByLayer
 62
  256
370
   -1
100
AcDbPolyline
 90
    4
 70
    1
 43
0
 10
70
 20
270
 10
95.40000000000001
 20
270
 10
95.40000000000001
 20
280
 10
70
 20
280
  0
LWPOLYLINE
  5
287
100
AcDbEntity
  8
main
  6
ByLayer
 62
  256
370
   -1
100
AcDbPolyline
 90
    4
 70
    1
 43
0
 10
70
 20
380
 10
95.40000000000001
 20
380
 10
95.40000000000001
 20
390
 10
70
 20
390
  0
LWPOLYLINE
  5
288
100
AcDbEntity
  8
main
  6
ByLayer
 62
  256
370
   -1
100
AcDbPolyline
 90
    4
 70
    1
 43
0
 10
70
 20
280
 10
95.40000000000001
 20
280
 10
95.40000000000001
 20
380
 10
70
 20
380
  0
LWPOLYLINE
  5
289
100
AcDbEntity
  8
claw
  6
ByLayer
 62
  256
370
   -1
100
AcDbPolyline
 90
    4
 70
    1
 43
0
 10
-28.30000000000019
 20
396
 10
41.6999999999998
 20
396
 10
41.6999999999998
 20
402
 10
-28.30000000000019
 20
402
  0
LWPOLYLINE
  5
28A
100
AcDbEntity
  8
claw
  6
ByLayer
 62
  256
370
   -1
100
AcDbPolyline
 90
    4
 70
    1
 43
0
 10
21.69999999999981
 20
390
 10
101.7
 20
390
 10
101.7
 20
396
 10
21.69999999999981
 20
396
  0
LWPOLYLINE
  5
28B
100
AcDbEntity
  8
claw
  6
ByLayer
 62
  256
370
   -1
100
AcDbPolyline
 90
    4
 70
    1
 43
0
 10
70
 20
390
 10
50
 20
390
 10
50
 20
360
 10
70
 20
360
  0
LWPOLYLINE
  5
28C
100
AcDbEntity
  8
claw
  6
ByLayer
 62
  256
370
   -1
100
AcDbPolyline
 90
    4
 70
    1
 43
0
 10
-28.30000000000019
 20
264
 10
41.6999999999998
 20
264
 10
41.6999999999998
 20
258
 10
-28.30000000000019
 20
258
  0
LWPOLYLINE
  5
28D
100
AcDbEntity
  8
claw
  6
ByLayer
 62
  256
370
   -1
100
AcDbPolyline
 90
    4
 70
    1
 43
0
 10
21.69999999999981
 20
270
 10
101.7
 20
270
 10
101.7
 20
264
 10
21.69999999999981
 20
264
  0
LWPOLYLINE
  5
28E
100
AcDbEntity
  8
claw
  6
ByLayer
 62
  256
370
   -1
100
AcDbPolyline
 90
    4
 70
    1
 43
0
 10
41.6999999999998
 20
270
 10
81.6999999999998
 20
270
 10
81.6999999999998
 20
300
 10
41.6999999999998
 20
300
  0
CIRCLE
  5
28F
100
AcDbEntity
  8
component
  6
ByLayer
 62
    5
370
   -1
100
AcDbCircle
 10
82.7
 20
330
 40
30
  0
LWPOLYLINE
  5
290
100
AcDbEntity
  8
component
  6
ByLayer
 62
  136
420
32896
370
   -1
100
AcDbPolyline
 90
    5
 70
    1
 43
0
 10
45
 20
45.5
 10
67
 20
45.5
 10
67
 20
137.5
 10
45
 20
137.5
 10
45
 20
137.5
  0
LWPOLYLINE
  5
291
100
AcDbEntity
  8
component
  6
ByLayer
 62
  136
420
32896
370
   -1
100
AcDbPolyline
 90
    5
 70
    1
 43
0
 10
98.40000000000001
 20
32.5
 10
141.4
 20
32.5
 10
141.4
 20
120.5
 10
98.40000000000001
 20
120.5
 10
98.40000000000001
 20
120.5
  0
LWPOLYLINE
  5
292
100
AcDbEntity
  8
component
  6
ByLayer
 62
  136
420
32896
370
   -1
100
AcDbPolyline
 90
    8
 70
    1
 43
0
 10
103.4
 20
308.5
 10
136.4
 20
308.5
 42
0.414213562373095
 10
141.4
 20
313.5
 10
141.4
 20
346.5
 42
0.414213562373095
 10
136.4
 20
351.5
 10
103.4
 20
351.5
 42
0.414213562373095
 10
98.40000000000001
 20
346.5
 10
98.40000000000001
 20
313.5
 42
0.414213562373095
  0
LWPOLYLINE
  5
293
100
AcDbEntity
  8
component
  6
ByLayer
 62
  136
420
32896
370
   -1
100
AcDbPolyline
 90
    8
 70
    1
 43
0
 10
55.00000000000001
 20
303
 10
57
 20
303
 42
0.414213562373095
 10
67
 20
313
 10
67
 20
347
 42
0.414213562373095
 10
57
 20
357
 10
55.00000000000001
 20
357
 42
0.414213562373095
 10
45.00000000000001
 20
347
 10
45.00000000000001
 20
313
 42
0.414213562373095
  0
DIMENSION
  5
294
100
AcDbEntity
  8
dimension
  6
ByLayer
 62
  256
370
   -1
100
AcDbDimension
  2
*D6
 10
-9.999999999999998
 20
18.5
 30
0
 11
-10
 21
9.25
 31
0
 70
   32
 71
    5
 72
    0
  3
Standard
 53
0
210
0
220
0
230
1
100
AcDbAlignedDimension
 13
-1.309415979201e-016
 23
0
 33
0
 14
3.6540673460829e-017
 24
18.5
 34
0
 50
90
100
AcDbRotatedDimension
  0
DIMENSION
  5
295
100
AcDbEntity
  8
dimension
  6
ByLayer
 62
  256
370
   -1
100
AcDbDimension
  2
*D7
 10
-20
 20
32.00000000000001
 30
0
 11
-20
 21
16
 31
0
 70
   32
 71
    5
 72
    0
  3
Standard
 53
0
210
0
220
0
230
1
100
AcDbAlignedDimension
 13
0
 23
0
 33
0
 14
15.4
 24
32
 34
0
 50
90
100
AcDbRotatedDimension
  0
DIMENSION
  5
296
100
AcDbEntity
  8
dimension
  6
ByLayer
 62
  256
370
   -1
100
AcDbDimension
  2
*D8
 10
-30
 20
34
 30
0
 11
-30
 21
17
 31
0
 70
   32
 71
    5
 72
    0
  3
Standard
 53
0
210
0
220
0
230
1
100
AcDbAlignedDimension
 13
0
 23
0
 33
0
 14
-7.000000000000016
 24
34
 34
0
 50
90
100
AcDbRotatedDimension
  0
INSERT
  5
297
100
AcDbEntity
  8
component
  6
ByLayer
 62
  256
370
   -1
100
AcDbBlockReference
  2
gearbox1
 10
0
 20
330
 30
0
 41
1
 42
1
 43
0
 50
0
 70
    1
 71
    1
 44
0
 45
0
  0
DIMENSION
  5
298
100
AcDbEntity
  8
dimension
  6
ByLayer
 62
  256
370
   -1
100
AcDbDimension
  2
*D9
 10
45
 20
220
 30
0
 11
42
 21
220
 31
0
 70
   32
 71
    5
 72
    0
  3
Standard
 53
0
210
0
220
0
230
1
100
AcDbAlignedDimension
 13
39
 23
184.5
 33
0
 14
45
 24
184.5
 34
0
100
AcDbRotatedDimension
  0
LWPOLYLINE
  5
299
100
AcDbEntity
  8
component
  6
ByLayer
 62
  256
370
   -1
100
AcDbPolyline
 90
    5
 70
    1
 43
0
 10
39.00000000000001
 20
342
 10
35.00000000000001
 20
342
 10
35.00000000000001
 20
318
 10
39.00000000000001
 20
318
 10
39.00000000000001
 20
318
  0
LWPOLYLINE
  5
29A
100
AcDbEntity
  8
component
  6
ByLayer
 62
  256
370
   -1
100
AcDbPolyline
 90
    4
 70
    1
 43
0
 10
30.00000000000001
 20
326
 10
35.00000000000001
 20
326
 10
35.00000000000001
 20
334
 10
30.00000000000001
 20
334
  0
LWPOLYLINE
  5
29B
100
AcDbEntity
  8
main
  6
ByLayer
 62
  256
370
   -1
100
AcDbPolyline
 90
    4
 70
    1
 43
0
 10
39.00000000000001
 20
316.5
 10
45.00000000000001
 20
316.5
 10
45.00000000000001
 20
343.5
 10
39.00000000000001
 20
343.5
  0
DIMENSION
  5
29C
100
AcDbEntity
  8
dimension
  6
ByLayer
 62
  256
370
   -1
100
AcDbDimension
  2
*D10
 10
150
 20
157.9000040989665
 30
0
 11
150
 21
145.2000020494833
 31
0
 70
   32
 71
    5
 72
    0
  3
Standard
 53
0
210
0
220
0
230
1
100
AcDbAlignedDimension
 13
95.40000000000001
 23
132.5
 33
0
 14
130.2
 24
157.9000040989665
 34
0
 50
90
100
AcDbRotatedDimension
  0
LINE
  5
29D
100
AcDbEntity
  8
center
  6
ByLayer
 62
  256
370
   -1
100
AcDbLine
 10
1.5
 20
342
 11
-7.5
 21
342
  0
LWPOLYLINE
  5
29E
100
AcDbEntity
  8
component
  6
ByLayer
 62
  256
370
   -1
100
AcDbPolyline
 90
    4
 70
    1
 43
0
 10
-2
 20
338
 10
0
 20
338
 10
0
 20
346
 10
-2
 20
346
  0
ARC
  5
29F
100
AcDbEntity
  8
component
  6
ByLayer
 62
  256
370
   -1
100
AcDbCircle
 10
-2
 20
342
 40
3
100
AcDbArc
 50
90
 51
270
  0
LINE
  5
2A0
100
AcDbEntity
  8
center
  6
ByLayer
 62
  256
370
   -1
100
AcDbLine
 10
1.5
 20
318
 11
-7.5
 21
318
  0
LWPOLYLINE
  5
2A1
100
AcDbEntity
  8
component
  6
ByLayer
 62
  256
370
   -1
100
AcDbPolyline
 90
    4
 70
    1
 43
0
 10
-2
 20
322
 10
0
 20
322
 10
0
 20
314
 10
-2
 20
314
  0
ARC
  5
2A2
100
AcDbEntity
  8
component
  6
ByLayer
 62
  256
370
   -1
100
AcDbCircle
 10
-2
 20
318
 40
3
100
AcDbArc
 50
90
 51
270
  0
LINE
  5
2A3
100
AcDbEntity
  8
center
  6
ByLayer
 62
  256
370
   -1
100
AcDbLine
 10
1.5
 20
34
 11
-7.5
 21
34
  0
LWPOLYLINE
  5
2A4
100
AcDbEntity
  8
component
  6
ByLayer
 62
  256
370
   -1
100
AcDbPolyline
 90
    4
 70
    1
 43
0
 10
-2
 20
38
 10
3.6540673460829e-017
 20
38
 10
3.6540673460829e-017
 20
30
 10
-2
 20
30
  0
ARC
  5
2A5
100
AcDbEntity
  8
component
  6
ByLayer
 62
  256
370
   -1
100
AcDbCircle
 10
-2
 20
34
 40
3
100
AcDbArc
 50
90
 51
270
  0
LWPOLYLINE
  5
2A6
100
AcDbEntity
  8
component
  6
ByLayer
 62
  256
370
   -1
100
AcDbPolyline
 90
    4
 70
    1
 43
0
 10
15
 20
326.5
 10
35
 20
326.5
 10
35
 20
333.5
 10
15
 20
333.5
  0
CIRCLE
  5
2A7
100
AcDbEntity
  8
0
  6
ByLayer
 62
  256
370
   -1
100
AcDbCircle
 10
69.99999999999999
 20
374.9999999999946
 40
5
  0
LINE
  5
2A8
100
AcDbEntity
  8
center
  6
ByLayer
 62
  256
370
   -1
100
AcDbLine
 10
63.99999999999999
 20
374.9999999999945
 11
76.00000000000595
 21
374.9999999999947
  0
LWPOLYLINE
  5
2A9
100
AcDbEntity
  8
component
  6
ByLayer
 62
  256
370
   -1
100
AcDbPolyline
 90
    4
 70
    1
 43
0
 10
14.99999999999998
 20
54.49999999999999
 10
34.99999999999999
 20
54.49999999999999
 10
34.99999999999999
 20
56.49999999999999
 10
14.99999999999998
 20
56.49999999999999
  0
LINE
  5
2AA
100
AcDbEntity
  8
center
  6
ByLayer
 62
  256
370
   -1
100
AcDbLine
 10
70
 20
156.15
 11
70
 21
173.65
  0
LWPOLYLINE
  5
2AB
100
AcDbEntity
  8
0
  6
DASHED2
 62
    2
370
   -1
100
AcDbPolyline
 90
    4
 70
    1
 43
0
 10
65.00000000000003
 20
157.9
 10
75
 20
157.9
 10
75
 20
158.9
 10
65.00000000000003
 20
158.9
  0
ARC
  5
2AC
100
AcDbEntity
  8
0
  6
DASHED2
 62
    2
370
   -1
100
AcDbCircle
 10
70
 20
166.9
 40
5.000000000000014
100
AcDbArc
 50
3.256838297651743e-013
 51
179.9999999999997
  0
LINE
  5
2AD
100
AcDbEntity
  8
0
  6
DASHED2
 62
    2
370
   -1
100
AcDbLine
 10
75
 20
166.9
 11
75
 21
158.9
  0
LINE
  5
2AE
100
AcDbEntity
  8
0
  6
DASHED2
 62
    2
370
   -1
100
AcDbLine
 10
65
 20
166.9
 11
65.00000000000003
 21
158.9
  0
LINE
  5
2AF
100
AcDbEntity
  8
phantom
  6
ByLayer
 62
  256
370
   -1
100
AcDbLine
 10
200.4
 20
0
 11
65.40000000000001
 21
0
  0
LWPOLYLINE
  5
2B0
100
AcDbEntity
  8
main
  6
ByLayer
 62
  256
370
   -1
100
AcDbPolyline
 90
    4
 70
    1
 43
0
 10
320
 20
18.49999999999999
 10
380
 20
18.49999999999999
 10
380
 20
22.49999999999999
 10
320
 20
22.49999999999999
  0
LINE
  5
2B1
100
AcDbEntity
  8
center
  6
ByLayer
 62
  256
370
   -1
100
AcDbLine
 10
275
 20
31.99999999999999
 11
425
 21
31.99999999999999
  0
DIMENSION
  5
2B2
100
AcDbEntity
  8
dimension
  6
ByLayer
 62
  256
370
   -1
100
AcDbDimension
  2
*D11
 10
380
 20
-10.00000000000001
 30
0
 11
350
 21
-10.00000000000001
 31
0
 70
   32
 71
    5
 72
    0
  3
Standard
 53
0
210
0
220
0
230
1
100
AcDbAlignedDimension
 13
320
 23
18.49999999999999
 33
0
 14
380
 24
18.49999999999999
 34
0
100
AcDbRotatedDimension
  0
LWPOLYLINE
  5
2B3
100
AcDbEntity
  8
component
  6
ByLayer
 62
   40
420
16755200
370
   -1
100
AcDbPolyline
 90
    4
 70
    1
 43
0
 10
299
 20
15.99999999999999
 10
309
 20
15.99999999999999
 10
309
 20
47.99999999999999
 10
299
 20
47.99999999999999
  0
LWPOLYLINE
  5
2B4
100
AcDbEntity
  8
component
  6
DOTTINY
 62
   96
420
32768
370
   -1
100
AcDbPolyline
 90
    4
 70
    1
 43
0
 10
296
 20
-1.4210854715202e-014
 10
312
 20
-1.4210854715202e-014
 10
312
 20
50.99999999999999
 10
296
 20
50.99999999999999
  0
LINE
  5
2B5
100
AcDbEntity
  8
center
  6
ByLayer
 62
  256
370
   -1
100
AcDbLine
 10
304
 20
55.99999999999999
 11
304
 21
-5.000000000000014
  0
LWPOLYLINE
  5
2B6
100
AcDbEntity
  8
component
  6
ByLayer
 62
   40
420
16755200
370
   -1
100
AcDbPolyline
 90
    4
 70
    1
 43
0
 10
401
 20
15.99999999999999
 10
391
 20
15.99999999999999
 10
391
 20
47.99999999999999
 10
401
 20
47.99999999999999
  0
LWPOLYLINE
  5
2B7
100
AcDbEntity
  8
component
  6
DOTTINY
 62
   96
420
32768
370
   -1
100
AcDbPolyline
 90
    4
 70
    1
 43
0
 10
404
 20
-1.4210854715202e-014
 10
388
 20
-1.4210854715202e-014
 10
388
 20
50.99999999999999
 10
404
 20
50.99999999999999
  0
LINE
  5
2B8
100
AcDbEntity
  8
center
  6
ByLayer
 62
  256
370
   -1
100
AcDbLine
 10
396
 20
55.99999999999999
 11
396
 21
-5.000000000000014
  0
DIMENSION
  5
2B9
100
AcDbEntity
  8
dimension
  6
ByLayer
 62
  256
370
   -1
100
AcDbDimension
  2
*D12
 10
404
 20
-20.00000000000001
 30
0
 11
350
 21
-20.00000000000001
 31
0
 70
   32
 71
    5
 72
    0
  3
Standard
 53
0
210
0
220
0
230
1
100
AcDbAlignedDimension
 13
296
 23
-1.4210854715202e-014
 33
0
 14
404
 24
-1.4210854715202e-014
 34
0
100
AcDbRotatedDimension
  0
MTEXT
  5
2BA
100
AcDbEntity
  8
dimension
  6
ByLayer
 62
  256
370
   -1
100
AcDbMText
 10
305
 20
-50.00000000000001
 30
0
 40
4
 41
98.7791120105707
 71
    1
 72
    1
  1
MAT: Modular Articulated Transport\Pversion: 2.0\P2019/01/05 MLG
  7
unicode
210
0
220
0
230
1
 50
0
 73
    2
 44
1
  0
LWPOLYLINE
  5
2BB
100
AcDbEntity
  8
component
  6
ByLayer
 62
  256
370
   -1
100
AcDbPolyline
 90
    4
 70
    1
 43
0
 10
337.5
 20
159.5
 10
362.5
 20
159.5
 10
362.5
 20
183.5
 10
337.5
 20
183.5
  0
LWPOLYLINE
  5
2BC
100
AcDbEntity
  8
component
  6
ByLayer
 62
  256
370
   -1
100
AcDbPolyline
 90
    4
 70
    1
 43
0
 10
346
 20
169.5
 10
354
 20
169.5
 10
354
 20
177.5
 10
346
 20
177.5
  0
CIRCLE
  5
2BD
100
AcDbEntity
  8
component
  6
ByLayer
 62
  256
370
   -1
100
AcDbCircle
 10
350
 20
173.5
 40
4
  0
LINE
  5
2BE
100
AcDbEntity
  8
center
  6
ByLayer
 62
  256
370
   -1
100
AcDbLine
 10
330.75
 20
173.5
 11
369.25
 21
173.5
  0
LWPOLYLINE
  5
2BF
100
AcDbEntity
  8
main
  6
ByLayer
 62
  256
370
   -1
100
AcDbPolyline
 90
    4
 70
    1
 43
0
 10
337.3
 20
32.49999999999999
 10
362.7
 20
32.49999999999999
 10
362.7
 20
132.5
 10
337.3
 20
132.5
  0
LINE
  5
2C0
100
AcDbEntity
  8
center
  6
ByLayer
 62
  256
370
   -1
100
AcDbLine
 10
422.7
 20
145.2
 11
277.3
 21
145.2
  0
LWPOLYLINE
  5
2C1
100
AcDbEntity
  8
component
  6
ByLayer
 62
  253
420
10526884
370
   -1
100
AcDbPolyline
 90
    4
 70
    1
 43
0
 10
325
 20
22.49999999999999
 10
375
 20
22.49999999999999
 10
375
 20
45.49999999999999
 10
325
 20
45.49999999999999
  0
LWPOLYLINE
  5
2C2
100
AcDbEntity
  8
component
  6
ByLayer
 62
    7
370
   -1
100
AcDbPolyline
 90
    4
 70
    1
 43
0
 10
332.5
 20
45.49999999999999
 10
367.5
 20
45.49999999999999
 10
367.5
 20
54.49999999999999
 10
332.5
 20
54.49999999999999
  0
LWPOLYLINE
  5
2C3
100
AcDbEntity
  8
main
  6
ByLayer
 62
  256
370
   -1
100
AcDbPolyline
 90
    4
 70
    1
 43
0
 10
300
 20
132.5
 10
400
 20
132.5
 10
400
 20
157.9
 10
300
 20
157.9
  0
LWPOLYLINE
  5
2C4
100
AcDbEntity
  8
component
  6
ByLayer
 62
   40
420
16755200
370
   -1
100
AcDbPolyline
 90
    5
 70
    1
 43
0
 10
299
 20
2.999999999999234
 10
309
 20
2.999999999999234
 10
309
 20
25.00000000000086
 10
299
 20
25.00000000000086
 10
299
 20
25.00000000000086
  0
LWPOLYLINE
  5
2C5
100
AcDbEntity
  8
component
  6
ByLayer
 62
   40
420
16755200
370
   -1
100
AcDbPolyline
 90
    5
 70
    1
 43
0
 10
401
 20
2.999999999999234
 10
391
 20
2.999999999999234
 10
391
 20
25.00000000000085
 10
401
 20
25.00000000000085
 10
401
 20
25.00000000000085
  0
LINE
  5
2C6
100
AcDbEntity
  8
center
  6
ByLayer
 62
  256
370
   -1
100
AcDbLine
 10
390
 20
14.00000000000004
 11
402
 21
14.00000000000004
  0
LINE
  5
2C7
100
AcDbEntity
  8
center
  6
ByLayer
 62
  256
370
   -1
100
AcDbLine
 10
310
 20
14.00000000000004
 11
298
 21
14.00000000000004
  0
LWPOLYLINE
  5
2C8
100
AcDbEntity
  8
main
  6
ByLayer
 62
  256
370
   -1
100
AcDbPolyline
 90
    4
 70
    1
 43
0
 10
336.5
 20
69.49999999999997
 10
363.5
 20
69.49999999999997
 10
363.5
 20
184.5
 10
336.5
 20
184.5
  0
LWPOLYLINE
  5
2C9
100
AcDbEntity
  8
component
  6
ByLayer
 62
  256
370
   -1
100
AcDbPolyline
 90
    4
 70
    1
 43
0
 10
336.5
 20
69.49999999999997
 10
363.5
 20
69.49999999999997
 10
363.5
 20
134.5
 10
336.5
 20
134.5
  0
DIMENSION
  5
2CA
100
AcDbEntity
  8
dimension
  6
ByLayer
 62
  256
370
   -1
100
AcDbDimension
  2
*D13
 10
296
 20
-10
 30
0
 11
304
 21
-10
 31
0
 70
   32
 71
    5
  3
Standard
 53
0
210
0
220
0
230
1
100
AcDbAlignedDimension
 13
312
 23
0
 33
0
 14
296
 24
-1.4210854715202e-014
 34
0
100
AcDbRotatedDimension
  0
CIRCLE
  5
2CB
100
AcDbEntity
  8
component
  6
ByLayer
 62
  256
370
   -1
100
AcDbCircle
 10
338
 20
33.99999999999999
 40
4
  0
CIRCLE
  5
2CC
100
AcDbEntity
  8
component
  6
ByLayer
 62
  256
370
   -1
100
AcDbCircle
 10
338
 20
33.99999999999999
 40
3
  0
LINE
  5
2CD
100
AcDbEntity
  8
center
  6
ByLayer
 62
  256
370
   -1
100
AcDbLine
 10
333.0000000000012
 20
33.99999999999999
 11
343.0000000000046
 21
33.99999999999999
  0
LINE
  5
2CE
100
AcDbEntity
  8
center
  6
ByLayer
 62
  256
370
   -1
100
AcDbLine
 10
338.0000000000001
 20
39.00000000000283
 11
338.0000000000001
 21
29.00000000000119
  0
CIRCLE
  5
2CF
100
AcDbEntity
  8
component
  6
ByLayer
 62
  256
370
   -1
100
AcDbCircle
 10
362
 20
33.99999999999999
 40
4
  0
CIRCLE
  5
2D0
100
AcDbEntity
  8
component
  6
ByLayer
 62
  256
370
   -1
100
AcDbCircle
 10
362
 20
33.99999999999999
 40
3
  0
LINE
  5
2D1
100
AcDbEntity
  8
center
  6
ByLayer
 62
  256
370
   -1
100
AcDbLine
 10
366.9999999999988
 20
33.99999999999999
 11
356.9999999999954
 21
33.99999999999999
  0
LINE
  5
2D2
100
AcDbEntity
  8
center
  6
ByLayer
 62
  256
370
   -1
100
AcDbLine
 10
361.9999999999999
 20
39.00000000000283
 11
361.9999999999999
 21
29.00000000000119
  0
LWPOLYLINE
  5
2D3
100
AcDbEntity
  8
component
  6
ByLayer
 62
  136
420
32896
370
   -1
100
AcDbPolyline
 90
    4
 70
    1
 43
0
 10
323
 20
45.49999999999999
 10
377
 20
45.49999999999999
 10
377
 20
137.5
 10
323
 20
137.5
  0
DIMENSION
  5
2D4
100
AcDbEntity
  8
dimension
  6
ByLayer
 62
  256
370
   -1
100
AcDbDimension
  2
*D14
 10
430
 20
22.49999999999999
 30
0
 11
430
 21
28.25
 31
0
 70
   32
 71
    5
 72
    0
  3
Standard
 53
0
210
0
220
0
230
1
100
AcDbAlignedDimension
 13
366.0000000000016
 23
34.00000000000001
 33
0
 14
380
 24
22.49999999999999
 34
0
 50
90
100
AcDbRotatedDimension
  0
DIMENSION
  5
2D5
100
AcDbEntity
  8
dimension
  6
ByLayer
 62
  256
370
   -1
100
AcDbDimension
  2
*D15
 10
430
 20
18.49999999999999
 30
0
 11
430
 21
20.49999999999999
 31
0
 70
   32
 71
    5
 72
    0
  3
Standard
 53
0
210
0
220
0
230
1
100
AcDbAlignedDimension
 13
380
 23
22.49999999999999
 33
0
 14
380
 24
18.49999999999999
 34
0
 50
90
100
AcDbRotatedDimension
  0
DIMENSION
  5
2D6
100
AcDbEntity
  8
dimension
  6
ByLayer
 62
  256
370
   -1
100
AcDbDimension
  2
*D16
 10
350
 20
220
 30
0
 11
375
 21
220
 31
0
 70
   32
 71
    5
 72
    0
  3
Standard
 53
0
210
0
220
0
230
1
100
AcDbAlignedDimension
 13
400
 23
157.9
 33
0
 14
350
 24
184.5
 34
0
100
AcDbRotatedDimension
  0
DIMENSION
  5
2D7
100
AcDbEntity
  8
dimension
  6
ByLayer
 62
  256
370
   -1
100
AcDbDimension
  2
*D17
 10
300
 20
230
 30
0
 11
350
 21
230
 31
0
 70
   32
 71
    5
 72
    0
  3
Standard
 53
0
210
0
220
0
230
1
100
AcDbAlignedDimension
 13
400
 23
157.9
 33
0
 14
300
 24
157.9
 34
0
100
AcDbRotatedDimension
  0
LINE
  5
2D8
100
AcDbEntity
  8
center
  6
ByLayer
 62
  256
370
   -1
100
AcDbLine
 10
350
 20
209
 11
350
 21
14.49999999999998
  0
DIMENSION
  5
2D9
100
AcDbEntity
  8
dimension
  6
ByLayer
 62
  256
370
   -1
100
AcDbDimension
  2
*D18
 10
361.9999999999999
 20
3.552713678800501e-015
 30
0
 11
350
 21
3.552713678800501e-015
 31
0
 70
   32
 71
    5
 72
    0
  3
Standard
 53
0
210
0
220
0
230
1
100
AcDbAlignedDimension
 13
338.0000000000001
 23
30.00000000000173
 33
0
 14
361.9999999999999
 24
30.00000000000097
 34
0
100
AcDbRotatedDimension
  0
LWPOLYLINE
  5
2DA
100
AcDbEntity
  8
0
  6
ByLayer
 62
  256
370
   -1
100
AcDbPolyline
 90
    4
 70
    1
 43
0
 10
300
 20
157.9
 10
310
 20
157.9
 10
310
 20
158.9
 10
300
 20
158.9
  0
ARC
  5
2DB
100
AcDbEntity
  8
0
  6
ByLayer
 62
  256
370
   -1
100
AcDbCircle
 10
305
 20
166.9
 40
5.000000000000014
100
AcDbArc
 50
3.256838297651743e-013
 51
179.9999999999997
  0
LINE
  5
2DC
100
AcDbEntity
  8
0
  6
ByLayer
 62
  256
370
   -1
100
AcDbLine
 10
310
 20
166.9
 11
310
 21
158.9
  0
LINE
  5
2DD
100
AcDbEntity
  8
0
  6
ByLayer
 62
  256
370
   -1
100
AcDbLine
 10
300
 20
166.9
 11
300
 21
158.9
  0
LINE
  5
2DE
100
AcDbEntity
  8
center
  6
ByLayer
 62
  256
370
   -1
100
AcDbLine
 10
305
 20
156.15
 11
305
 21
173.65
  0
DIMENSION
  5
2DF
100
AcDbEntity
  8
dimension
  6
ByLayer
 62
  256
370
   -1
100
AcDbDimension
  2
*D19
 10
320
 20
220
 30
0
 11
312.5
 21
220
 31
0
 70
   32
 71
    5
  3
Standard
 53
0
210
0
220
0
230
1
100
AcDbAlignedDimension
 13
305
 23
171.9000000000015
 33
0
 14
320
 24
207.9
 34
0
100
AcDbRotatedDimension
  0
LWPOLYLINE
  5
2E0
100
AcDbEntity
  8
component
  6
ByLayer
 62
  256
370
   -1
100
AcDbPolyline
 90
    4
 70
    1
 43
0
 10
346.5
 20
54.49999999999999
 10
353.5
 20
54.49999999999999
 10
353.5
 20
56.49999999999999
 10
346.5
 20
56.49999999999999
  0
INSERT
  5
2E1
100
AcDbEntity
  8
component
  6
ByLayer
 62
  256
370
   -1
100
AcDbBlockReference
  2
stepper_side-0
 10
400
 20
145.2
 30
0
 41
1
 42
1
 43
0
 50
0
 70
    1
 71
    1
 44
0
 45
0
  0
LWPOLYLINE
  5
2E2
100
AcDbEntity
  8
main
  6
ByLayer
 62
  256
370
   -1
100
AcDbPolyline
 90
    4
 70
    1
 43
0
 10
420.5
 20
165.9
 10
430.5
 20
165.9
 10
430.5
 20
83.99999999999999
 10
420.5
 20
83.99999999999999
  0
LWPOLYLINE
  5
2E3
100
AcDbEntity
  8
claw
  6
ByLayer
 62
  256
370
   -1
100
AcDbPolyline
 90
    4
 70
    1
 43
0
 10
442.5
 20
64.49999999999957
 10
436.5
 20
64.49999999999957
 10
436.5
 20
140.4999999999997
 10
442.5
 20
140.4999999999997
  0
LWPOLYLINE
  5
2E4
100
AcDbEntity
  8
claw
  6
ByLayer
 62
  256
370
   -1
100
AcDbPolyline
 90
    4
 70
    1
 43
0
 10
436.5
 20
64.49999999999957
 10
430.5
 20
64.49999999999957
 10
430.5
 20
140.4999999999997
 10
436.5
 20
140.4999999999997
  0
LWPOLYLINE
  5
2E5
100
AcDbEntity
  8
claw
  6
ByLayer
 62
  256
370
   -1
100
AcDbPolyline
 90
    4
 70
    1
 43
0
 10
430.5
 20
83.99999999999962
 10
402.5
 20
83.99999999999962
 10
402.5
 20
120.9999999999996
 10
430.5
 20
120.9999999999996
  0
INSERT
  5
2E6
100
AcDbEntity
  8
component
  6
ByLayer
 62
  256
370
   -1
100
AcDbBlockReference
  2
stepper_side-0
 10
300
 20
145.2
 30
0
 41
-1
 42
1
 43
0
 50
0
 70
    1
 71
    1
 44
0
 45
0
  0
LWPOLYLINE
  5
2E7
100
AcDbEntity
  8
main
  6
ByLayer
 62
  256
370
   -1
100
AcDbPolyline
 90
    4
 70
    1
 43
0
 10
279.5
 20
165.9
 10
269.5
 20
165.9
 10
269.5
 20
83.99999999999999
 10
279.5
 20
83.99999999999999
  0
LWPOLYLINE
  5
2E8
100
AcDbEntity
  8
claw
  6
ByLayer
 62
  256
370
   -1
100
AcDbPolyline
 90
    4
 70
    1
 43
0
 10
257.5
 20
64.49999999999957
 10
263.5
 20
64.49999999999957
 10
263.5
 20
140.4999999999997
 10
257.5
 20
140.4999999999997
  0
LWPOLYLINE
  5
2E9
100
AcDbEntity
  8
claw
  6
ByLayer
 62
  256
370
   -1
100
AcDbPolyline
 90
    4
 70
    1
 43
0
 10
263.5
 20
64.49999999999957
 10
269.5
 20
64.49999999999957
 10
269.5
 20
140.4999999999997
 10
263.5
 20
140.4999999999997
  0
LWPOLYLINE
  5
2EA
100
AcDbEntity
  8
claw
  6
ByLayer
 62
  256
370
   -1
100
AcDbPolyline
 90
    4
 70
    1
 43
0
 10
269.5
 20
83.99999999999962
 10
297.5
 20
83.99999999999962
 10
297.5
 20
120.9999999999996
 10
269.5
 20
120.9999999999996
  0
LWPOLYLINE
  5
2EB
100
AcDbEntity
  8
component
  6
ByLayer
 62
    5
370
  100
100
AcDbPolyline
 90
    4
 70
    1
 43
0
 10
320
 20
157.9
 10
380
 20
157.9
 10
380
 20
207.9
 10
320
 20
207.9
  0
LWPOLYLINE
  5
2EC
100
AcDbEntity
  8
component
  6
ByLayer
 62
    5
370
  100
100
AcDbPolyline
 90
    4
 70
    1
 43
0
 10
52.7
 20
157.9
 10
112.7
 20
157.9
 10
112.7
 20
207.9
 10
52.7
 20
207.9
  0
DIMENSION
  5
2ED
100
AcDbEntity
  8
dimension
  6
ByLayer
 62
  256
370
   -1
100
AcDbDimension
  2
*D20
 10
250
 20
140.4999999999997
 30
0
 11
250
 21
102.4999999999996
 31
0
 70
   32
 71
    5
 72
    0
  3
Standard
 53
0
210
0
220
0
230
1
100
AcDbAlignedDimension
 13
257.5
 23
64.49999999999957
 33
0
 14
257.5
 24
140.4999999999997
 34
0
 50
90
100
AcDbRotatedDimension
  0
DIMENSION
  5
2EE
100
AcDbEntity
  8
dimension
  6
ByLayer
 62
  256
370
   -1
100
AcDbDimension
  2
*D21
 10
420.5000000000001
 20
240
 30
0
 11
350
 21
240
 31
0
 70
   32
 71
    5
 72
    0
  3
Standard
 53
0
210
0
220
0
230
1
100
AcDbAlignedDimension
 13
279.5
 23
165.9
 33
0
 14
420.5000000000001
 24
165.9
 34
0
100
AcDbRotatedDimension
  0
DIMENSION
  5
2EF
100
AcDbEntity
  8
dimension
  6
ByLayer
 62
  256
370
   -1
100
AcDbDimension
  2
*D22
 10
442.5
 20
250
 30
0
 11
350
 21
250
 31
0
 70
   32
 71
    5
 72
    0
  3
Standard
 53
0
210
0
220
0
230
1
100
AcDbAlignedDimension
 13
257.5
 23
140.4999999999997
 33
0
 14
442.5
 24
140.4999999999997
 34
0
100
AcDbRotatedDimension
  0
DIMENSION
  5
2F0
100
AcDbEntity
  8
dimension
  6
ByLayer
 62
  256
370
   -1
100
AcDbDimension
  2
*D23
 10
420.5000000000001
 20
220
 30
0
 11
410.25
 21
220
 31
0
 70
   32
 71
    5
 72
    0
  3
Standard
 53
0
210
0
220
0
230
1
100
AcDbAlignedDimension
 13
400
 23
159.2
 33
0
 14
420.5000000000001
 24
165.9
 34
0
100
AcDbRotatedDimension
  0
DIMENSION
  5
2F1
100
AcDbEntity
  8
dimension
  6
ByLayer
 62
  256
370
   -1
100
AcDbDimension
  2
*D24
 10
200
 20
-1.075721099631198e-014
 30
0
 11
200
 21
103.95
 31
0
 70
   32
 71
    5
 72
    0
  3
Standard
 53
0
210
0
220
0
230
1
100
AcDbAlignedDimension
 13
112.7
 23
207.9
 33
0
 14
112.1578051368476
 24
-0
 34
0
 50
90
100
AcDbRotatedDimension
  0
LINE
  5
2F2
100
AcDbEntity
  8
center
  6
ByLayer
 62
  256
370
   -1
100
AcDbLine
 10
82.7
 20
209.9
 11
82.7
 21
72.5
  0
LINE
  5
2F3
100
AcDbEntity
  8
center
  6
ByLayer
 62
  256
370
   -1
100
AcDbLine
 10
321.5375
 20
94.49999999999964
 11
378.4625
 21
94.49999999999956
  0
DIMENSION
  5
2F4
100
AcDbEntity
  8
dimension
  6
ByLayer
 62
  256
370
   -1
100
AcDbDimension
  2
*D25
 10
279.5
 20
240
 30
0
 11
274.5
 21
240
 31
0
 70
   32
 71
    5
 72
    0
  3
Standard
 53
0
210
0
220
0
230
1
100
AcDbAlignedDimension
 13
269.5
 23
165.9
 33
0
 14
279.5
 24
165.9
 34
0
100
AcDbRotatedDimension
  0
LINE
  5
2F5
100
AcDbEntity
  8
center
  6
ByLayer
 62
  256
370
   -1
100
AcDbLine
 10
252.5
 20
102.4999999999996
 11
447.5
 21
102.4999999999996
  0
LINE
  5
2F6
100
AcDbEntity
  8
center
  6
ByLayer
 62
  256
370
   -1
100
AcDbLine
 10
121.7
 20
102.4999999999996
 11
62.7
 21
102.4999999999996
  0
INSERT
  5
2F7
100
AcDbEntity
  8
claw
  6
ByLayer
 62
  256
370
   -1
100
AcDbBlockReference
  2
grippera
 10
82.7
 20
102.4999999999996
 30
0
 41
1
 42
1
 43
0
 50
0
 70
    1
 71
    1
 44
0
 45
0
  0
DIMENSION
  5
2F8
100
AcDbEntity
  8
dimension
  6
ByLayer
 62
  256
370
   -1
100
AcDbDimension
  2
*D26
 10
-40.00000000000001
 20
4.89842541528951e-015
 30
0
 11
-40
 21
51.24999999999981
 31
0
 70
   32
 71
    5
 72
    0
  3
Standard
 53
0
210
0
220
0
230
1
100
AcDbAlignedDimension
 13
-28.29999999999997
 23
102.4999999999996
 33
0
 14
0
 24
0
 34
0
 50
90
100
AcDbRotatedDimension
  0
DIMENSION
  5
2F9
100
AcDbEntity
  8
dimension
  6
ByLayer
 62
  256
370
   -1
100
AcDbDimension
  2
*D27
 10
150
 20
102.4999999999996
 30
0
 11
150
 21
117.4999999999998
 31
0
 70
   32
 71
    5
 72
    0
  3
Standard
 53
0
210
0
220
0
230
1
100
AcDbAlignedDimension
 13
95.40000000000001
 23
132.5
 33
0
 14
101.7
 24
102.4999999999996
 34
0
 50
90
100
AcDbRotatedDimension
  0
DIMENSION
  5
2FA
100
AcDbEntity
  8
dimension
  6
ByLayer
 62
  256
370
   -1
100
AcDbDimension
  2
*D28
 10
170
 20
132.5
 30
0
 11
170
 21
82.5
 31
0
 70
   32
 71
    5
 72
    0
  3
Standard
 53
0
210
0
220
0
230
1
100
AcDbAlignedDimension
 13
160
 23
32.5
 33
0
 14
95.40000000000001
 24
132.5
 34
0
 50
90
100
AcDbRotatedDimension
  0
DIMENSION
  5
2FB
100
AcDbEntity
  8
dimension
  6
ByLayer
 62
  256
370
   -1
100
AcDbDimension
  2
*D29
 10
150
 20
157.9
 30
0
 11
150
 21
182.9
 31
0
 70
   32
 71
    5
 72
    0
  3
Standard
 53
0
210
0
220
0
230
1
100
AcDbAlignedDimension
 13
112.7
 23
207.9
 33
0
 14
112.7
 24
157.9
 34
0
 50
90
100
AcDbRotatedDimension
  0
MTEXT
  5
2FC
100
AcDbEntity
  8
dimension
  6
ByLayer
 62
  256
370
   -1
100
AcDbMText
 10
280
 20
270
 30
0
 40
4
 41
213.2235564550151
 71
    7
 72
    1
  3
Bill of Materials\P\Pmodular/basics\P01 / 09 RaspberryPi ZeroW 1.1 header female\P02 / 07 Motor Driver Controller L293D IC\P03 / 13 MicroSDHC 32GB Class 10\P04 / 15 Battery TPLink PowerBank TL-PB05200\P\Paquisition/sensing\P05 / 25 Camera Module Rasp
  3
berryPi V2.1\P06 / 15 Speaker USB Wireless GearHead Model BT3500SLV\P07 / 07 High Power LED Chip 1W Cool White Light 10000K-15000K Cold Bulbs\P08 / 06 Red Dot Diode Laser 5V 650nm 5mW 6mm\P\Particultion/interaction\P09 / 10 Actobotics Horizontal Grip
  3
per Kit A\P10 / 10 Actobotics Horizontal Gripper Kit B\P11/ / 13 Servo Motor HiTec HS-311\P12 / 13 Servo Motor HiTec HS-311\P13 / 3 Stepper Motor 28BYJ-48\P14 / 3 Stepper Motor 28BYJ-48\P\Ptransport\P15 / 16 Tracked Vehicle Chassis ( Tamiya axels, wh
  1
eels, tractor, plate )\P16 / 13 Double Gearbox & Tamiya F130 Motors\P17 / 35 Battery TPLink PowerBank TL-PB10400\P
  7
unicode
210
0
220
0
230
1
 50
0
 73
    2
 44
1
  0
DIMENSION
  5
2FD
100
AcDbEntity
  8
dimension
  6
ByLayer
 62
  256
370
   -1
100
AcDbDimension
  2
*D30
 10
240
 20
83.99999999999962
 30
0
 11
240
 21
124.9499999999998
 31
0
 70
   32
 71
    5
  3
Standard
 53
0
210
0
220
0
230
1
100
AcDbAlignedDimension
 13
269.5
 23
165.9
 33
0
 14
269.5
 24
83.99999999999962
 34
0
 50
90
100
AcDbRotatedDimension
  0
ENDSEC
  0
SECTION
  2
OBJECTS
  0
DICTIONARY
  5
C
330
0
100
AcDbDictionary
281
    1
  3
ACAD_GROUP
350
D
  0
DICTIONARY
  5
D
330
C
100
AcDbDictionary
281
    1
  0
ENDSEC
  0
EOF
